<svg width="24" height="24" viewBox="0 0 24 24" fill="none" xmlns="http://www.w3.org/2000/svg">
<path d="M2.75 21L21.25 21M10.25 16L10.25 3C10.25 2.44772 9.80228 2 9.25 2L6.25 2C5.69772 2 5.25 2.44772 5.25 3L5.25 16C5.25 16.5523 5.69772 17 6.25 17L9.25 17C9.80228 17 10.25 16.5523 10.25 16ZM19.25 16L19.25 8C19.25 7.44772 18.8023 7 18.25 7L15.25 7C14.6977 7 14.25 7.44772 14.25 8L14.25 16C14.25 16.5523 14.6977 17 15.25 17L18.25 17C18.8023 17 19.25 16.5523 19.25 16Z" stroke="#16151C" stroke-linecap="round" stroke-linejoin="round"/>
</svg>
