<svg width="24" height="24" viewBox="0 0 24 24" fill="none" xmlns="http://www.w3.org/2000/svg">
<path d="M2.75 3L21.25 3M10.25 8L10.25 21C10.25 21.5523 9.80228 22 9.25 22L6.25 22C5.69772 22 5.25 21.5523 5.25 21L5.25 8C5.25 7.44772 5.69772 7 6.25 7L9.25 7C9.80228 7 10.25 7.44772 10.25 8ZM19.25 8L19.25 16C19.25 16.5523 18.8023 17 18.25 17L15.25 17C14.6977 17 14.25 16.5523 14.25 16L14.25 8C14.25 7.44772 14.6977 7 15.25 7L18.25 7C18.8023 7 19.25 7.44772 19.25 8Z" stroke="#16151C" stroke-linecap="round" stroke-linejoin="round"/>
</svg>
