<svg width="24" height="24" viewBox="0 0 24 24" fill="none" xmlns="http://www.w3.org/2000/svg">
<path d="M6 22C8.20914 22 10 20.2091 10 18V3.19C10 3.08507 9.91493 3 9.81 3H2.19C2.08507 3 2 3.08507 2 3.19V18C2 20.2091 3.79086 22 6 22ZM6 22L21.5 22C22.0523 22 22.5 21.5523 22.5 21V15.8272C22.5 15.7011 22.4762 15.5762 22.4298 15.459L22.05 14.5M10.1304 12.0621L18.6947 8.67949C19.2086 8.47652 19.7897 8.72875 19.9924 9.24275L22.1917 14.8205C22.3943 15.3342 22.142 15.915 21.6282 16.1176L9.99961 20.7029M6.75 18C6.75 18.4142 6.41421 18.75 6 18.75C5.58579 18.75 5.25 18.4142 5.25 18C5.25 17.5858 5.58579 17.25 6 17.25C6.41421 17.25 6.75 17.5858 6.75 18Z" stroke="#16151C" stroke-miterlimit="1.02018" stroke-linecap="round" stroke-linejoin="round"/>
</svg>
