<svg width="24" height="24" viewBox="0 0 24 24" fill="none" xmlns="http://www.w3.org/2000/svg">
<path d="M2 10.172C2 8.85171 3.04913 7.78136 4.3433 7.78136C5.63746 7.78136 6.68659 8.85171 6.68659 10.172V18.5394C6.68659 19.8598 5.63746 20.9301 4.3433 20.9301C3.04913 20.9301 2 19.8598 2 18.5394V10.172Z" stroke="#18161E" stroke-linecap="round" stroke-linejoin="round"/>
<path d="M13.1538 3.32701C12.0811 2.65498 11.1163 2.95938 9.86194 4.79699L6.68659 9.65991V16.4727C6.68659 21.885 11.0426 21.0115 17.1654 20.8511C21.293 20.743 24.6316 8.3127 19.0706 8.3127H13.5987C14.0117 6.71219 14.9264 4.3906 13.1538 3.32701Z" stroke="#18161E" stroke-linecap="round" stroke-linejoin="round"/>
</svg>
