<svg width="24" height="24" viewBox="0 0 24 24" fill="none" xmlns="http://www.w3.org/2000/svg">
<path d="M2 13.828C2 15.1483 3.04913 16.2186 4.3433 16.2186C5.63746 16.2186 6.68659 15.1483 6.68659 13.828V5.46057C6.68659 4.14023 5.63746 3.06989 4.3433 3.06989C3.04913 3.06989 2 4.14023 2 5.46057V13.828Z" stroke="#18161E" stroke-linecap="round" stroke-linejoin="round"/>
<path d="M13.1538 20.673C12.0811 21.345 11.1163 21.0406 9.86195 19.203L6.68659 14.3401V7.52733C6.68659 2.115 11.0426 2.98848 17.1654 3.14889C21.293 3.25703 24.6316 15.6873 19.0706 15.6873H13.5987C14.0117 17.2878 14.9264 19.6094 13.1538 20.673Z" stroke="#18161E" stroke-linecap="round" stroke-linejoin="round"/>
</svg>
