<svg width="24" height="24" viewBox="0 0 24 24" fill="none" xmlns="http://www.w3.org/2000/svg">
<path d="M10.0526 4.21001C8.43926 2.59666 5.8235 2.59666 4.21015 4.21001C2.5968 5.82336 2.5968 8.43912 4.21015 10.0525M13.9476 19.7899C15.5609 21.4033 18.1767 21.4033 19.79 19.7899C21.4034 18.1766 21.4034 15.5608 19.79 13.9474M11.617 6.54057L17.4594 12.383M6.10864 12.0489L11.9511 17.8914M16.7948 7.22911H16.781M6.81095 17.2129H6.79718M10.0525 19.79L19.7899 10.0526C21.4033 8.4392 21.4033 5.82344 19.7899 4.21009C18.1766 2.59674 15.5608 2.59674 13.9474 4.21009L4.21001 13.9475C2.59666 15.5609 2.59666 18.1766 4.21001 19.79C5.82336 21.4033 8.43912 21.4033 10.0525 19.79Z" stroke="#18161E" stroke-linecap="round" stroke-linejoin="round"/>
</svg>
