<svg width="24" height="24" viewBox="0 0 24 24" fill="none" xmlns="http://www.w3.org/2000/svg">
<path d="M14.5 6.5L13.1642 2.77659C12.8612 1.74114 11.1386 1.74114 10.8356 2.77658L9.5 6.5M16.5801 12.9327L15.8672 11.8632C15.4035 11.1678 14.6229 10.75 13.787 10.75H10.213C9.37708 10.75 8.5965 11.1678 8.13283 11.8632L7.41987 12.9327C7.1461 13.3434 7 13.8259 7 14.3194V19.5C7 20.8807 8.11929 22 9.5 22H14.5C15.8807 22 17 20.8807 17 19.5V14.3194C17 13.8259 16.8539 13.3434 16.5801 12.9327ZM8.875 10.75H15.125C15.8154 10.75 16.375 10.1904 16.375 9.5V8.25C16.375 7.55964 15.8154 7 15.125 7H8.875C8.18464 7 7.625 7.55964 7.625 8.25V9.5C7.625 10.1904 8.18464 10.75 8.875 10.75Z" stroke="#18161E" stroke-linecap="round" stroke-linejoin="round"/>
</svg>
