<svg width="24" height="24" viewBox="0 0 24 24" fill="none" xmlns="http://www.w3.org/2000/svg">
<path d="M8.5 7.5V8.83717C8.5 9.24183 8.27462 9.61531 7.90977 9.81525L6.18045 10.7629C5.45076 11.1628 5 11.9098 5 12.7191V18.75C5 19.9926 6.04467 21 7.33333 21H16.6667C17.9553 21 19 19.9926 19 18.75V12.7191C19 11.9098 18.5492 11.1628 17.8195 10.7629L16.0902 9.81525C15.7254 9.61531 15.5 9.24183 15.5 8.83717V7.5M8.5 7.5H15.5M8.5 7.5C7.85567 7.5 7.33333 6.99632 7.33333 6.375V4.125C7.33333 3.50368 7.85567 3 8.5 3H15.5C16.1443 3 16.6667 3.50368 16.6667 4.125V6.375C16.6667 6.99632 16.1443 7.5 15.5 7.5M5 14.8125L5.209 14.8629C9.66772 15.9378 14.3323 15.9378 18.791 14.8629L19 14.8125" stroke="#18161E" stroke-linecap="round" stroke-linejoin="round"/>
</svg>
