<svg width="24" height="24" viewBox="0 0 24 24" fill="none" xmlns="http://www.w3.org/2000/svg">
<path d="M5.45455 4.125C4.09894 4.125 3 5.25828 3 6.65625V9.1875C3 11.9834 5.19788 14.25 7.90909 14.25M10.3636 4.125C11.7192 4.125 12.8182 5.25828 12.8182 6.65625V9.1875C12.8182 11.9834 10.6203 14.25 7.90909 14.25M7.90909 14.25V15.375C7.90909 18.4816 10.3512 21 13.3636 21C16.3761 21 18.8182 18.4816 18.8182 15.375V9.75M18.8182 9.75C20.0232 9.75 21 8.74264 21 7.5C21 6.25736 20.0232 5.25 18.8182 5.25C17.6132 5.25 16.6364 6.25736 16.6364 7.5C16.6364 8.74264 17.6132 9.75 18.8182 9.75ZM5.72727 3V5.25M10.0909 3V5.25" stroke="#18161E" stroke-linecap="round" stroke-linejoin="round"/>
</svg>
