<svg width="24" height="24" viewBox="0 0 24 24" fill="none" xmlns="http://www.w3.org/2000/svg">
<path d="M14.8245 6.22076L17.7792 9.17547M17.3894 3.65591C18.2393 2.806 19.5897 2.77844 20.4056 3.59436C21.2216 4.41028 21.194 5.76071 20.3441 6.61062L10.5974 16.3573C10.2747 16.68 10.1349 17.1308 10.1 17.5778C10.0345 18.4188 9.67258 19.2519 9.0177 19.9068C7.60118 21.3233 5.35046 21.3693 3.9906 20.0094C2.63073 18.6495 2.67666 16.3988 4.09319 14.9823C4.74806 14.3274 5.58123 13.9655 6.42223 13.9C6.8692 13.8651 7.32001 13.7253 7.64267 13.4026L17.3894 3.65591Z" stroke="#18161E" stroke-linecap="round" stroke-linejoin="round"/>
</svg>
