<svg width="24" height="24" viewBox="0 0 24 24" fill="none" xmlns="http://www.w3.org/2000/svg">
<path d="M16.375 7.9375V14.2768C16.375 15.6082 17.4543 16.6875 18.7857 16.6875C20.5609 16.6875 22 15.2484 22 13.4732V12C22 6.47715 17.5228 2 12 2C6.47715 2 2 6.47715 2 12C2 17.5228 6.47715 22 12 22C13.3261 22 14.592 21.7419 15.75 21.2731M16.375 12C16.375 9.58375 14.4162 7.625 12 7.625C9.58375 7.625 7.625 9.58375 7.625 12C7.625 14.4162 9.58375 16.375 12 16.375C12.9922 16.375 13.9073 16.0447 14.6413 15.488C14.9322 15.2674 15.1946 15.0112 15.4222 14.7259C16.0185 13.9782 16.375 13.0308 16.375 12Z" stroke="#18161E" stroke-linecap="round"/>
</svg>
