<svg width="24" height="24" viewBox="0 0 24 24" fill="none" xmlns="http://www.w3.org/2000/svg">
<path d="M3 4C3 3.44772 3.44772 3 4 3H9C9.55228 3 10 3.44772 10 4V11.5C10 12.0523 9.55228 12.5 9 12.5H4C3.44772 12.5 3 12.0523 3 11.5V4Z" stroke="#18161E" stroke-linecap="round" stroke-linejoin="round"/>
<path d="M3 17.5C3 16.9477 3.44772 16.5 4 16.5H9C9.55228 16.5 10 16.9477 10 17.5V20C10 20.5523 9.55228 21 9 21H4C3.44772 21 3 20.5523 3 20V17.5Z" stroke="#18161E" stroke-linecap="round" stroke-linejoin="round"/>
<path d="M14 4C14 3.44772 14.4477 3 15 3H20C20.5523 3 21 3.44772 21 4V6.5C21 7.05228 20.5523 7.5 20 7.5H15C14.4477 7.5 14 7.05228 14 6.5V4Z" stroke="#18161E" stroke-linecap="round" stroke-linejoin="round"/>
<path d="M14 12.5C14 11.9477 14.4477 11.5 15 11.5H20C20.5523 11.5 21 11.9477 21 12.5V20C21 20.5523 20.5523 21 20 21H15C14.4477 21 14 20.5523 14 20V12.5Z" stroke="#18161E" stroke-linecap="round" stroke-linejoin="round"/>
</svg>
