<svg width="24" height="24" viewBox="0 0 24 24" fill="none" xmlns="http://www.w3.org/2000/svg">
<g clip-path="url(#clip0_435_2614)">
<rect x="0.05" y="0.05" width="23.9" height="23.9" stroke="#CAB1FF" stroke-width="0.1"/>
<rect x="2" y="2" width="20" height="20" rx="10" stroke="#CAB1FF" stroke-width="0.1"/>
<rect x="7" y="7" width="10" height="10" rx="5" stroke="#CAB1FF" stroke-width="0.1"/>
<rect x="3" y="3" width="18" height="18" rx="1" stroke="#CAB1FF" stroke-width="0.1"/>
<rect x="2" y="4" width="20" height="16" rx="1" stroke="#CAB1FF" stroke-width="0.1"/>
<rect x="20" y="2" width="20" height="16" rx="1" transform="rotate(90 20 2)" stroke="#CAB1FF" stroke-width="0.1"/>
<line x1="24" y1="12" y2="12" stroke="#CAB1FF" stroke-width="0.1"/>
<line x1="12.0008" y1="24" x2="12.0008" y2="-2.18557e-09" stroke="#CAB1FF" stroke-width="0.1"/>
<line x1="24.035" y1="24.0354" x2="0.034956" y2="0.0353541" stroke="#CAB1FF" stroke-width="0.1"/>
<line x1="-0.000199089" y1="24" x2="23.9998" y2="4.38501e-05" stroke="#CAB1FF" stroke-width="0.1"/>
</g>
<path d="M3 4C3 3.44772 3.44772 3 4 3H9C9.55228 3 10 3.44772 10 4V11.5C10 12.0523 9.55228 12.5 9 12.5H4C3.44772 12.5 3 12.0523 3 11.5V4Z" stroke="#18161E" stroke-linecap="round" stroke-linejoin="round"/>
<path d="M3 17.5C3 16.9477 3.44772 16.5 4 16.5H9C9.55228 16.5 10 16.9477 10 17.5V20C10 20.5523 9.55228 21 9 21H4C3.44772 21 3 20.5523 3 20V17.5Z" stroke="#18161E" stroke-linecap="round" stroke-linejoin="round"/>
<path d="M14 4C14 3.44772 14.4477 3 15 3H20C20.5523 3 21 3.44772 21 4V6.5C21 7.05228 20.5523 7.5 20 7.5H15C14.4477 7.5 14 7.05228 14 6.5V4Z" stroke="#18161E" stroke-linecap="round" stroke-linejoin="round"/>
<path d="M14 12.5C14 11.9477 14.4477 11.5 15 11.5H20C20.5523 11.5 21 11.9477 21 12.5V20C21 20.5523 20.5523 21 20 21H15C14.4477 21 14 20.5523 14 20V12.5Z" stroke="#18161E" stroke-linecap="round" stroke-linejoin="round"/>
<defs>
<clipPath id="clip0_435_2614">
<rect width="24" height="24" fill="white"/>
</clipPath>
</defs>
</svg>
