<svg width="24" height="24" viewBox="0 0 24 24" fill="none" xmlns="http://www.w3.org/2000/svg">
<path d="M6.25 12C6.25 12.4142 5.91421 12.75 5.5 12.75C5.08579 12.75 4.75 12.4142 4.75 12C4.75 11.5858 5.08579 11.25 5.5 11.25C5.91421 11.25 6.25 11.5858 6.25 12Z" stroke="#18161E"/>
<path d="M12.75 12C12.75 12.4142 12.4142 12.75 12 12.75C11.5858 12.75 11.25 12.4142 11.25 12C11.25 11.5858 11.5858 11.25 12 11.25C12.4142 11.25 12.75 11.5858 12.75 12Z" stroke="#18161E"/>
<path d="M19.25 12C19.25 12.4142 18.9142 12.75 18.5 12.75C18.0858 12.75 17.75 12.4142 17.75 12C17.75 11.5858 18.0858 11.25 18.5 11.25C18.9142 11.25 19.25 11.5858 19.25 12Z" stroke="#18161E"/>
</svg>
