<svg width="24" height="24" viewBox="0 0 24 24" fill="none" xmlns="http://www.w3.org/2000/svg">
<path d="M9.5 8.75C9.5 9.16421 9.16421 9.5 8.75 9.5C8.33579 9.5 8 9.16421 8 8.75C8 8.33579 8.33579 8 8.75 8C9.16421 8 9.5 8.33579 9.5 8.75Z" stroke="#18161E"/>
<path d="M9.5 15.25C9.5 15.6642 9.16421 16 8.75 16C8.33579 16 8 15.6642 8 15.25C8 14.8358 8.33579 14.5 8.75 14.5C9.16421 14.5 9.5 14.8358 9.5 15.25Z" stroke="#18161E"/>
<path d="M16 8.75C16 9.16421 15.6642 9.5 15.25 9.5C14.8358 9.5 14.5 9.16421 14.5 8.75C14.5 8.33579 14.8358 8 15.25 8C15.6642 8 16 8.33579 16 8.75Z" stroke="#18161E"/>
<path d="M16 15.25C16 15.6642 15.6642 16 15.25 16C14.8358 16 14.5 15.6642 14.5 15.25C14.5 14.8358 14.8358 14.5 15.25 14.5C15.6642 14.5 16 14.8358 16 15.25Z" stroke="#18161E"/>
</svg>
