<svg width="24" height="24" viewBox="0 0 24 24" fill="none" xmlns="http://www.w3.org/2000/svg">
<path d="M15.6668 17.2916C16.5672 16.3709 17.122 15.1123 17.122 13.7245C17.122 10.9029 14.8288 8.6156 12 8.6156C9.17122 8.6156 6.87805 10.9029 6.87805 13.7245C6.87805 15.1123 7.43282 16.3709 8.33324 17.2916M19.0985 20.75C20.892 18.9472 22 16.4649 22 13.7245C22 8.21573 17.5228 3.75 12 3.75C6.47715 3.75 2 8.21573 2 13.7245C2 16.4649 3.10796 18.9472 4.90145 20.75M12.7317 13.7245C12.7317 14.1276 12.4041 14.4543 12 14.4543C11.5959 14.4543 11.2683 14.1276 11.2683 13.7245C11.2683 13.3214 11.5959 12.9946 12 12.9946C12.4041 12.9946 12.7317 13.3214 12.7317 13.7245Z" stroke="#16151C" stroke-miterlimit="1.02018" stroke-linecap="round" stroke-linejoin="round"/>
</svg>
