<svg width="24" height="24" viewBox="0 0 24 24" fill="none" xmlns="http://www.w3.org/2000/svg">
<path d="M9 4H21M9 12H21M9 20H21M4.5 4C4.5 4.41421 4.16421 4.75 3.75 4.75C3.33579 4.75 3 4.41421 3 4C3 3.58579 3.33579 3.25 3.75 3.25C4.16421 3.25 4.5 3.58579 4.5 4ZM4.5 12C4.5 12.4142 4.16421 12.75 3.75 12.75C3.33579 12.75 3 12.4142 3 12C3 11.5858 3.33579 11.25 3.75 11.25C4.16421 11.25 4.5 11.5858 4.5 12ZM4.5 20C4.5 20.4142 4.16421 20.75 3.75 20.75C3.33579 20.75 3 20.4142 3 20C3 19.5858 3.33579 19.25 3.75 19.25C4.16421 19.25 4.5 19.5858 4.5 20Z" stroke="#18161E" stroke-linecap="round" stroke-linejoin="round"/>
</svg>
