<svg width="24" height="24" viewBox="0 0 24 24" fill="none" xmlns="http://www.w3.org/2000/svg">
<path d="M21 16.5V18.5M21 21H17.5M14 14V18.5M17.5 21V15C17.5 14.4477 17.9477 14 18.5 14H21M17.5 21H14M21 4V9C21 9.55228 20.5523 10 20 10H15C14.4477 10 14 9.55228 14 9V4C14 3.44772 14.4477 3 15 3H20C20.5523 3 21 3.44772 21 4ZM10 15V20C10 20.5523 9.55228 21 9 21H4C3.44772 21 3 20.5523 3 20V15C3 14.4477 3.44772 14 4 14H9C9.55228 14 10 14.4477 10 15ZM10 4V9C10 9.55228 9.55228 10 9 10H4C3.44772 10 3 9.55228 3 9V4C3 3.44772 3.44772 3 4 3H9C9.55228 3 10 3.44772 10 4Z" stroke="#16151C" stroke-linecap="round" stroke-linejoin="round"/>
</svg>
