<svg width="24" height="24" viewBox="0 0 24 24" fill="none" xmlns="http://www.w3.org/2000/svg">
<path d="M14 20H21C21.5523 20 22 19.5523 22 19V5C22 4.44772 21.5523 4 21 4H3C2.44772 4 2 4.44772 2 5V8M2 11.0539C2.30756 11.0183 2.62039 11 2.9375 11C7.3903 11 11 14.6097 11 19.0625C11 19.3796 10.9817 19.6924 10.9461 20M2 14.8522C2.30182 14.7853 2.61554 14.75 2.9375 14.75C5.31923 14.75 7.25 16.6808 7.25 19.0625C7.25 19.3845 7.21472 19.6982 7.14781 20M4 18.75C4 19.1642 3.66421 19.5 3.25 19.5C2.83579 19.5 2.5 19.1642 2.5 18.75C2.5 18.3358 2.83579 18 3.25 18C3.66421 18 4 18.3358 4 18.75Z" stroke="#16151C" stroke-miterlimit="1.02018" stroke-linecap="round" stroke-linejoin="round"/>
</svg>
