<svg width="24" height="24" viewBox="0 0 24 24" fill="none" xmlns="http://www.w3.org/2000/svg">
<path d="M15.2735 6.61327L6.74167 10.8792M6.74167 13.1208L15.2735 17.3867M7 12C7 13.3807 5.88071 14.5 4.5 14.5C3.11929 14.5 2 13.3807 2 12C2 10.6193 3.11929 9.5 4.5 9.5C5.88071 9.5 7 10.6193 7 12ZM20 5.5C20 6.88071 18.8807 8 17.5 8C16.1193 8 15 6.88071 15 5.5C15 4.11929 16.1193 3 17.5 3C18.8807 3 20 4.11929 20 5.5ZM20 18.5C20 19.8807 18.8807 21 17.5 21C16.1193 21 15 19.8807 15 18.5C15 17.1193 16.1193 16 17.5 16C18.8807 16 20 17.1193 20 18.5Z" stroke="#18161E" stroke-linecap="round" stroke-linejoin="round"/>
</svg>
