<svg width="24" height="24" viewBox="0 0 24 24" fill="none" xmlns="http://www.w3.org/2000/svg">
<path d="M9.75 11.7585V11.3109C9.75 10.0346 10.7502 9 11.9839 9H12.1401C13.5881 9 14.6105 10.4674 14.1526 11.8883C13.89 12.7033 13.4019 13.1582 12.7489 13.689L9.75 16H14.75M7.69976 2.3753L4.21913 6.72609C4.07728 6.9034 4 7.12371 4 7.35078V21C4 21.5523 4.44772 22 5 22H19C19.5523 22 20 21.5523 20 21V3C20 2.44772 19.5523 2 19 2H8.48062C8.17684 2 7.88953 2.13809 7.69976 2.3753Z" stroke="#16151C" stroke-miterlimit="1.02018" stroke-linecap="round" stroke-linejoin="round"/>
</svg>
