<svg width="24" height="24" viewBox="0 0 24 24" fill="none" xmlns="http://www.w3.org/2000/svg">
<path d="M7.69976 2.3753C7.88953 2.13809 8.17684 2 8.48062 2H19C19.5523 2 20 2.44772 20 3V21C20 21.5523 19.5523 22 19 22H5C4.44772 22 4 21.5523 4 21V7.35078C4 7.12371 4.07728 6.9034 4.21913 6.72609L7.69976 2.3753Z" stroke="#16151C" stroke-miterlimit="1.02018" stroke-linecap="round" stroke-linejoin="round"/>
<path d="M9.75 11.7585V11.3109C9.75 10.0346 10.7502 9 11.9839 9H12.1401C13.5881 9 14.6105 10.4674 14.1526 11.8883C13.89 12.7033 13.4019 13.1582 12.7489 13.689L12.0755 14.2079C11.3195 14.7905 11.7315 16 12.6859 16H14.75" stroke="#16151C" stroke-miterlimit="1.02018" stroke-linecap="round" stroke-linejoin="round"/>
</svg>
