<svg width="24" height="24" viewBox="0 0 24 24" fill="none" xmlns="http://www.w3.org/2000/svg">
<path d="M3 4.5H13M21 4.5H18M3 12H5.5M21 12H10.5M3 19.5H13M21 19.5H18M18 4.5C18 5.88071 16.8807 7 15.5 7C14.1193 7 13 5.88071 13 4.5M18 4.5C18 3.11929 16.8807 2 15.5 2C14.1193 2 13 3.11929 13 4.5M10.5 12C10.5 13.3807 9.38071 14.5 8 14.5C6.61929 14.5 5.5 13.3807 5.5 12M10.5 12C10.5 10.6193 9.38071 9.5 8 9.5C6.61929 9.5 5.5 10.6193 5.5 12M18 19.5C18 20.8807 16.8807 22 15.5 22C14.1193 22 13 20.8807 13 19.5M18 19.5C18 18.1193 16.8807 17 15.5 17C14.1193 17 13 18.1193 13 19.5" stroke="#18161E" stroke-linecap="round"/>
</svg>
