<svg width="24" height="24" viewBox="0 0 24 24" fill="none" xmlns="http://www.w3.org/2000/svg">
<path d="M8.5 15.3368C9.42882 14.5055 10.6554 14 12 14V14C12.4016 14 12.9879 13.0135 12.7039 12.7296L9.32651 9.35219M18.7795 11.5621C17.1039 10.0833 14.941 9.14378 12.5625 9.01517M5.2207 11.5621C6.38459 10.5349 7.78353 9.76796 9.32651 9.35219M22 7.73612C19.3227 5.40888 15.8259 4 12 4C10.6362 4 9.31424 4.17902 8.0563 4.51484M2 7.73612C2.86035 6.98825 3.80533 6.33522 4.81867 5.79331C5.19206 5.59363 5.64918 5.67486 5.94859 5.97427L9.32651 9.35219M3 3L21 21M12.75 19.25C12.75 19.6642 12.4142 20 12 20C11.5858 20 11.25 19.6642 11.25 19.25C11.25 18.8358 11.5858 18.5 12 18.5C12.4142 18.5 12.75 18.8358 12.75 19.25Z" stroke="#16151C" stroke-miterlimit="1.02018" stroke-linecap="round" stroke-linejoin="round"/>
</svg>
