<svg width="24" height="24" viewBox="0 0 24 24" fill="none" xmlns="http://www.w3.org/2000/svg">
<path d="M14.6273 5.5C15.2598 4.59326 16.3106 4 17.5 4C19.433 4 21 5.567 21 7.5C21 8.24362 20.7681 8.93308 20.3727 9.5M15.593 7.69421C15.0386 5.56989 13.0805 4 10.75 4C7.98858 4 5.75 6.20414 5.75 8.92308C5.75 9.38832 5.81554 9.83849 5.93804 10.2651M15.593 7.69421C15.6452 7.69295 15.6975 7.69231 15.75 7.69231C19.2018 7.69231 22 10.4475 22 13.8462C22 17.2448 19.2018 20 15.75 20H7C4.23858 20 2 17.7959 2 15.0769C2 12.7168 3.68674 10.7445 5.93804 10.2651M15.593 7.69421V10.2651M5.93804 10.2651H8.25" stroke="#18161E" stroke-linecap="round" stroke-linejoin="round"/>
</svg>
