<svg width="24" height="24" viewBox="0 0 24 24" fill="none" xmlns="http://www.w3.org/2000/svg">
<path d="M5.93804 10.2651C5.81554 9.83849 5.75 9.38832 5.75 8.92308C5.75 6.20414 7.98858 4 10.75 4C11.3406 4 11.9073 4.10083 12.4333 4.28597M5.93804 10.2651C3.68674 10.7445 2 12.7168 2 15.0769C2 17.7959 4.23858 20 7 20H15.75C19.2018 20 22 17.2448 22 13.8462C22 13.1414 21.8797 12.4643 21.6581 11.8337M5.93804 10.2651H8.25M21 7.5C21 9.433 19.433 11 17.5 11C15.567 11 14 9.433 14 7.5C14 5.567 15.567 4 17.5 4C19.433 4 21 5.567 21 7.5Z" stroke="#18161E" stroke-linecap="round" stroke-linejoin="round"/>
</svg>
