<svg width="24" height="24" viewBox="0 0 24 24" fill="none" xmlns="http://www.w3.org/2000/svg">
<path d="M15.593 6.26408C15.0386 4.3871 13.0805 3 10.75 3C7.98858 3 5.75 4.9475 5.75 7.34986C5.75 7.76093 5.81554 8.15868 5.93804 8.53564M15.593 6.26408C15.6452 6.26296 15.6975 6.26239 15.75 6.26239C19.2018 6.26239 22 8.69677 22 11.6997C22 13.9853 20.379 15.9415 18.0827 16.7457M15.593 6.26408V9.47948M5.93804 8.53564C3.68674 8.95925 2 10.7018 2 12.7872C2 14.814 3.59347 16.5171 5.75 17M5.93804 8.53564H8.25M12.5455 13.25L10 17.0395H14L11.5 20.75" stroke="#18161E" stroke-linecap="round" stroke-linejoin="round"/>
</svg>
