<svg width="24" height="24" viewBox="0 0 24 24" fill="none" xmlns="http://www.w3.org/2000/svg">
<path d="M17.1649 13.6228L18.827 11.3624C19.3135 10.7008 18.8421 9.76592 18.022 9.76592H15.5047C14.7901 9.76592 14.3062 9.03666 14.5825 8.37634L16.6694 3.38957C16.9458 2.72926 16.4618 2 15.7472 2H8.03174C7.57287 2 7.17289 2.31294 7.0616 2.75902L6.90428 3.38957M15.1269 16.3943L11.306 21.5904C10.7334 22.3692 9.50097 21.9633 9.50097 20.996V16.0288C9.50097 15.4753 9.05325 15.0267 8.50097 15.0267H5.28174C4.63117 15.0267 4.15381 14.4141 4.3116 13.7816L6.04875 6.81872M3 3L21 21" stroke="#16151C" stroke-miterlimit="1.02018" stroke-linecap="round" stroke-linejoin="round"/>
</svg>
