<svg width="24" height="24" viewBox="0 0 24 24" fill="none" xmlns="http://www.w3.org/2000/svg">
<path d="M15.593 6.29113C15.0386 4.3986 13.0805 3 10.75 3C7.98858 3 5.75 4.96364 5.75 7.38592C5.75 7.8004 5.81554 8.20145 5.93804 8.58153M15.593 6.29113C15.6452 6.29001 15.6975 6.28944 15.75 6.28944C19.2018 6.28944 22 8.74399 22 11.7718C22 13.163 21.4093 14.4331 20.4359 15.3998M15.593 6.29113V8.93926M5.93804 8.58153C3.68674 9.00864 2 10.7657 2 12.8683C2 14.095 2.57409 15.204 3.49944 16M5.93804 8.58153H8.25M8 16V20M12 16V20M16 16V20" stroke="#16151C" stroke-miterlimit="1.02018" stroke-linecap="round" stroke-linejoin="round"/>
</svg>
