<svg width="24" height="24" viewBox="0 0 24 24" fill="none" xmlns="http://www.w3.org/2000/svg">
<path d="M12.0002 12V5.4M12.0002 12V18.6M12.0002 12L17.5347 15.3M12.0002 12L6.46531 8.70056M12.0002 12L6.46531 15.3006M12.0002 5.4L9.09507 3M12.0002 5.4L14.9053 3M12.0002 18.6L9.09507 21M12.0002 18.6L14.9053 21M17.5347 15.3L18.0949 19.098M17.5347 15.3L21 13.9019M6.46531 8.70056L3 10.0986M6.46531 8.70056L5.90514 4.90248M6.46531 15.3006L3 13.9025M6.46531 15.3006L5.90514 19.0987M11.9997 12.0012L17.5347 8.7012M17.5347 8.7012L18.0949 4.90313M17.5347 8.7012L21 10.0993" stroke="#18161E" stroke-linecap="round" stroke-linejoin="round"/>
</svg>
