<svg width="24" height="24" viewBox="0 0 24 24" fill="none" xmlns="http://www.w3.org/2000/svg">
<path d="M2 8H9.42424C10.8468 8 12 6.88071 12 5.5C12 4.11929 10.8468 3 9.42424 3H9.27273C8.35124 3 7.54984 3.49901 7.13973 4.23381" stroke="#16151C" stroke-miterlimit="1.02018" stroke-linecap="round" stroke-linejoin="round"/>
<path d="M2 12H19.0312C20.6708 12 22 10.6569 22 9C22 7.43035 20.7408 6 19.1875 6C17.9641 6 16.9231 6.7894 16.5361 7.89165" stroke="#16151C" stroke-miterlimit="1.02018" stroke-linecap="round" stroke-linejoin="round"/>
<path d="M2 16H17.2679C18.7768 16 20 17.1193 20 18.5C20 19.8807 18.7768 21 17.2679 21H17.1071C16.2951 21 15.571 20.6556 15.0997 20.1176" stroke="#16151C" stroke-miterlimit="1.02018" stroke-linecap="round" stroke-linejoin="round"/>
</svg>
