<svg width="24" height="24" viewBox="0 0 24 24" fill="none" xmlns="http://www.w3.org/2000/svg">
<path d="M11.1335 3.56326C11.4879 2.81225 12.5121 2.81225 12.8665 3.56326L14.8991 7.86978C15.0398 8.168 15.3119 8.37471 15.6267 8.42253L20.1716 9.11312C20.9642 9.23355 21.2807 10.2521 20.7071 10.8366L17.4184 14.1888C17.1906 14.4209 17.0867 14.7554 17.1405 15.0832L17.9168 19.8165C18.0522 20.6419 17.2237 21.2714 16.5148 20.8817L12.4497 18.6469C12.1682 18.4922 11.8318 18.4922 11.5503 18.6469L7.48523 20.8817C6.77631 21.2714 5.94776 20.6419 6.08315 19.8165L6.85952 15.0832C6.91329 14.7554 6.80936 14.4209 6.58161 14.1888L3.29287 10.8366C2.71935 10.2521 3.03582 9.23355 3.82841 9.11312L8.37334 8.42253C8.68808 8.37471 8.96016 8.168 9.10092 7.86978L11.1335 3.56326Z" stroke="#18161E" stroke-linecap="round" stroke-linejoin="round"/>
</svg>
