<svg width="24" height="24" viewBox="0 0 24 24" fill="none" xmlns="http://www.w3.org/2000/svg">
<path d="M18 8C18 11.3137 15.3137 14 12 14C8.68629 14 6 11.3137 6 8M18 8C18 4.68629 15.3137 2 12 2C8.68629 2 6 4.68629 6 8M18 8L16.4376 6.9584C13.7504 5.16694 10.2496 5.16694 7.5624 6.9584L6 8M15.38 13.5C19.2396 14.8249 22 18.3543 22 22.5M2 22.5C2 18.3543 4.76044 14.8249 8.62004 13.5M21 18V12C21 10.8954 20.1046 10 19 10H17.8214M3 18V12C3 10.8954 3.89543 10 5 10H6.25M10.5 18H13.5M13.5 20.5H10.5" stroke="#16151C" stroke-linecap="round" stroke-linejoin="round"/>
</svg>
