<svg width="24" height="24" viewBox="0 0 24 24" fill="none" xmlns="http://www.w3.org/2000/svg">
<path d="M15.0195 13.816V8.99509C15.0195 4.69563 10.0812 1.61441 5.68378 3.57065M9.05541 13.9125V15.2781C9.05542 19.5775 13.9938 22.6588 18.3912 20.7025M9.05541 13.9125V10.1955M9.05541 13.9125L12.11 15.7702M12.11 15.7702L12.8727 16.2341C16.4073 18.3838 21.4095 15.4192 22 10.4293M12.11 15.7702L15.9844 13.2292C19.519 11.0795 19.5829 5.03362 15.776 2M12.1665 8.39792L11.1273 7.7659C7.59273 5.61617 2.59047 8.58079 2 13.5707M12.1665 8.39792L14.9452 10.0879M12.1665 8.39792L8.01559 10.7708C4.481 12.9205 4.4171 18.9664 8.22403 22M3 5V5.01M22 6V6.01M2 17V17.01M22 19V19.01" stroke="#16151C" stroke-miterlimit="1.02018" stroke-linecap="round" stroke-linejoin="round"/>
</svg>
