<svg width="24" height="24" viewBox="0 0 24 24" fill="none" xmlns="http://www.w3.org/2000/svg">
<path d="M17.1391 14.1297C18.0391 15.0297 18.0391 16.4889 17.1391 17.389C16.2391 18.289 14.7798 18.289 13.8798 17.389C12.9798 16.4889 12.9798 15.0297 13.8798 14.1297C14.7798 13.2296 16.2391 13.2296 17.1391 14.1297Z" stroke="#18161E" stroke-linecap="round" stroke-linejoin="round"/>
<path d="M19.033 9.60503C22.1164 12.6885 22.3403 16.8625 19.4765 19.7263C16.6127 22.5901 12.4387 22.3662 9.35526 19.2828C7.54933 17.4769 2.5404 11.4997 2.5404 11.4997C1.90235 10.3798 7.12615 12.2054 6.89518 11.0159C6.45824 8.76561 2.33929 3.95827 3.02389 3.27367C3.7085 2.58905 8.85657 6.36727 11.2503 6.66085C12.5155 6.81603 10.6143 1.66773 11.7342 2.30577C11.7342 2.30577 17.2271 7.79911 19.033 9.60503Z" stroke="#18161E" stroke-linecap="round" stroke-linejoin="round"/>
</svg>
