<svg width="24" height="24" viewBox="0 0 24 24" fill="none" xmlns="http://www.w3.org/2000/svg">
<path d="M15.7143 8.33333L18 6.0303M15.7143 8.33333L18.571 16.3939M15.7143 8.33333L6.57143 6.49091M5.99955 15.2424L4.74286 8.33333M16.8567 18.697L8.85714 17.7548M16.8567 18.697C16.8567 19.9689 17.8805 21 19.1429 21C20.4052 21 21.4286 19.9689 21.4286 18.697C21.4286 17.425 20.4052 16.3939 19.1429 16.3939C17.8805 16.3939 16.8567 17.425 16.8567 18.697ZM8.85714 17.5455C8.85714 18.8174 7.83379 19.8485 6.57143 19.8485C5.30906 19.8485 4.28571 18.8174 4.28571 17.5455C4.28571 16.2735 5.30906 15.2424 6.57143 15.2424C7.83379 15.2424 8.85714 16.2735 8.85714 17.5455ZM6.57143 6.0303C6.57143 7.30223 5.54808 8.33333 4.28571 8.33333C3.02335 8.33333 2 7.30223 2 6.0303C2 4.75837 3.02335 3.72727 4.28571 3.72727C5.54808 3.72727 6.57143 4.75837 6.57143 6.0303ZM22 4.30303C22 5.57496 20.9767 6.60606 19.7143 6.60606C18.4519 6.60606 17.4286 5.57496 17.4286 4.30303C17.4286 3.0311 18.4519 2 19.7143 2C20.9767 2 22 3.0311 22 4.30303Z" stroke="#18161E" stroke-linecap="round"/>
</svg>
