<svg width="24" height="24" viewBox="0 0 24 24" fill="none" xmlns="http://www.w3.org/2000/svg">
<path d="M11.9541 19.1503H14.9046C15.3243 19.1503 15.697 18.8921 15.8243 18.4921C16.4592 16.4966 18.125 10.4383 16.2115 6.95965M11.9541 19.1503H9.00356C8.58387 19.1503 8.21111 18.8921 8.08386 18.4921C7.44894 16.4966 5.78314 10.4383 7.69657 6.95965M11.9541 19.1503V22M7.69657 6.95965C8.65493 5.21733 10.1977 3.40438 11.1394 2.3696C11.5878 1.8768 12.3203 1.8768 12.7688 2.3696C13.7104 3.40438 15.2532 5.21733 16.2115 6.95965M7.69657 6.95965H16.2115M8.39667 18.3409C1.00623 27.1705 1.83654 10.7697 7.08859 8.52421M15.6033 18.3409C22.9938 27.1705 22.1635 10.7697 16.9114 8.52421" stroke="#16151C" stroke-miterlimit="1.02018" stroke-linecap="round" stroke-linejoin="round"/>
</svg>
