<svg width="24" height="24" viewBox="0 0 24 24" fill="none" xmlns="http://www.w3.org/2000/svg">
<path d="M19.0136 9.75536L14.503 12.3595C12.2478 13.6616 10.8418 12.2682 10.2342 11.2157C9.37124 9.72103 9.88335 7.8098 11.378 6.94685L15.8886 4.34267M9.64357 9.15106L4.23089 12.2761C3.23444 12.8514 2.89303 14.1255 3.46833 15.122M3.46833 15.122L2.05469 15.9381M3.46833 15.122C4.04363 16.1184 5.31778 16.4598 6.31423 15.8845L11.7269 12.7595M11.7269 12.7595V18.8447M11.7269 12.7595L7.54332 21.2685M11.7269 12.7595L16.4094 21.2685M18.0741 1.87805L22.2408 9.09497L21.3387 9.6158C20.3422 10.1911 19.0681 9.84969 18.4928 8.85325L16.4094 5.24479C15.8341 4.24834 16.1755 2.97419 17.172 2.39889L18.0741 1.87805Z" stroke="#16151C" stroke-linecap="round" stroke-linejoin="round"/>
</svg>
