<svg width="24" height="24" viewBox="0 0 24 24" fill="none" xmlns="http://www.w3.org/2000/svg">
<path d="M10.3046 4.28878C10.8178 3.20074 12.3756 3.24915 12.8208 4.36698L14.5723 8.76445C14.7119 9.1149 14.9884 9.39259 15.3374 9.53277L19.6367 11.2598C20.7617 11.7117 20.7952 13.2987 19.6902 13.798L15.2835 15.7894C14.9669 15.9325 14.716 16.1906 14.5813 16.5119L12.8438 20.656C12.3832 21.7547 10.8452 21.7886 10.337 20.7112L8.33045 16.4572C8.19467 16.1693 7.96386 15.9375 7.67722 15.8012L3.28542 13.712C2.23819 13.2139 2.23819 11.7174 3.28543 11.2192L7.67722 9.13006C7.96386 8.9937 8.19467 8.76192 8.33045 8.47406L10.3046 4.28878Z" stroke="#18161E" stroke-linejoin="round"/>
<path d="M20 2.5V4M20 5.5V4M20 4H21.5M20 4H18.5" stroke="#16151C" stroke-miterlimit="1.02018" stroke-linecap="round" stroke-linejoin="round"/>
</svg>
