<svg width="24" height="24" viewBox="0 0 24 24" fill="none" xmlns="http://www.w3.org/2000/svg">
<path d="M15.8048 11.8036C16.6485 9.19558 21.8238 9.45782 21.8238 12.319C21.8238 12.7501 21.7919 12.995 21.7573 13.4966M22.5 17.9073C22.1503 17.3793 21.8259 16.2585 21.7573 15.441M21.7573 15.441C20.4774 19.1235 15.5001 18.4285 15.5 15.896C15.5 14.3499 16.8271 13.2713 21.7573 13.4966M21.7573 15.441C21.7573 14.7156 21.7573 14.3528 21.7573 13.4966" stroke="#16151C" stroke-miterlimit="1.02018" stroke-linecap="round" stroke-linejoin="round"/>
<path d="M3.75 12.75L11.25 12.75M3.75 12.75L6.58085 6.14467C6.92719 5.33656 8.07281 5.33656 8.41914 6.14467L11.25 12.75M3.75 12.75L1.5 18M11.25 12.75L13.5 18" stroke="#16151C" stroke-miterlimit="1.02018" stroke-linecap="round" stroke-linejoin="round"/>
</svg>
