<svg width="24" height="24" viewBox="0 0 24 24" fill="none" xmlns="http://www.w3.org/2000/svg">
<path d="M4 17.4354C6.14918 21.0884 14 24.0001 19.5 17M19.5 17C19.5 17 17.5629 16.7498 16.2197 17.3587M19.5 17C19.5 17 19.9434 18.6908 19.1748 20.2131" stroke="#18161E" stroke-linecap="round" stroke-linejoin="round"/>
<path d="M7.39184 5.48001C8.47664 1.89392 15.1306 2.2545 15.1306 6.18861C15.1306 6.78139 15.0896 7.11816 15.0451 7.80778M16 13.8726C15.5504 13.1465 15.1333 11.6054 15.0451 10.4814M15.0451 10.4814C13.3995 15.5448 7.00008 14.5892 7 11.107C6.99995 8.98114 8.70624 7.49797 15.0451 7.80778M15.0451 10.4814C15.0451 9.48391 15.0451 8.98515 15.0451 7.80778" stroke="#18161E" stroke-linecap="round" stroke-linejoin="round"/>
</svg>
