<svg width="24" height="24" viewBox="0 0 24 24" fill="none" xmlns="http://www.w3.org/2000/svg">
<path d="M17.38 8.70554C20.1582 10.3412 22 13.2066 22 16.468V19L2 19L2 16.468C2 13.2066 3.8418 10.3412 6.62001 8.70554M17.38 8.70554C15.8266 7.79099 13.9806 7.26087 12 7.26087C10.0194 7.26087 8.17336 7.79099 6.62001 8.70554M17.38 8.70554L20.125 4M6.62001 8.70554L3.875 4M9.5 14C9.5 14.4142 9.16421 14.75 8.75 14.75C8.33579 14.75 8 14.4142 8 14C8 13.5858 8.33579 13.25 8.75 13.25C9.16421 13.25 9.5 13.5858 9.5 14ZM16 14C16 14.4142 15.6642 14.75 15.25 14.75C14.8358 14.75 14.5 14.4142 14.5 14C14.5 13.5858 14.8358 13.25 15.25 13.25C15.6642 13.25 16 13.5858 16 14Z" stroke="#18161E" stroke-linecap="round" stroke-linejoin="round"/>
</svg>
