<svg width="24" height="24" viewBox="0 0 24 24" fill="none" xmlns="http://www.w3.org/2000/svg">
<path d="M19.4905 9.69723C18.848 10.0632 18.3158 10.5748 17.9438 11.1842C17.5717 11.7935 17.3719 12.4808 17.3631 13.1816C17.3656 13.9703 17.6168 14.741 18.0855 15.3983C18.5542 16.0555 19.2199 16.5704 20 16.8791C19.6924 17.8024 19.2372 18.6773 18.6496 19.4745C17.8089 20.6004 16.9299 21.7262 15.5924 21.7262C14.2548 21.7262 13.9108 21.0033 12.3694 21.0033C10.8662 21.0033 10.3312 21.75 9.10823 21.75C7.88529 21.75 7.03188 20.707 6.05094 19.4271C4.75519 17.6341 4.04306 15.5314 4 13.3711C4 9.81577 6.48412 7.93148 8.92988 7.93148C10.2293 7.93148 11.3121 8.72542 12.1274 8.72542C12.9045 8.72542 14.1147 7.88397 15.5924 7.88397C16.3521 7.86573 17.105 8.02158 17.7848 8.33778C18.4645 8.65398 19.0503 9.12084 19.4905 9.69723ZM14.8918 4.66462C15.5757 3.91618 16.1185 2.75402 15.8981 1.75C14.7792 1.85168 13.7446 2.34781 13.0064 3.13663C12.3332 3.83725 11.7405 4.97688 11.9618 5.94534C13.0275 6.13275 14.2485 5.40352 14.8918 4.66462Z" stroke="#18161E" stroke-linecap="round" stroke-linejoin="round"/>
</svg>
