<svg width="24" height="24" viewBox="0 0 24 24" fill="none" xmlns="http://www.w3.org/2000/svg">
<path d="M21 8.42862L21 4.00019C21 3.44793 20.5523 3.00022 20 3.00019L15.5714 3M8.42857 21H4C3.44772 21 3 20.5523 3 20V15.5715M15.5002 8.5L20.5321 3.46818M8.5 15.5L3.58277 20.4172M15.5714 21L19.9998 21C20.5521 21 20.9998 20.5523 20.9998 20L21 15.5714M3 8.42857L3 4C3 3.44772 3.44772 3 4 3L8.42854 3M15.4998 15.5L20.417 20.4172M8.5 8.5L3.46818 3.46818" stroke="#16151C" stroke-miterlimit="1.02018" stroke-linecap="round" stroke-linejoin="round"/>
</svg>
