<svg width="24" height="24" viewBox="0 0 24 24" fill="none" xmlns="http://www.w3.org/2000/svg">
<path d="M5.85426 15.2008L5.4692 15.5198L5.85426 15.2008ZM6.34318 4.35732L5.98856 4.00483L6.34318 4.35732ZM17.6568 4.35732L18.0114 4.00483L17.6568 4.35732ZM18.1457 15.2008L17.7607 14.8819L18.1457 15.2008ZM7.51188 12.9392C7.68538 13.154 8.00019 13.1875 8.21501 13.014C8.42984 12.8405 8.46334 12.5257 8.28983 12.3108L7.51188 12.9392ZM8.50719 7.34798C8.69937 7.14969 8.69442 6.83314 8.49613 6.64096C8.29783 6.44878 7.98129 6.45373 7.78911 6.65202L8.50719 7.34798ZM13.4736 20.3111L13.9447 20.1436L13.4736 20.3111ZM9.93383 20.3111L10.4049 20.4786L9.93383 20.3111ZM6.23932 14.8819C3.75458 11.8821 3.95372 7.47048 6.69779 4.7098L5.98856 4.00483C2.88117 7.13102 2.65628 12.1238 5.4692 15.5198L6.23932 14.8819ZM17.3022 4.7098C20.0463 7.47048 20.2454 11.8821 17.7607 14.8819L18.5308 15.5198C21.3437 12.1238 21.1188 7.13102 18.0114 4.00483L17.3022 4.7098ZM18.0114 4.00483C14.6918 0.665056 9.30824 0.665057 5.98856 4.00483L6.69779 4.7098C9.62647 1.7634 14.3735 1.7634 17.3022 4.7098L18.0114 4.00483ZM17.7607 14.8819C16.6453 16.2284 15.6563 17.2485 14.7301 17.9387C13.8071 18.6265 12.9747 18.9657 12.1646 18.9975C10.5421 19.0613 8.73529 17.8952 6.23932 14.8819L5.4692 15.5198C7.96386 18.5315 10.0531 20.0813 12.2039 19.9967C13.2805 19.9544 14.3039 19.5034 15.3276 18.7406C16.3481 17.9801 17.3965 16.8892 18.5308 15.5198L17.7607 14.8819ZM8.28983 12.3108C7.10811 10.8477 7.20397 8.69263 8.50719 7.34798L7.78911 6.65202C6.13264 8.36115 6.01402 11.0846 7.51188 12.9392L8.28983 12.3108ZM12.7141 19.6675L13.0025 20.4786L13.9447 20.1436L13.6563 19.3325L12.7141 19.6675ZM12.3639 21.5H11.0436V22.5H12.3639V21.5ZM10.4049 20.4786L10.6933 19.6675L9.75111 19.3325L9.46273 20.1436L10.4049 20.4786ZM11.0436 21.5C10.5995 21.5 10.2171 21.0069 10.4049 20.4786L9.46273 20.1436C9.06947 21.2496 9.83259 22.5 11.0436 22.5V21.5ZM13.0025 20.4786C13.1903 21.0069 12.8079 21.5 12.3639 21.5V22.5C13.5748 22.5 14.3379 21.2496 13.9447 20.1436L13.0025 20.4786Z" fill="#18161E"/>
</svg>
