<svg width="24" height="24" viewBox="0 0 24 24" fill="none" xmlns="http://www.w3.org/2000/svg">
<path d="M9.5 12.5H11.5M9.5 12.5V9H11.5C12.6046 9 13.5 9.7835 13.5 10.75C13.5 11.7165 12.6046 12.5 11.5 12.5M9.5 12.5V16H11.5C12.6046 16 13.5 15.2165 13.5 14.25C13.5 13.2835 12.6046 12.5 11.5 12.5M15.75 15.5H15.76M5 21H19C20.1046 21 21 20.1046 21 19V6C21 4.89543 20.1046 4 19 4H5C3.89543 4 3 4.89543 3 6V19C3 20.1046 3.89543 21 5 21Z" stroke="#16151C" stroke-miterlimit="1.02018" stroke-linecap="round" stroke-linejoin="round"/>
</svg>
