<svg width="24" height="24" viewBox="0 0 24 24" fill="none" xmlns="http://www.w3.org/2000/svg">
<path d="M2.00001 7.99999C2.00001 6.89542 2.89544 5.99999 4.00001 5.99999H5.66875C6.32889 5.99999 6.94652 5.67424 7.31931 5.12943L8.18071 3.87059C8.5535 3.32579 9.17111 3.00004 9.83124 3.00003L14.1687 2.99996C14.8288 2.99995 15.4465 3.3257 15.8193 3.87052L16.6807 5.12943C17.0535 5.67424 17.67 5.99999 18.3301 5.99999C18.8207 5.99999 19.4225 5.99999 20 5.99999C21.1046 5.99999 22 6.89542 22 7.99999V11.75L22 19C22 20.1046 21.1046 21 20 21H4C2.89543 21 2 20.1046 2 19L2.00001 11.75L2.00001 7.99999Z" stroke="#16151C" stroke-linecap="round"/>
<path d="M16 13C16 15.2091 14.2091 17 12 17C9.79087 17 8.00001 15.2091 8.00001 13C8.00001 10.7909 9.79087 8.99999 12 8.99999C14.2091 8.99999 16 10.7909 16 13Z" stroke="#16151C" stroke-linecap="round"/>
</svg>
