<svg width="24" height="24" viewBox="0 0 24 24" fill="none" xmlns="http://www.w3.org/2000/svg">
<path d="M8.66667 13.3846H15.3333M14.6667 22H9.33333C8.59695 22 8 21.449 8 20.7692L8 10.9231C8 10.2433 8.59695 9.69231 9.33333 9.69231L14.6667 9.69231C15.403 9.69231 16 10.2433 16 10.9231L16 20.7692C16 21.449 15.403 22 14.6667 22ZM10.2346 3.67416L11.3119 2.65256C11.6977 2.2867 12.3023 2.2867 12.6881 2.65256L13.7654 3.67416C15.8907 5.31921 15.1368 9.07692 12 9.07692C8.8632 9.07692 8.10934 5.31921 10.2346 3.67416Z" stroke="#16151C" stroke-miterlimit="1.02018" stroke-linecap="round" stroke-linejoin="round"/>
</svg>
