<svg width="24" height="24" viewBox="0 0 24 24" fill="none" xmlns="http://www.w3.org/2000/svg">
<path d="M8.30419 17.3333L7.07225 20C4.88282 19.8673 3.34825 18.9826 2.1445 17C1.61041 12.649 2.53932 8.88102 5.22434 5L8.92016 4L9.53612 5.66667C11.2115 5.2929 12.7885 5.2929 14.4639 5.66667L15.0798 4L18.7757 5C21.4607 8.88102 22.3896 12.649 21.8555 17C20.6518 18.9826 19.1172 19.8673 16.9278 20L15.6958 17.3333M8.30419 17.3333C10.8628 18.2356 13.1372 18.2356 15.6958 17.3333M8.30419 17.3333L7.07204 16.6667M15.6958 17.3333L16.9278 16.6667M10.5 13C10.5 13.4142 10.1642 13.75 9.75 13.75C9.33579 13.75 9 13.4142 9 13C9 12.5858 9.33579 12.25 9.75 12.25C10.1642 12.25 10.5 12.5858 10.5 13ZM15 13C15 13.4142 14.6642 13.75 14.25 13.75C13.8358 13.75 13.5 13.4142 13.5 13C13.5 12.5858 13.8358 12.25 14.25 12.25C14.6642 12.25 15 12.5858 15 13Z" stroke="#18161E" stroke-linecap="round" stroke-linejoin="round"/>
</svg>
