<svg width="24" height="24" viewBox="0 0 24 24" fill="none" xmlns="http://www.w3.org/2000/svg">
<path d="M13.9461 9.12C13.9461 6.2923 16.2481 4 19.0878 4H20.4274C22.1571 4 23.3932 5.66664 22.8845 7.31286L21.853 10.6511C21.5465 11.6431 20.6261 12.32 19.5838 12.32C18.9474 12.32 18.4242 12.8197 18.3977 13.4529L18.2089 17.9651C18.1613 19.1024 17.2216 20 16.0784 20C14.9008 20 13.9461 19.0494 13.9461 17.8767V9.12Z" stroke="#18161E"/>
<path d="M11.0539 9.12C11.0539 6.2923 8.75184 4 5.91213 4H4.57261C2.84291 4 1.60674 5.66664 2.11542 7.31286L3.14693 10.6511C3.45345 11.6431 4.37387 12.32 5.41617 12.32C6.05257 12.32 6.57576 12.8197 6.60225 13.4529L6.79106 17.9651C6.83865 19.1024 7.77842 20 8.92154 20C10.0992 20 11.0539 19.0494 11.0539 17.8767V9.12Z" stroke="#18161E"/>
</svg>
