<svg width="24" height="24" viewBox="0 0 24 24" fill="none" xmlns="http://www.w3.org/2000/svg">
<path d="M15.2494 9C14.3874 9 13.5607 9.34241 12.9513 9.9519C12.3418 10.5614 11.9994 11.388 11.9994 12.25C11.9994 13.112 12.3418 13.9386 12.9513 14.5481C13.5607 15.1576 14.3874 15.5 15.2494 15.5C16.1113 15.5 16.938 15.1576 17.5474 14.5481C18.1569 13.9386 18.4994 13.112 18.4994 12.25C18.4994 11.388 18.1569 10.5614 17.5474 9.9519C16.938 9.34241 16.1113 9 15.2494 9ZM15.2494 9H11.9994M15.2494 9C16.1113 9 16.938 8.65759 17.5474 8.0481C18.1569 7.4386 18.4994 6.61195 18.4994 5.75C18.4994 4.88805 18.1569 4.0614 17.5474 3.4519C16.938 2.84241 16.1113 2.5 15.2494 2.5H11.9994M8.74935 15.5C7.8874 15.5 7.06075 15.8424 6.45125 16.4519C5.84176 17.0614 5.49935 17.888 5.49935 18.75C5.49935 19.612 5.84176 20.4386 6.45125 21.0481C7.06075 21.6576 7.8874 22 8.74935 22C9.61131 22 10.438 21.6576 11.0474 21.0481C11.6569 20.4386 11.9994 19.612 11.9994 18.75V15.5M8.74935 15.5H11.9994M8.74935 15.5C7.8874 15.5 7.06075 15.1576 6.45125 14.5481C5.84176 13.9386 5.49935 13.112 5.49935 12.25C5.49935 11.388 5.84176 10.5614 6.45125 9.9519C7.06075 9.34241 7.8874 9 8.74935 9M11.9994 15.5L11.9994 9M11.9994 2.5V9M11.9994 2.5H8.74935C7.8874 2.5 7.06075 2.84241 6.45125 3.4519C5.84176 4.0614 5.49935 4.88805 5.49935 5.75C5.49935 6.61195 5.84176 7.4386 6.45125 8.0481C7.06075 8.65759 7.8874 9 8.74935 9M11.9994 9H8.74935" stroke="#18161E" stroke-linecap="round" stroke-linejoin="round"/>
</svg>
