<svg width="24" height="24" viewBox="0 0 24 24" fill="none" xmlns="http://www.w3.org/2000/svg">
<path d="M20.4639 17.325C19.9648 16.8159 19.2693 16.5 18.5 16.5C16.9812 16.5 15.75 17.7312 15.75 19.25C15.75 20.7688 16.9812 22 18.5 22C20.0188 22 21.25 20.7688 21.25 19.25H18.5M9 16.75L11.5 21.75L14 16.75M3.25 21.2501C3.47806 21.5537 3.8411 21.75 4.25 21.75H5.99147C6.54846 21.75 7 21.2985 7 20.7415C7 20.3003 6.71332 19.9104 6.29229 19.7788L3.80882 19.0028C3.32763 18.8524 3 18.4067 3 17.9026C3 17.266 3.51604 16.75 4.15261 16.75H5.875C6.22841 16.75 6.54376 16.913 6.75 17.1678M9.5 2H12C12.0035 2 12.007 2.00001 12.0104 2.00003M20 10V11V13.25M20 10C20 8.89543 19.1046 8 18 8H16C14.8954 8 14 7.10457 14 6V4C14 2.89891 13.1102 2.00565 12.0104 2.00003M20 10V6.0001C20 3.79099 18.2091 2.00003 16 2.00001L12.0104 2.00003M12.0104 2.00003L5.99999 2.00005C4.89542 2.00006 4 2.89548 4 4.00005V13.25" stroke="#16151C" stroke-miterlimit="1.02018" stroke-linecap="round" stroke-linejoin="round"/>
</svg>
