<svg width="24" height="24" viewBox="0 0 24 24" fill="none" xmlns="http://www.w3.org/2000/svg">
<path d="M4 11.0134L3.91837 19.9818C3.90825 21.0934 4.8066 22 5.91829 22H18.0817C19.1934 22 20.0918 21.0934 20.0817 19.9818L20 11M4 11.0134L3.00223 11.0156C2.44908 11.0169 2 10.5688 2 10.0156V8C2 7.44772 2.44772 7 3 7H21C21.5523 7 22 7.44772 22 8V10C22 10.5523 21.5523 11 21 11H20M4 11.0134L12 11.0089L20 11M12 7V4.5M12 7H9.5C8.11929 7 7 5.88071 7 4.5C7 3.11929 8.11929 2 9.5 2C10.8807 2 12 3.11929 12 4.5M12 7H14.5C15.8807 7 17 5.88071 17 4.5C17 3.11929 15.8807 2 14.5 2C13.1193 2 12 3.11929 12 4.5M12 7V22" stroke="#18161E" stroke-linecap="round"/>
</svg>
