<svg width="24" height="24" viewBox="0 0 24 24" fill="none" xmlns="http://www.w3.org/2000/svg">
<path d="M16.3834 20.9777C15.8206 21.0946 15.6095 20.7292 15.6095 20.4222C15.6095 20.0276 15.6235 18.7706 15.6235 17.2066C15.6235 16.1103 15.2717 15.4087 14.8636 15.0433C17.3685 14.751 20 13.757 20 9.26973C20 7.98346 19.5638 6.94568 18.8461 6.12715C18.9587 5.83482 19.3527 4.63625 18.7335 3.02842C18.7335 3.02842 17.7907 2.70686 15.6376 4.22699C14.737 3.96389 13.7801 3.83234 12.8232 3.83234C11.8663 3.83234 10.9093 3.96389 10.0087 4.22699C7.85568 2.72147 6.91284 3.02842 6.91284 3.02842C6.29366 4.63625 6.68768 5.83482 6.80026 6.12715C6.08258 6.94568 5.64634 7.99808 5.64634 9.26973C5.64634 13.7424 8.26377 14.751 10.7686 15.0433C10.445 15.3356 10.1494 15.8472 10.0509 16.6073C10.0358 17.0463 10.0261 18.3284 10.0199 18.7666M9.23475 20.9777C9.79764 21.08 10.0087 20.7292 10.0087 20.4222C10.0087 19.5875 10.0081 19.5992 10.0199 18.7666M10.0199 18.7666C9.30322 18.8264 8.15984 19.0407 7.03407 17.7323C5.90829 15.8614 5.14286 15.7067 4 15.6563" stroke="#18161E" stroke-linecap="round" stroke-linejoin="round"/>
</svg>
