<svg width="24" height="24" viewBox="0 0 24 24" fill="none" xmlns="http://www.w3.org/2000/svg">
<path d="M20.6972 10.1184L20.672 10.0515L18.225 3.4213C18.1752 3.29127 18.0872 3.18087 17.9735 3.10586C17.8589 3.03077 17.7248 2.99446 17.5895 3.00193C17.4542 3.00941 17.3245 3.0603 17.2183 3.14759C17.113 3.23523 17.0371 3.35514 17.0014 3.49022L15.347 8.74794H8.65361L6.99923 3.49022C6.9635 3.35514 6.88761 3.23523 6.78238 3.14759C6.67659 3.05972 6.54695 3.00844 6.41168 3.00095C6.2764 2.99347 6.14225 3.03015 6.02807 3.10586C5.91387 3.18056 5.82549 3.29103 5.7757 3.4213L3.32586 10.0602L3.30063 10.1262C2.94895 11.0824 2.90572 12.1312 3.17744 13.1151C3.44916 14.099 4.02114 14.9647 4.80736 15.582M20.6972 10.1184C21.0499 11.0762 21.0931 12.127 20.82 13.1124C20.1243 15.6241 17.2963 17.0484 15.4199 18.5073L12.4523 20.8407C12.3205 20.944 12.1598 21 11.9947 21C11.8296 21 11.6689 20.944 11.5372 20.8407L10.4155 19.9584L8.57045 18.5073L4.80736 15.582M20.6972 10.1184C21.0511 11.075 21.0961 12.125 20.8252 13.1103M4.80736 15.582C4.02034 14.9644 3.44786 14.098 3.17611 13.1133C2.90435 12.1287 2.94806 11.079 3.30064 10.1223L3.32587 10.0563" stroke="#18161E" stroke-linecap="round" stroke-linejoin="round"/>
</svg>
