<svg width="24" height="24" viewBox="0 0 24 24" fill="none" xmlns="http://www.w3.org/2000/svg">
<path d="M17 7.05198L12 11.3682L7 7.05198M17 7.05198L19.9269 4.33116C20.7351 3.57983 22 4.18962 22 5.33059V9.70799V18.672C22 19.4054 21.4404 20 20.75 20H17V13.194M17 7.05198V13.194M17 13.194L12 16.68L7 13.194M7 7.05198L4.07313 4.33116C3.2649 3.57983 2 4.18962 2 5.33059V9.70799V18.672C2 19.4054 2.55964 20 3.25 20H7V13.194M7 7.05198V13.194" stroke="#18161E" stroke-linecap="round" stroke-linejoin="round"/>
</svg>
