<svg width="24" height="24" viewBox="0 0 24 24" fill="none" xmlns="http://www.w3.org/2000/svg">
<path d="M15.5 10C15.5 11.933 13.933 13.5 12 13.5C10.067 13.5 8.5 11.933 8.5 10C8.5 8.067 10.067 6.5 12 6.5C13.933 6.5 15.5 8.067 15.5 10Z" stroke="#18161E" stroke-linecap="round" stroke-linejoin="round"/>
<path d="M20 9.43056C20 13.8604 16.5293 15.101 14.6756 17.9375C12.5067 20.6819 13.0818 22 12 22C10.9182 22 11.1297 20.6819 9.32441 17.9375C7.4707 15.101 4 13.8604 4 9.43056C4 5.6336 7.58172 2 12 2C16.4183 2 20 5.6336 20 9.43056Z" stroke="#18161E" stroke-linecap="round" stroke-linejoin="round"/>
</svg>
