<svg width="24" height="24" viewBox="0 0 24 24" fill="none" xmlns="http://www.w3.org/2000/svg">
<path d="M16.5 8.57143L16.5 6.28571C16.5 5.02335 15.4926 4 14.25 4H8.05207C7.41422 4 6.80635 4.27502 6.37965 4.75665L3.57759 7.91948C3.20575 8.33919 3 8.88387 3 9.44854V17.7143C3 18.9767 4.00736 20 5.25 20H14.25C15.4926 20 16.5 18.9767 16.5 17.7143L16.5 16.5714M21 7.54397V17.5989C21 18.5612 19.9008 19.0927 19.1656 18.4859L13.0746 13.4584C12.5205 13.0011 12.5205 12.1418 13.0746 11.6844L19.1656 6.65698C19.9008 6.05014 21 6.58164 21 7.54397Z" stroke="#18161E" stroke-linecap="round" stroke-linejoin="round"/>
</svg>
