<svg width="24" height="24" viewBox="0 0 24 24" fill="none" xmlns="http://www.w3.org/2000/svg">
<path d="M21 18V9.97817C21 9.36099 20.7151 8.77838 20.2279 8.39946L13.2279 2.95502C12.5057 2.39329 11.4943 2.39329 10.7721 2.95502L3.77212 8.39946C3.28494 8.77838 3 9.36099 3 9.97817V18C3 19.1046 3.89543 20 5 20H7.75C8.85457 20 9.75 19.1046 9.75 18V15.25C9.75 14.1454 10.6454 13.25 11.75 13.25H12.25C13.3546 13.25 14.25 14.1454 14.25 15.25V18C14.25 19.1046 15.1454 20 16.25 20H19C20.1046 20 21 19.1046 21 18Z" stroke="#18161E" stroke-linejoin="round"/>
</svg>
