<svg width="24" height="24" viewBox="0 0 24 24" fill="none" xmlns="http://www.w3.org/2000/svg">
<path d="M8.25 9.25V12.75M10 11H6.5M16 9.25V9.875M16 12.75V12.25M17.75 11H17.25M14.25 11H14.75M7.58872 5C5.78792 5 4.19607 6.88368 3.65894 8.66524L2.18851 13.5423C1.51028 15.7919 2.71988 18.1854 4.89024 18.8884C6.9012 19.3341 8.34359 18.4193 9.23125 16.603C9.41344 16.2302 9.77873 15.9703 10.1937 15.9703H13.8063C14.2213 15.9703 14.5866 16.2302 14.7687 16.603C15.6564 18.4193 17.0988 19.3341 19.1098 18.8884C21.2801 18.1854 22.4897 15.7919 21.8115 13.5423L20.3411 8.66524C19.8039 6.88368 18.2121 5 16.4113 5H7.58872Z" stroke="#16151C" stroke-miterlimit="1.02018" stroke-linecap="round" stroke-linejoin="round"/>
</svg>
