<svg width="24" height="24" viewBox="0 0 24 24" fill="none" xmlns="http://www.w3.org/2000/svg">
<path d="M6 7.25V5.25C6 4.69772 6.44772 4.25 7 4.25H17.5C18.0523 4.25 18.5 3.80228 18.5 3.25V2M9.5 16H14.5M17.25 12.495V12.505M17.25 15.99V16M13.75 12.495V12.505M10.25 12.495V12.505M6.75 12.495V12.505M6.75 16V16.01M4 21.25H20C21.1046 21.25 22 20.3546 22 19.25V9.25C22 8.14543 21.1046 7.25 20 7.25H4C2.89543 7.25 2 8.14543 2 9.25V19.25C2 20.3546 2.89543 21.25 4 21.25Z" stroke="#16151C" stroke-miterlimit="1.02018" stroke-linecap="round" stroke-linejoin="round"/>
</svg>
