<svg width="24" height="24" viewBox="0 0 24 24" fill="none" xmlns="http://www.w3.org/2000/svg">
<path d="M21 16V6C21 4.89543 20.1046 4 19 4H5C3.89543 4 3 4.89543 3 6V16" stroke="#18161E"/>
<path d="M2 17C2 16.4477 2.44772 16 3 16H7.07141C7.38958 16 7.70316 16.0759 7.9861 16.2214L9.06945 16.7786C9.3524 16.9241 9.66598 17 9.98415 17H12H14.0159C14.334 17 14.6476 16.9241 14.9305 16.7786L16.0139 16.2214C16.2968 16.0759 16.6104 16 16.9286 16H21C21.5523 16 22 16.4477 22 17V18C22 19.1046 21.1046 20 20 20H4C2.89543 20 2 19.1046 2 18V17Z" stroke="#18161E" stroke-linejoin="round"/>
</svg>
