<svg width="24" height="24" viewBox="0 0 24 24" fill="none" xmlns="http://www.w3.org/2000/svg">
<path d="M4 3H20V2H4V3ZM21.5 4.5V14.5H22.5V4.5H21.5ZM20 16H4V17H20V16ZM2.5 14.5V4.5H1.5V14.5H2.5ZM4 16C3.17157 16 2.5 15.3284 2.5 14.5H1.5C1.5 15.8807 2.61929 17 4 17V16ZM21.5 14.5C21.5 15.3284 20.8284 16 20 16V17C21.3807 17 22.5 15.8807 22.5 14.5H21.5ZM20 3C20.8284 3 21.5 3.67157 21.5 4.5H22.5C22.5 3.11929 21.3807 2 20 2V3ZM4 2C2.61929 2 1.5 3.11929 1.5 4.5H2.5C2.5 3.67157 3.17157 3 4 3V2Z" fill="#18161E"/>
<path d="M12 17L12 22" stroke="#16151C" stroke-miterlimit="1.02018" stroke-linecap="round" stroke-linejoin="round"/>
<path d="M16 22H8" stroke="#16151C" stroke-miterlimit="1.02018" stroke-linecap="round" stroke-linejoin="round"/>
</svg>
