<svg width="24" height="24" viewBox="0 0 24 24" fill="none" xmlns="http://www.w3.org/2000/svg">
<path d="M12 3C8.86204 3 6.19163 5.35841 5.7072 8.55757L5.08544 12.6636C4.42226 17.0433 7.70411 21 12 21C16.2959 21 19.5777 17.0433 18.9146 12.6636L18.2928 8.55757C17.8084 5.3584 15.138 3 12 3ZM12 3L12 7M12 11.75C11.4477 11.75 11 11.3023 11 10.75V8.75C11 8.19772 11.4477 7.75 12 7.75C12.5523 7.75 13 8.19772 13 8.75V10.75C13 11.3023 12.5523 11.75 12 11.75Z" stroke="#18161E" stroke-linecap="round" stroke-linejoin="round"/>
</svg>
