<svg width="24" height="24" viewBox="0 0 24 24" fill="none" xmlns="http://www.w3.org/2000/svg">
<path d="M11.6254 15.5C11.6254 15.5 11.6261 12.2692 11.625 8.5M11.6254 15.5H12.5M11.6254 15.5H10.75M11.625 8.5L16.8767 15.5M11.625 8.5H10.75M16.8767 15.5V8.5M16.8767 15.5H17.75M16.8767 8.5H17.75M16.8767 8.5H16M11 3H6C3.79086 3 2 4.79086 2 7V17C2 19.2091 3.79086 21 6 21H11M10 21H18C20.2091 21 22 19.2091 22 17V7C22 4.79086 20.2091 3 18 3H10C7.79086 3 6 4.79086 6 7V17C6 19.2091 7.79086 21 10 21Z" stroke="#18161E" stroke-linecap="round" stroke-linejoin="round"/>
</svg>
