<svg width="24" height="24" viewBox="0 0 24 24" fill="none" xmlns="http://www.w3.org/2000/svg">
<path d="M11.9998 8.77807L14.846 10.3886M11.9998 8.77807L9.15364 10.3886M11.9998 8.77807L14.633 7.27375C15.0128 7.05663 15.4819 7.06175 15.8567 7.28709L19.7344 9.61821C19.9816 9.76687 20.2103 9.93457 20.4194 10.1183M14.846 10.3886V13.6096M14.846 10.3886L17.4805 11.8931C17.8603 12.1102 18.0903 12.515 18.0807 12.9491L17.9809 17.4401C17.9743 17.7359 17.94 18.0248 17.8805 18.3043M14.846 13.6096L11.9998 15.2202M14.846 13.6096L14.846 16.6224C14.846 17.0566 14.607 17.4564 14.2225 17.6651L10.245 19.825C9.98352 19.967 9.71425 20.0819 9.44055 20.1705M11.9998 15.2202L9.15364 13.6096M11.9998 15.2202L9.36697 16.7256C8.98721 16.9427 8.51814 16.9376 8.1433 16.7123L4.26565 14.3811C4.01832 14.2325 3.78966 14.0647 3.58048 13.881M9.15364 13.6096V10.3886M9.15364 13.6096L6.5234 12.1069C6.14364 11.8898 5.91358 11.485 5.92323 11.0509L6.02307 6.55986C6.02965 6.26368 6.06402 5.97445 6.12368 5.69459M9.15364 10.3886L9.15368 7.3773C9.15368 6.94307 9.39269 6.54336 9.77718 6.33457L13.7547 4.17469C14.0172 4.03213 14.2876 3.91691 14.5624 3.82812M14.5624 3.82812C16.6365 3.15794 18.9643 3.99245 20.095 5.92996C20.8472 7.21894 21.0285 8.72814 20.4194 10.1183M14.5624 3.82812C13.6489 2.59911 12.2335 1.99948 10.7283 2.00007C8.46828 2.00096 6.57438 3.5804 6.12368 5.69459M20.4194 10.1183C22.0605 11.5596 22.5036 13.9862 21.3695 15.9333C20.6162 17.2264 19.3897 18.1289 17.8805 18.3043M17.8805 18.3043C17.4302 20.419 15.536 21.999 13.2756 21.9999C11.7698 22.0005 10.3539 21.4004 9.44055 20.1705M9.44055 20.1705C7.36561 20.8426 5.03593 20.0083 3.90468 18.0697C3.15239 16.7806 2.97119 15.2712 3.58048 13.881M3.58048 13.881C1.93944 12.4396 1.4964 10.0131 2.63054 8.06608C3.38451 6.7717 4.61286 5.86878 6.12368 5.69459" stroke="#16151C"/>
</svg>
