<svg width="24" height="24" viewBox="0 0 24 24" fill="none" xmlns="http://www.w3.org/2000/svg">
<path d="M7.44828 13.1429L2.26172 15.5303C1.44296 15.9072 1.50153 17.0898 2.35352 17.384L4.63918 18.1731C4.85062 18.246 5.08042 18.246 5.29185 18.1731L7.44828 17.4286M12.6 20L21.0421 16.8263C21.9562 16.4826 21.8862 15.167 20.9408 14.9222L17.6776 14.0772C17.4832 14.0269 17.2783 14.0362 17.0893 14.104L12.6 15.7143M9.93103 20V3.58136C9.93103 2.84696 10.6962 2.36308 11.3597 2.67791L15.908 4.83606C16.2569 5.00162 16.4793 5.3533 16.4793 5.73951V9.57195C16.4793 10.2947 15.7362 10.7788 15.0751 10.4866L12.6 9.39286" stroke="#16151C" stroke-miterlimit="1.02018" stroke-linecap="round" stroke-linejoin="round"/>
</svg>
