<svg width="24" height="24" viewBox="0 0 24 24" fill="none" xmlns="http://www.w3.org/2000/svg">
<path d="M17 19H20C21.1046 19 22 18.1046 22 17V10C22 8.89543 21.1046 8 20 8H4C2.89543 8 2 8.89543 2 10V17C2 18.1046 2.89543 19 4 19H7M18 11H19M6 8H18V8C18.5523 8 19 7.55228 19 7V5C19 3.89543 18.1046 3 17 3H7C5.89543 3 5 3.89543 5 5V7C5 7.55228 5.44772 8 6 8V8ZM9 21H15C15.5523 21 16 20.5523 16 20V18C16 16.8954 15.1046 16 14 16H10C8.89543 16 8 16.8954 8 18V20C8 20.5523 8.44772 21 9 21Z" stroke="#16151C" stroke-miterlimit="1.02018" stroke-linecap="round" stroke-linejoin="round"/>
</svg>
