<svg width="24" height="24" viewBox="0 0 24 24" fill="none" xmlns="http://www.w3.org/2000/svg">
<path d="M12 7.47826C9.61087 7.47826 7.43374 8.09388 5.79461 9.104C5.40795 8.59136 4.7996 8.26087 4.11538 8.26087C2.94709 8.26087 2 9.22443 2 10.413C2 11.1973 2.41231 11.8836 3.02843 12.2598C2.85901 12.7341 2.76923 13.2295 2.76923 13.7391C2.76923 17.1969 6.90199 20 12 20C17.098 20 21.2308 17.1969 21.2308 13.7391C21.2308 13.2295 21.141 12.7341 20.9716 12.2597C21.5877 11.8836 22 11.1973 22 10.413C22 9.22443 21.0529 8.26087 19.8846 8.26087C19.2004 8.26087 18.5921 8.59136 18.2054 9.104C16.5663 8.09388 14.3891 7.47826 12 7.47826ZM12 7.47826L13.5385 2L16.6154 2.78261M9.5 16C10.3333 16.6667 12.5 17.6 14.5 16M20.75 3.92857C20.75 4.99369 19.9105 5.85714 18.875 5.85714C17.8395 5.85714 17 4.99369 17 3.92857C17 2.86345 17.8395 2 18.875 2C19.9105 2 20.75 2.86345 20.75 3.92857ZM10.5 12.25C10.5 12.6642 10.1642 13 9.75 13C9.33579 13 9 12.6642 9 12.25C9 11.8358 9.33579 11.5 9.75 11.5C10.1642 11.5 10.5 11.8358 10.5 12.25ZM15 12.25C15 12.6642 14.6642 13 14.25 13C13.8358 13 13.5 12.6642 13.5 12.25C13.5 11.8358 13.8358 11.5 14.25 11.5C14.6642 11.5 15 11.8358 15 12.25Z" stroke="#18161E" stroke-linecap="round" stroke-linejoin="round"/>
</svg>
