<svg width="72" height="24" viewBox="0 0 72 24" fill="none" xmlns="http://www.w3.org/2000/svg">
<g clip-path="url(#clip0_350_34321)">
<path fill-rule="evenodd" clip-rule="evenodd" d="M21 12C21 7.02944 17.0303 3 12.1333 3C7.23641 3 3.26667 7.02944 3.26667 12C3.26667 14.0521 3.94327 15.9437 5.08238 17.4577C5.45734 17.956 5.38967 18.6873 4.87451 19.0388L4.67646 19.1739C3.86372 19.7284 4.25617 21 5.24005 21H12.1333C16.953 20.8395 21 17.0264 21 12Z" stroke="#16151C"/>
<path fill-rule="evenodd" clip-rule="evenodd" d="M69 12C69 7.02944 65.0303 3 60.1333 3C55.2364 3 51.2667 7.02944 51.2667 12C51.2667 14.0521 51.9433 15.9437 53.0824 17.4577C53.4573 17.956 53.3897 18.6873 52.8745 19.0388L52.6765 19.1739C51.8637 19.7284 52.2562 21 53.24 21H60.1333C64.953 20.8395 69 17.0264 69 12Z" fill="#16151C" stroke="#16151C"/>
</g>
<defs>
<clipPath id="clip0_350_34321">
<rect width="72" height="24" rx="5" fill="white"/>
</clipPath>
</defs>
</svg>
