<svg width="24" height="24" viewBox="0 0 24 24" fill="none" xmlns="http://www.w3.org/2000/svg">
<path d="M6 2.5H18V1.5H6V2.5ZM19.5 4V20H20.5V4H19.5ZM18 21.5H6V22.5H18V21.5ZM4.5 20V4H3.5V20H4.5ZM6 21.5C5.17157 21.5 4.5 20.8284 4.5 20H3.5C3.5 21.3807 4.61929 22.5 6 22.5V21.5ZM19.5 20C19.5 20.8284 18.8284 21.5 18 21.5V22.5C19.3807 22.5 20.5 21.3807 20.5 20H19.5ZM18 2.5C18.8284 2.5 19.5 3.17157 19.5 4H20.5C20.5 2.61929 19.3807 1.5 18 1.5V2.5ZM6 1.5C4.61929 1.5 3.5 2.61929 3.5 4H4.5C4.5 3.17157 5.17157 2.5 6 2.5V1.5Z" fill="#18161E"/>
<path d="M12 5H12.01" stroke="#16151C" stroke-miterlimit="1.02018" stroke-linecap="round" stroke-linejoin="round"/>
<path d="M10 19H13.75" stroke="#16151C" stroke-miterlimit="1.02018" stroke-linecap="round" stroke-linejoin="round"/>
</svg>
