<svg width="24" height="24" viewBox="0 0 24 24" fill="none" xmlns="http://www.w3.org/2000/svg">
<path d="M15.25 9.60526C13.5147 9.60526 12.9412 8.76316 12.9412 7V14.4737C12.9412 15.8689 11.8351 17 10.4706 17C9.10612 17 8 15.8689 8 14.4737C8 13.4552 8.79861 12.479 9.43841 12.1777C10.0782 11.8765 10.5 12 11 12M7 21H17C19.2091 21 21 19.2091 21 17V7C21 4.79086 19.2091 3 17 3H7C4.79086 3 3 4.79086 3 7V17C3 19.2091 4.79086 21 7 21Z" stroke="#18161E" stroke-linecap="round" stroke-linejoin="round"/>
</svg>
