<svg width="24" height="24" viewBox="0 0 24 24" fill="none" xmlns="http://www.w3.org/2000/svg">
<path d="M12 19C17.5228 19 22 15.6421 22 11.5C22 7.35786 17.5228 4 12 4M12 19C6.47715 19 2 15.6421 2 11.5C2 7.35786 6.47715 4 12 4M12 19C13.7259 19 15.125 15.922 15.125 12.125C15.125 8.32804 13.7259 5.25 12 5.25C10.2741 5.25 8.875 8.32804 8.875 12.125C8.875 15.922 10.2741 19 12 19ZM12 4C7.85786 4 4.5 5.67893 4.5 7.75C4.5 9.82107 7.85786 11.5 12 11.5C16.1421 11.5 19.5 9.82107 19.5 7.75C19.5 5.67893 16.1421 4 12 4Z" stroke="#18161E" stroke-linecap="round" stroke-linejoin="round"/>
</svg>
