<svg width="24" height="24" viewBox="0 0 24 24" fill="none" xmlns="http://www.w3.org/2000/svg">
<path d="M18.1699 13.875C19.2702 13.875 19.6247 14.6019 19.9483 15.6671L20.8892 18.7648C21.3775 20.3724 20.1908 22 18.5303 22H5.46965C3.80919 22 2.6225 20.3724 3.11082 18.7648L4.23319 15.0697C4.4489 14.3596 5.0966 13.875 5.83008 13.875M14.468 9.5C14.468 10.8807 13.363 12 12 12C10.637 12 9.53203 10.8807 9.53203 9.5C9.53203 8.11929 10.637 7 12 7C13.363 7 14.468 8.11929 14.468 9.5ZM19.4039 9.5C19.4039 13.6421 16.0891 17 12 17C7.91093 17 4.59609 13.6421 4.59609 9.5C4.59609 5.35786 7.91093 2 12 2C16.0891 2 19.4039 5.35786 19.4039 9.5Z" stroke="#18161E" stroke-linecap="round"/>
</svg>
