<svg width="24" height="24" viewBox="0 0 24 24" fill="none" xmlns="http://www.w3.org/2000/svg">
<path fill-rule="evenodd" clip-rule="evenodd" d="M21.2963 6C22.0597 6 22.5416 6.82098 22.1694 7.48754L16.5853 17.4875C16.4087 17.8039 16.0746 18 15.7122 18H11.7171C10.9518 18 10.4701 17.1754 10.846 16.5088L12.7609 13.1129C12.7826 13.0743 12.7548 13.0267 12.7106 13.0267V13.0267C12.6935 13.0267 12.6773 13.0342 12.6663 13.0473C10.5268 15.581 7.4178 17.3137 3.08166 17.8841C2.50152 17.9605 2 17.4981 2 16.9129V14.0429C2 13.5116 2.41594 13.0679 2.93921 12.9759C3.47203 12.8822 4.17514 12.7182 4.89644 12.4346C5.73401 12.1053 5.41617 11.1438 4.51618 11.1438H3C2.44772 11.1438 2 10.6961 2 10.1438V7.0001C2 6.44781 2.44772 6.00009 3 6.00009H6.61499C7.16728 6.00009 7.61499 6.44781 7.61499 7.00009V10.1515C7.61499 10.1952 7.65052 10.2306 7.69423 10.2304V10.2304C7.72308 10.2303 7.74957 10.2145 7.76332 10.1891L9.75173 6.5233C9.92661 6.20089 10.264 6.00009 10.6307 6.00009H13.282C13.8343 6.00009 14.282 6.44781 14.282 7.00009V10.1242C14.282 10.1682 14.3177 10.2039 14.3617 10.2038V10.2038C14.3903 10.2038 14.4167 10.1883 14.4308 10.1634L16.5013 6.50723C16.6789 6.19376 17.0113 6 17.3715 6H21.2963Z" stroke="#4E4D55" stroke-linejoin="round"/>
</svg>
