<svg width="24" height="24" viewBox="0 0 24 24" fill="none" xmlns="http://www.w3.org/2000/svg">
<path d="M21 11.9996C21 16.9699 16.9708 20.9992 12.0004 20.9992C10.6167 20.9992 9.30591 20.6869 8.1347 20.1289L3 21.8429L4.20482 16.4994C3.43909 15.1757 3.00083 13.6388 3.00083 11.9996C3.00083 7.02925 7.03008 3 12.0004 3C16.9708 3 21 7.02925 21 11.9996Z" stroke="#18161E" stroke-linecap="round" stroke-linejoin="round"/>
<path d="M8.72329 11.6957C7.9508 9.32829 9.36702 8.07881 10.1717 7.75L11.1373 10.2161L8.72329 11.6957ZM8.72329 11.6957C9.64078 14.5076 14.2281 17.3756 16.4474 14.655C16.8336 13.8659 14.999 13.3398 14.0334 13.1754L13.0866 15.1482" stroke="#18161E" stroke-linecap="round" stroke-linejoin="round"/>
</svg>
