<svg width="24" height="24" viewBox="0 0 24 24" fill="none" xmlns="http://www.w3.org/2000/svg">
<path d="M12 8.75V11M12 2V3.6875M16.0058 3.6875L14.8125 4.88074M8.0625 3.6875L9.25574 4.88074M4.125 13.8306H9.99023C10.3688 13.8306 10.6757 14.1375 10.6757 14.5161V14.8379C10.6757 17.6888 12.9869 20 15.8379 20C18.6888 20 21 17.6888 21 14.8379V14.375C21 11.2684 18.4816 8.75 15.375 8.75L4.125 8.75C3.50368 8.75 3 9.25368 3 9.875L3 12.7056C3 13.327 3.50368 13.8306 4.125 13.8306Z" stroke="#16151C" stroke-miterlimit="1.02018" stroke-linecap="round" stroke-linejoin="round"/>
</svg>
