<svg width="24" height="24" viewBox="0 0 24 24" fill="none" xmlns="http://www.w3.org/2000/svg">
<path d="M11.9998 4C11.9998 4 5.73956 4 4.17449 4.4717C3.31782 4.73586 2.6425 5.50931 2.41186 6.49045C2 8.28293 2 11.9998 2 11.9998C2 11.9998 2 15.7359 2.41186 17.5095C2.6425 18.4907 3.31782 19.2641 4.17449 19.5283C5.73956 20 11.9998 20 11.9998 20C11.9998 20 18.2601 20 19.8252 19.5283C20.6819 19.2641 21.3575 18.4907 21.5881 17.5095C22 15.7171 22 11.9998 22 11.9998C22 11.9998 22 8.28293 21.5881 6.49045C21.3575 5.50931 20.6819 4.73586 19.8252 4.4717C18.2601 4 11.9998 4 11.9998 4ZM9.99009 8.56595L15.1959 12.019L9.99009 15.4528V8.56595Z" stroke="#18161E" stroke-linecap="round" stroke-linejoin="round"/>
</svg>
