<svg width="24" height="24" viewBox="0 0 24 24" fill="none" xmlns="http://www.w3.org/2000/svg">
<path d="M2.00001 8.00005C2.00001 6.89548 2.89544 6.00006 4.00001 6.00006H5.66875C6.32889 6.00006 6.94652 5.6743 7.31931 5.12949L8.18071 3.87065C8.5535 3.32585 9.17111 3.0001 9.83124 3.00009L14.1687 3.00002C14.8288 3.00001 15.4465 3.32577 15.8193 3.87059L16.6807 5.12949C17.0535 5.6743 17.67 6.00006 18.3301 6.00006C18.8207 6.00006 19.4225 6.00006 20 6.00006C21.1046 6.00006 22 6.89549 22 8.00006V11.7501L22 19.0001C22 20.1046 21.1046 21.0001 20 21.0001H4C2.89543 21.0001 2 20.1046 2 19.0001L2.00001 11.7501L2.00001 8.00005Z" stroke="#16151C" stroke-linecap="round"/>
<path d="M16 13.0001C16 15.2092 14.2091 17.0001 12 17.0001C9.79087 17.0001 8.00001 15.2092 8.00001 13.0001C8.00001 10.7909 9.79087 9.00006 12 9.00006C14.2091 9.00006 16 10.7909 16 13.0001Z" stroke="#16151C" stroke-linecap="round"/>
</svg>
