<svg width="24" height="24" viewBox="0 0 24 24" fill="none" xmlns="http://www.w3.org/2000/svg">
<path d="M13.9461 9.12C13.9461 6.2923 16.2481 4 19.0879 4H20.4274C22.1571 4 23.3932 5.66664 22.8846 7.31286L21.8531 10.6511C21.5465 11.6431 20.6261 12.32 19.5838 12.32C18.9474 12.32 18.4242 12.8197 18.3977 13.4529L18.2089 17.9651C18.1613 19.1024 17.2216 20 16.0784 20C14.9008 20 13.9461 19.0494 13.9461 17.8767V9.12Z" stroke="#18161E"/>
<path d="M11.0539 9.12C11.0539 6.2923 8.75185 4 5.91215 4H4.57262C2.84293 4 1.60676 5.66664 2.11544 7.31286L3.14694 10.6511C3.45347 11.6431 4.37389 12.32 5.41618 12.32C6.05259 12.32 6.57578 12.8197 6.60227 13.4529L6.79108 17.9651C6.83866 19.1024 7.77843 20 8.92156 20C10.0992 20 11.0539 19.0494 11.0539 17.8767V9.12Z" stroke="#18161E"/>
</svg>
