<svg width="24" height="24" viewBox="0 0 24 24" fill="none" xmlns="http://www.w3.org/2000/svg">
<path d="M8 2.5H16V1.5H8V2.5ZM17.5 4V20H18.5V4H17.5ZM16 21.5H8V22.5H16V21.5ZM6.5 20V4H5.5V20H6.5ZM8 21.5C7.17157 21.5 6.5 20.8284 6.5 20H5.5C5.5 21.3807 6.61929 22.5 8 22.5V21.5ZM17.5 20C17.5 20.8284 16.8284 21.5 16 21.5V22.5C17.3807 22.5 18.5 21.3807 18.5 20H17.5ZM16 2.5C16.8284 2.5 17.5 3.17157 17.5 4H18.5C18.5 2.61929 17.3807 1.5 16 1.5V2.5ZM8 1.5C6.61929 1.5 5.5 2.61929 5.5 4H6.5C6.5 3.17157 7.17157 2.5 8 2.5V1.5Z" fill="#18161E"/>
<path d="M10 19.25H14" stroke="#16151C" stroke-miterlimit="1.02018" stroke-linecap="round" stroke-linejoin="round"/>
<path d="M12 4.5H12.01" stroke="#16151C" stroke-miterlimit="1.02018" stroke-linecap="round" stroke-linejoin="round"/>
</svg>
