<svg width="24" height="24" viewBox="0 0 24 24" fill="none" xmlns="http://www.w3.org/2000/svg">
<path d="M13.5 16.25H17.5M13.5 12.75H17.5M3 8.17188L10.5938 1.14062M4 21H20C21.1046 21 22 20.1046 22 19V10C22 8.89543 21.1046 8 20 8H4C2.89543 8 2 8.89543 2 10V19C2 20.1046 2.89543 21 4 21ZM10.5 14.5C10.5 15.8807 9.38071 17 8 17C6.61929 17 5.5 15.8807 5.5 14.5C5.5 13.1193 6.61929 12 8 12C9.38071 12 10.5 13.1193 10.5 14.5Z" stroke="#16151C" stroke-miterlimit="1.02018" stroke-linecap="round" stroke-linejoin="round"/>
</svg>
