<svg width="24" height="24" viewBox="0 0 24 24" fill="none" xmlns="http://www.w3.org/2000/svg">
<path d="M18 15.5C17.7239 15.5 17.5 15.7239 17.5 16C17.5 16.2761 17.7239 16.5 18 16.5V15.5ZM19 16.5C19.2761 16.5 19.5 16.2761 19.5 16C19.5 15.7239 19.2761 15.5 19 15.5V16.5ZM4.5 12C4.5 12.2761 4.72386 12.5 5 12.5C5.27614 12.5 5.5 12.2761 5.5 12H4.5ZM5.5 2C5.5 1.72386 5.27614 1.5 5 1.5C4.72386 1.5 4.5 1.72386 4.5 2L5.5 2ZM19.5 12C19.5 12.2761 19.7239 12.5 20 12.5C20.2761 12.5 20.5 12.2761 20.5 12H19.5ZM20.5 2C20.5 1.72386 20.2761 1.5 20 1.5C19.7239 1.5 19.5 1.72386 19.5 2H20.5ZM20.5 19V20H21.5V19H20.5ZM19 21.5H5V22.5H19V21.5ZM3.5 20V19H2.5V20H3.5ZM18 16.5H19V15.5H18V16.5ZM5.5 12L5.5 2L4.5 2L4.5 12H5.5ZM20.5 12V2H19.5V12H20.5ZM4 12.5H20V11.5H4V12.5ZM21.5 14V17H22.5V14H21.5ZM20 18.5H4V19.5H20V18.5ZM2.5 17V14H1.5V17H2.5ZM4 11.5C2.61929 11.5 1.5 12.6193 1.5 14H2.5C2.5 13.1716 3.17157 12.5 4 12.5V11.5ZM20.5 20C20.5 20.8284 19.8284 21.5 19 21.5V22.5C20.3807 22.5 21.5 21.3807 21.5 20H20.5ZM21.5 17C21.5 17.8284 20.8284 18.5 20 18.5V19.5C21.3807 19.5 22.5 18.3807 22.5 17H21.5ZM4 18.5C3.17157 18.5 2.5 17.8284 2.5 17H1.5C1.5 18.3807 2.61929 19.5 4 19.5V18.5ZM5 21.5C4.17157 21.5 3.5 20.8284 3.5 20H2.5C2.5 21.3807 3.61929 22.5 5 22.5V21.5ZM20 12.5C20.8284 12.5 21.5 13.1716 21.5 14H22.5C22.5 12.6193 21.3807 11.5 20 11.5V12.5Z" fill="#18161E"/>
</svg>
