<svg width="24" height="24" viewBox="0 0 24 24" fill="none" xmlns="http://www.w3.org/2000/svg">
<path d="M3 12.5H21V11.5H3V12.5ZM21.5 13V18H22.5V13H21.5ZM21 18.5H3V19.5H21V18.5ZM2.5 18V13H1.5V18H2.5ZM3 18.5C2.72386 18.5 2.5 18.2761 2.5 18H1.5C1.5 18.8284 2.17157 19.5 3 19.5V18.5ZM21.5 18C21.5 18.2761 21.2761 18.5 21 18.5V19.5C21.8284 19.5 22.5 18.8284 22.5 18H21.5ZM21 12.5C21.2761 12.5 21.5 12.7239 21.5 13H22.5C22.5 12.1716 21.8284 11.5 21 11.5V12.5ZM3 11.5C2.17157 11.5 1.5 12.1716 1.5 13H2.5C2.5 12.7239 2.72386 12.5 3 12.5V11.5Z" fill="#18161E"/>
<path d="M3 19V21C3 21.5523 3.44772 22 4 22H20C20.5523 22 21 21.5523 21 21V19" stroke="#18161E"/>
<path d="M18 16H19" stroke="#16151C" stroke-miterlimit="1.02018" stroke-linecap="round" stroke-linejoin="round"/>
<path d="M5 12L5 2" stroke="#16151C" stroke-miterlimit="1.02018" stroke-linecap="round" stroke-linejoin="round"/>
<path d="M20 12L20 2" stroke="#16151C" stroke-miterlimit="1.02018" stroke-linecap="round" stroke-linejoin="round"/>
</svg>
