<svg width="24" height="24" viewBox="0 0 24 24" fill="none" xmlns="http://www.w3.org/2000/svg">
<path d="M9.31345 3.62929C9.31347 5.9879 8.72279 8.68893 7.00011 10.4009M7.00011 10.4009C4.95397 12.6843 2 13 2 13M7.00011 10.4009C9.04624 12.6841 12.25 12.9998 12.25 12.9998M7.00011 10.4009C6.04039 9.44724 5.01854 8.2091 4.75 6.88779M11.6405 3.62929H6.98644M6.98644 3.62929H2.33241M6.98644 3.62929V2M14.25 18.25H19.5893M14.25 18.25L16.885 13L19.5893 18.25M14.25 18.25L12.5 21.8985M19.5893 18.25L21.5 22" stroke="#16151C" stroke-miterlimit="1.02018" stroke-linecap="round" stroke-linejoin="round"/>
</svg>
