<svg width="24" height="24" viewBox="0 0 24 24" fill="none" xmlns="http://www.w3.org/2000/svg">
<path d="M19.1996 2H4.80035C2.98526 2 2.31442 4.9567 3.8632 5.93194C5.25021 6.80532 6.75009 7.84054 7.90947 9.03516C9.5948 10.7717 9.5948 13.2283 7.90947 14.9648C6.75009 16.1595 5.25021 17.1947 3.8632 18.0681C2.31442 19.0433 2.98526 22 4.80035 22H19.1996C21.0147 22 21.6856 19.0433 20.1368 18.0681C18.7498 17.1947 17.2499 16.1595 16.0905 14.9648C14.4052 13.2283 14.4052 10.7717 16.0905 9.03516C17.2499 7.84054 18.7498 6.80532 20.1368 5.93195C21.6856 4.9567 21.0147 2 19.1996 2Z" stroke="#18161E" stroke-miterlimit="1.02018" stroke-linecap="round" stroke-linejoin="round"/>
</svg>
