<svg width="24" height="24" viewBox="0 0 24 24" fill="none" xmlns="http://www.w3.org/2000/svg">
<path d="M6.78852 2.19037C5.93093 2.42251 4.68007 3.06703 3.62089 4.82419C0.823251 9.46543 2.95605 15.3492 5.88658 18.2798C8.8171 21.2103 14.697 23.3362 19.3422 20.5455C21.1801 19.4412 21.8076 18.1764 22.0137 17.3279C22.1597 16.7265 21.7811 16.1787 21.2407 15.8771L17.7524 13.9302C16.7797 13.3873 15.5508 13.7438 15.0197 14.723L14.321 16.0111C14.04 16.5292 13.5458 16.9094 12.9745 16.9693C12.8263 16.9849 12.6774 16.957 12.5345 16.9149C10.0129 16.1719 8.65282 14.764 7.49083 11.8391C7.40966 11.6348 7.35539 11.415 7.3957 11.1989C7.48702 10.7094 7.81221 10.2837 8.24928 10.0143L9.59233 9.18647C10.504 8.62456 10.8112 7.44429 10.2893 6.50919L8.31558 2.97281C7.99919 2.40594 7.41516 2.02074 6.78852 2.19037Z" fill="#16151C"/>
<path d="M14.278 2.87314C17.6134 3.57272 20.3052 6.21382 20.9995 9.60526M14.3044 5.85538C16.4222 6.34096 17.9579 8.28022 18.1466 9.81653M3.62089 4.82419C4.68007 3.06703 5.93093 2.42251 6.78852 2.19037C7.41516 2.02074 7.99919 2.40594 8.31558 2.97281L10.2893 6.50919C10.8112 7.44429 10.504 8.62456 9.59233 9.18647L8.24928 10.0143C7.81221 10.2837 7.48702 10.7094 7.3957 11.1989C7.35539 11.4151 7.40966 11.6348 7.49083 11.8391C8.65282 14.764 10.0129 16.1719 12.5345 16.9149C12.6774 16.957 12.8263 16.9849 12.9745 16.9693C13.5458 16.9094 14.04 16.5292 14.321 16.0111L15.0197 14.723C15.5508 13.7438 16.7797 13.3873 17.7524 13.9302L21.2407 15.8771C21.7811 16.1787 22.1597 16.7265 22.0137 17.3279C21.8076 18.1764 21.1801 19.4412 19.3422 20.5455C14.697 23.3362 8.8171 21.2103 5.88658 18.2798C2.95605 15.3492 0.823251 9.46543 3.62089 4.82419Z" stroke="#16151C" stroke-linecap="round" stroke-linejoin="round"/>
</svg>
