<svg width="24" height="24" viewBox="0 0 24 24" fill="none" xmlns="http://www.w3.org/2000/svg">
<path d="M12.5345 16.9149C10.0129 16.1719 8.65282 14.764 7.49083 11.8391C7.40966 11.6348 7.35539 11.4151 7.3957 11.1989C7.48702 10.7094 7.81221 10.2837 8.24928 10.0143L9 9.60037L3.86059 4.46225L3.62089 4.82419C3.31175 5.33705 3.06281 5.86509 2.86849 6.40265C1.30435 10.7297 3.27988 15.6731 5.88658 18.2798C8.49305 20.8862 13.4327 22.8562 17.7616 21.2965C18.2998 21.1025 18.8285 20.8541 19.3422 20.5455C19.5069 20.4465 19.6618 20.3463 19.8076 20.2452L14.6703 15.3671L14.321 16.0111C14.1035 16.412 13.7584 16.7304 13.3487 16.8816C13.2289 16.9258 13.1037 16.9558 12.9745 16.9693C12.8263 16.9849 12.6774 16.957 12.5345 16.9149Z" fill="#16151C"/>
<path d="M10.2893 6.50919L8.31558 2.97281C7.99919 2.40594 7.41516 2.02074 6.78852 2.19037C6.55159 2.2545 6.28464 2.35011 6 2.49197M21.7053 18.1642C21.8572 17.8595 21.9535 17.5759 22.0137 17.3279C22.1597 16.7265 21.7811 16.1787 21.2407 15.8771L17.7524 13.9302C17.6004 13.8453 17.442 13.7824 17.2811 13.7405M3 3.00002L4.10029 4.10032L14.8724 14.8724L21 21M7.49083 11.8391C8.65282 14.764 10.0129 16.1719 12.5345 16.9149C12.6774 16.957 12.8263 16.9849 12.9745 16.9693C13.1037 16.9558 13.2289 16.9258 13.3487 16.8816C13.7584 16.7304 14.1035 16.412 14.321 16.0111L14.6703 15.3671L19.8076 20.2452C19.6618 20.3463 19.5069 20.4465 19.3422 20.5455C18.8285 20.8541 18.2998 21.1025 17.7616 21.2965C13.4327 22.8562 8.49305 20.8862 5.88658 18.2798C3.27988 15.6731 1.30435 10.7297 2.86849 6.40265C3.06281 5.86509 3.31175 5.33705 3.62089 4.82419L3.86059 4.46225L9 9.60037L8.24928 10.0143C7.81221 10.2837 7.48702 10.7094 7.3957 11.1989C7.35539 11.4151 7.40966 11.6348 7.49083 11.8391Z" stroke="#16151C" stroke-linecap="round" stroke-linejoin="round"/>
</svg>
