<svg width="24" height="24" viewBox="0 0 24 24" fill="none" xmlns="http://www.w3.org/2000/svg">
<path d="M6.78852 2.19024C5.93093 2.42238 4.68007 3.06691 3.62089 4.82406C0.823251 9.46531 2.95605 15.3491 5.88658 18.2797C8.8171 21.2102 14.697 23.3361 19.3422 20.5453C21.1801 19.4411 21.8076 18.1763 22.0137 17.3277C22.1597 16.7264 21.7811 16.1786 21.2407 15.877L17.7524 13.9301C16.7797 13.3872 15.5508 13.7437 15.0197 14.7229L14.321 16.011C14.04 16.529 13.5458 16.9093 12.9745 16.9692C12.8263 16.9848 12.6774 16.9569 12.5345 16.9148C10.0129 16.1718 8.65282 14.7639 7.49083 11.839C7.40966 11.6347 7.35539 11.4149 7.3957 11.1988C7.48702 10.7092 7.81221 10.2836 8.24928 10.0142L9.59233 9.18635C10.504 8.62444 10.8112 7.44417 10.2893 6.50907L8.31558 2.97269C7.99919 2.40582 7.41516 2.02062 6.78852 2.19024Z" fill="#16151C" stroke="#16151C" stroke-linecap="round" stroke-linejoin="round"/>
</svg>
