<svg width="24" height="24" viewBox="0 0 24 24" fill="none" xmlns="http://www.w3.org/2000/svg">
<path d="M21 3.00002L18 6.00007M18 6.00007L15.0001 8.99999M18 6.00007L15 3.00006M18 6.00007L20.9999 9.00002M3.62089 4.82419C4.68007 3.06703 5.93093 2.42251 6.78852 2.19037C7.41516 2.02074 7.99919 2.40594 8.31558 2.97281L10.2893 6.50919C10.8112 7.44429 10.504 8.62456 9.59233 9.18647L8.24928 10.0143C7.81221 10.2837 7.48702 10.7094 7.3957 11.1989C7.35539 11.4151 7.40966 11.6348 7.49083 11.8391C8.65282 14.764 10.0129 16.1719 12.5345 16.9149C12.6774 16.957 12.8263 16.9849 12.9745 16.9693C13.5458 16.9094 14.04 16.5292 14.321 16.0111L15.0197 14.723C15.5508 13.7438 16.7797 13.3873 17.7524 13.9302L21.2407 15.8771C21.7811 16.1787 22.1597 16.7265 22.0137 17.3279C21.8076 18.1764 21.1801 19.4412 19.3422 20.5455C14.697 23.3362 8.8171 21.2103 5.88658 18.2798C2.95605 15.3492 0.823251 9.46543 3.62089 4.82419Z" stroke="#16151C" stroke-linecap="round" stroke-linejoin="round"/>
</svg>
