<svg width="24" height="24" viewBox="0 0 24 24" fill="none" xmlns="http://www.w3.org/2000/svg">
<path d="M10.25 4C10.25 3.44772 10.6977 3 11.25 3H12.75C13.3023 3 13.75 3.44772 13.75 4V20C13.75 20.5523 13.3023 21 12.75 21H11.25C10.6977 21 10.25 20.5523 10.25 20V4Z" fill="#16151C"/>
<path d="M17.5 7C17.5 6.44772 17.9477 6 18.5 6H20C20.5523 6 21 6.44772 21 7V20C21 20.5523 20.5523 21 20 21H18.5C17.9477 21 17.5 20.5523 17.5 20V7Z" fill="#16151C"/>
<path d="M3 10C3 9.44771 3.44772 9 4 9H5.5C6.05228 9 6.5 9.44772 6.5 10V20C6.5 20.5523 6.05228 21 5.5 21H4C3.44772 21 3 20.5523 3 20V10Z" fill="#16151C"/>
<path d="M10.25 4C10.25 3.44772 10.6977 3 11.25 3H12.75C13.3023 3 13.75 3.44772 13.75 4V20C13.75 20.5523 13.3023 21 12.75 21H11.25C10.6977 21 10.25 20.5523 10.25 20V4Z" stroke="#16151C" stroke-linecap="round" stroke-linejoin="round"/>
<path d="M17.5 7C17.5 6.44772 17.9477 6 18.5 6H20C20.5523 6 21 6.44772 21 7V20C21 20.5523 20.5523 21 20 21H18.5C17.9477 21 17.5 20.5523 17.5 20V7Z" stroke="#16151C" stroke-linecap="round" stroke-linejoin="round"/>
<path d="M3 10C3 9.44771 3.44772 9 4 9H5.5C6.05228 9 6.5 9.44772 6.5 10V20C6.5 20.5523 6.05228 21 5.5 21H4C3.44772 21 3 20.5523 3 20V10Z" stroke="#16151C" stroke-linecap="round" stroke-linejoin="round"/>
</svg>
