<svg width="24" height="24" viewBox="0 0 24 24" fill="none" xmlns="http://www.w3.org/2000/svg">
<path d="M12 12H20C20.5523 12 21.0057 12.4491 20.9445 12.998C20.7853 14.4249 20.2863 15.7983 19.4832 17.0001C18.4943 18.4802 17.0887 19.6337 15.4442 20.3149C13.7996 20.9961 11.99 21.1743 10.2442 20.8271C8.49836 20.4798 6.89472 19.6226 5.63604 18.364C4.37737 17.1053 3.5202 15.5016 3.17294 13.7558C2.82567 12.01 3.0039 10.2004 3.68509 8.55585C4.36628 6.91131 5.51983 5.50571 6.99987 4.51677C8.20174 3.71371 9.57508 3.2147 11.002 3.05549C11.5509 2.99425 12 3.44772 12 4V12ZM12 12L12 3C12 2.44772 12.4488 1.99482 12.9983 2.04996C13.9691 2.14736 14.9222 2.38648 15.8268 2.7612C17.0401 3.26375 18.1425 4.00035 19.0711 4.92893C19.9997 5.85752 20.7363 6.95991 21.2388 8.17317C21.6135 9.07783 21.8526 10.0309 21.95 11.0017C22.0052 11.5512 21.5523 12 21 12H12Z" stroke="#18161E" stroke-linejoin="round"/>
</svg>
