<svg width="24" height="24" viewBox="0 0 24 24" fill="none" xmlns="http://www.w3.org/2000/svg">
<path d="M15.0138 4.81143L19.1663 8.96393M5.31563 13.4517L16.5494 2.21794C16.9399 1.82742 17.5731 1.82742 17.9636 2.21794L21.6564 5.91067C22.0469 6.30119 22.0469 6.93436 21.6564 7.32488L10.4226 18.5587C10.032 18.9492 9.39888 18.9492 9.00835 18.5587L5.31563 14.866C4.9251 14.4754 4.9251 13.8423 5.31563 13.4517ZM3.69062 18.3701L4.21163 20.1276C4.42711 20.8545 5.34143 21.0866 5.8775 20.5505L7.67735 18.7507C8.06787 18.3601 8.06787 17.727 7.67735 17.3365L6.53809 16.1972C6.14757 15.8067 5.5144 15.8067 5.12388 16.1972L3.94227 17.3788C3.68297 17.6381 3.58639 18.0185 3.69062 18.3701Z" stroke="#16151C" stroke-miterlimit="1.02018" stroke-linecap="round" stroke-linejoin="round"/>
</svg>
