<svg width="24" height="24" viewBox="0 0 24 24" fill="none" xmlns="http://www.w3.org/2000/svg">
<path d="M13.9255 9.20151L20.7916 21.9996M10.3873 9.20153L4 22M12.1563 4.70059C10.8538 4.70059 9.79795 5.77534 9.79795 7.10111C9.79795 8.42688 10.8538 9.50163 12.1563 9.50163C13.4587 9.50163 14.5146 8.42688 14.5146 7.10111C14.5146 5.77534 13.4587 4.70059 12.1563 4.70059ZM12.1563 4.70059V2M4.49172 14.6027C6.99832 15.3317 9.57482 15.722 12.1563 15.7736M12.1563 15.7736C15.1307 15.833 18.1118 15.4427 21 14.6027M12.1563 15.7736V14.0026M12.1563 15.7736V17.6034" stroke="#18161E" stroke-linecap="round" stroke-linejoin="round"/>
</svg>
