<svg width="24" height="24" viewBox="0 0 24 24" fill="none" xmlns="http://www.w3.org/2000/svg">
<path d="M2.61312 8.97727L10.7721 15.545C11.4943 16.1067 12.5057 16.1067 13.2279 15.545L21.3869 8.97727M2.61312 8.97727L5 6.68007M2.61312 8.97727C2.22137 9.3543 2 9.87458 2 10.4183V20.5C2 21.6046 2.89543 22.5 4 22.5H20C21.1046 22.5 22 21.6046 22 20.5V10.4183C22 9.87458 21.7786 9.3543 21.3869 8.97727M21.3869 8.97727L19 6.68006M19 6.68006V3.5C19 2.39543 18.1046 1.5 17 1.5H7C5.89543 1.5 5 2.39543 5 3.5V6.68007M19 6.68006V10.8986M5 6.68007V10.8986" stroke="#16151C" stroke-linecap="round" stroke-linejoin="round"/>
</svg>
