<svg width="24" height="24" viewBox="0 0 24 24" fill="none" xmlns="http://www.w3.org/2000/svg">
<path d="M3.30697 9.10532C3.089 8.93579 2.77486 8.97506 2.60532 9.19303C2.43579 9.411 2.47506 9.72514 2.69303 9.89468L3.30697 9.10532ZM10.7721 15.545L11.0791 15.1503L10.7721 15.545ZM13.2279 15.545L12.9209 15.1503L13.2279 15.545ZM21.307 9.89468C21.5249 9.72514 21.5642 9.411 21.3947 9.19303C21.2251 8.97506 20.911 8.93579 20.693 9.10532L21.307 9.89468ZM21.3869 8.97727L21.0402 9.33753L21.3869 8.97727ZM2.61312 8.97727L2.95984 9.33753L2.61312 8.97727ZM2.69303 9.89468L10.4651 15.9397L11.0791 15.1503L3.30697 9.10532L2.69303 9.89468ZM13.5349 15.9397L21.307 9.89468L20.693 9.10532L12.9209 15.1503L13.5349 15.9397ZM10.4651 15.9397C11.3679 16.6418 12.6321 16.6418 13.5349 15.9397L12.9209 15.1503C12.3792 15.5716 11.6208 15.5716 11.0791 15.1503L10.4651 15.9397ZM21.5 10.4183V20.5H22.5V10.4183H21.5ZM20 22H4V23H20V22ZM2.5 20.5V10.4183H1.5V20.5H2.5ZM18.573 6.96303L18.6533 7.04032L19.3467 6.31981L19.2664 6.24252L18.573 6.96303ZM18.6533 7.04032L21.0402 9.33753L21.7336 8.61701L19.3467 6.31981L18.6533 7.04032ZM2.95984 9.33753L5.34672 7.04033L4.65328 6.31982L2.2664 8.61701L2.95984 9.33753ZM5.34672 7.04033L5.53382 6.86026L4.84038 6.13975L4.65328 6.31982L5.34672 7.04033ZM4 22C3.17157 22 2.5 21.3284 2.5 20.5H1.5C1.5 21.8807 2.61929 23 4 23V22ZM21.5 20.5C21.5 21.3284 20.8284 22 20 22V23C21.3807 23 22.5 21.8807 22.5 20.5H21.5ZM22.5 10.4183C22.5 9.73865 22.2233 9.08831 21.7336 8.61701L21.0402 9.33753C21.334 9.6203 21.5 10.0105 21.5 10.4183H22.5ZM2.5 10.4183C2.5 10.0105 2.66602 9.6203 2.95984 9.33753L2.2664 8.61701C1.77671 9.0883 1.5 9.73866 1.5 10.4183H2.5ZM7 2H17V1H7V2ZM17 2C17.8284 2 18.5 2.67157 18.5 3.5H19.5C19.5 2.11929 18.3807 1 17 1V2ZM7 1C5.61929 1 4.5 2.11929 4.5 3.5H5.5C5.5 2.67157 6.17157 2 7 2V1ZM18.5 3.5V6.68006H19.5V3.5H18.5ZM18.5 6.68006V11.5H19.5V6.68006H18.5ZM5.5 11.5V6.68007H4.5V11.5H5.5ZM5.5 6.68007V3.5H4.5V6.68007H5.5Z" fill="#16151C"/>
</svg>
