<svg width="24" height="24" viewBox="0 0 24 24" fill="none" xmlns="http://www.w3.org/2000/svg">
<path d="M5.64985 10.7136L3.12094 13.2425C2.33989 14.0235 2.33989 15.2898 3.12094 16.0709L7.97021 20.9202C8.15775 21.1077 8.4121 21.2131 8.67732 21.2131L10.5086 21.2131C10.7738 21.2131 11.0282 21.1077 11.2157 20.9202L13.5361 18.5998M20.6344 13.0793L11.171 3.61584M21.5855 9.29933L14.9505 2.66428C14.1694 1.88323 12.9031 1.88323 12.122 2.66428L5.5685 9.21781C5.17797 9.60834 5.17797 10.2415 5.5685 10.632L13.6178 18.6813C14.0083 19.0718 14.6415 19.0718 15.032 18.6813L21.5855 12.1278C22.3666 11.3467 22.3666 10.0804 21.5855 9.29933Z" stroke="#16151C" stroke-miterlimit="1.02018" stroke-linecap="round" stroke-linejoin="round"/>
</svg>
