<svg width="24" height="24" viewBox="0 0 24 24" fill="none" xmlns="http://www.w3.org/2000/svg">
<path d="M20 7.86264H13.264C12.5388 7.86264 11.8704 7.47005 11.5172 6.83665L10.7864 5.52599C10.4332 4.89258 9.76479 4.5 9.03958 4.5H4C2.89543 4.5 2 5.39543 2 6.5V19.5C2 20.6046 2.89543 21.5 4 21.5H20C21.1046 21.5 22 20.6046 22 19.5V9.86264C22 8.75807 21.1046 7.86264 20 7.86264ZM20 7.86264L20 6.5C20 5.39543 19.1046 4.5 18 4.5H16M16 7.86264V3.5C16 2.39543 15.1046 1.5 14 1.5H7C5.89543 1.5 5 2.39543 5 3.5V4.5" stroke="#18161E"/>
</svg>
