<svg width="24" height="24" viewBox="0 0 24 24" fill="none" xmlns="http://www.w3.org/2000/svg">
<path d="M10.5438 10.5447L13.5321 13.533M10.3252 17.2418C10.3784 16.3142 10.0455 15.3763 9.34987 14.6807C8.68039 14.0112 7.78658 13.6777 6.89345 13.701M10.3252 17.2418C10.2912 17.8347 10.0996 18.4233 9.74407 18.9419L9.42935 19.4011C8.60921 20.5975 7.20795 21.2592 5.76293 21.1323L3.12953 20.901L2.89826 18.2676C2.77136 16.8226 3.43302 15.4213 4.62949 14.6012L5.08861 14.2865C5.63774 13.9101 6.26543 13.7173 6.89345 13.701M10.3252 17.2418L20.5591 5.40611C21.0181 4.87524 20.9893 4.08001 20.493 3.58377C19.9968 3.08752 19.2015 3.0587 18.6707 3.51772L6.89345 13.701" stroke="#18161E" stroke-linecap="round" stroke-linejoin="round"/>
</svg>
