<svg width="24" height="24" viewBox="0 0 24 24" fill="none" xmlns="http://www.w3.org/2000/svg">
<path d="M19.6894 3H6.10553C4.96749 3 4.04492 4.00736 4.04492 5.25L4.04473 20.3503C4.04472 21.0919 4.82361 21.5755 5.48827 21.2466L7.48602 20.2579C7.80822 20.0985 8.19121 20.1242 8.48915 20.3254L10.4097 21.6222C10.7478 21.8505 11.1908 21.8505 11.5289 21.6222L13.4516 20.324C13.7484 20.1236 14.1297 20.0972 14.4512 20.2548L16.4924 21.2552C17.1568 21.5808 17.9325 21.0971 17.9325 20.3572V8.06295M19.6894 3C18.6936 3 17.9325 3.88189 17.9325 4.9692V8.06295M19.6894 3C20.6852 3 21.5386 3.88189 21.5386 4.9692V7.06295C21.5386 7.61524 21.0909 8.06295 20.5386 8.06295H17.9325M7.63589 8.06248H10.7268M7.63589 11.4375H13.8177" stroke="#16151C" stroke-miterlimit="1.02018" stroke-linecap="round" stroke-linejoin="round"/>
</svg>
