<svg width="24" height="24" viewBox="0 0 24 24" fill="none" xmlns="http://www.w3.org/2000/svg">
<path d="M4.0454 16.5V5.25C4.0454 4.00736 4.96796 3 6.106 3H19.6898M19.6898 3C18.6941 3 17.933 3.88189 17.933 4.9692V8.06295M19.6898 3C20.6856 3 21.5391 3.88189 21.5391 4.9692V7.06295C21.5391 7.61524 21.0913 8.06295 20.5391 8.06295H17.933M17.933 8.06295L17.8939 18.75C17.8939 19.9926 16.9714 21 15.8333 21M15.8333 21C14.6953 21 13.7727 19.9926 13.7727 18.75V17.5C13.7727 16.9477 13.325 16.5 12.7727 16.5H3.5C2.94772 16.5 2.5 16.9477 2.5 17.5V18.75C2.5 19.9926 3.42256 21 4.56061 21H15.8333ZM7.63636 8.06248H10.7273M7.63636 11.4375H13.8182" stroke="#16151C" stroke-miterlimit="1.02018" stroke-linecap="round" stroke-linejoin="round"/>
</svg>
