<svg width="24" height="24" viewBox="0 0 24 24" fill="none" xmlns="http://www.w3.org/2000/svg">
<path d="M19.6894 3H6.10553C4.96749 3 4.04492 4.00736 4.04492 5.25V16.5L4.04508 20C4.0451 20.5523 4.49281 21 5.04508 21H16.8965C17.4476 21 17.8948 20.5541 17.8965 20.003L17.9325 8.06295M19.6894 3C18.6936 3 17.9325 3.88189 17.9325 4.9692V8.06295M19.6894 3C20.6852 3 21.5386 3.88189 21.5386 4.9692V7.06295C21.5386 7.61524 21.0909 8.06295 20.5386 8.06295H17.9325M7.63589 8.06248H10.7268M7.63589 11.4375H13.8177" stroke="#16151C" stroke-miterlimit="1.02018" stroke-linecap="round" stroke-linejoin="round"/>
</svg>
