<svg width="24" height="24" viewBox="0 0 24 24" fill="none" xmlns="http://www.w3.org/2000/svg">
<path d="M7.40692 5.43752H16.5918M7.40692 5.43752C7.40692 5.43752 7.27721 7.99781 6.70039 9.50002C6.40622 10.2661 5.33037 11.539 4.62866 12.3203C4.27949 12.7091 4.26808 13.3016 4.61523 13.6922L11.9994 22M7.40692 5.43752V3C7.40692 2.44772 7.85464 2 8.40693 2L15.5919 2.00002C16.1441 2.00002 16.5918 2.44774 16.5918 3.00002V5.43752M16.5918 5.43752C16.5918 5.43752 16.7216 7.99781 17.2984 9.50002C17.6323 10.3696 18.5373 11.4936 19.3001 12.3047C19.6748 12.7032 19.7074 13.3285 19.344 13.7373L11.9994 22M11.9994 22V13.5M11.9994 13.5H13.0593M11.9994 13.5H10.9397" stroke="#16151C" stroke-miterlimit="1.02018" stroke-linecap="round" stroke-linejoin="round"/>
</svg>
