<svg width="24" height="24" viewBox="0 0 24 24" fill="none" xmlns="http://www.w3.org/2000/svg">
<path d="M13.908 6.58076L18.8204 11.4931C19.3052 11.9779 19.3052 12.764 18.8204 13.2488L15.3533 16.7159M19.3879 4.61212L21.25 2.75M4.44529 16.0435L16.7553 3.73349C17.2401 3.24869 18.0261 3.24869 18.5109 3.73349L20.2666 5.48911C20.7514 5.97391 20.7514 6.75993 20.2666 7.24473L7.95655 19.5547C7.78615 19.7251 7.56985 19.8422 7.33403 19.8918L4.74935 20.4349C4.04284 20.5834 3.41661 19.9572 3.56508 19.2507L4.10822 16.666C4.15778 16.4302 4.2749 16.2139 4.44529 16.0435Z" stroke="#16151C" stroke-miterlimit="1.02018" stroke-linecap="round" stroke-linejoin="round"/>
</svg>
