<svg width="24" height="24" viewBox="0 0 24 24" fill="none" xmlns="http://www.w3.org/2000/svg">
<path d="M3.78094 16.418L6.77721 7.51654L11.4555 2.5C11.4555 2.5 11.4917 6.46237 10.5899 9.74671C10.14 11.3852 9.22668 13.3556 8.45044 14.875M15.3126 17.125C16.2445 17.125 17.0001 16.3695 17.0001 15.4375V15.3571C17.0001 15.0908 17.2159 14.875 17.4822 14.875H19.2501C20.4927 14.875 21.5001 15.8823 21.5001 17.125V17.6875C21.5001 19.2408 20.2409 20.5 18.6876 20.5H6.31251C4.75921 20.5 3.5 19.2408 3.5 17.6875C3.5 16.1342 4.75921 14.875 6.31251 14.875H13.1429C13.4092 14.875 13.625 15.0908 13.625 15.3571V15.4375C13.625 16.3695 14.3806 17.125 15.3126 17.125Z" stroke="#18161E" stroke-linecap="round" stroke-linejoin="round"/>
</svg>
