<svg width="24" height="24" viewBox="0 0 24 24" fill="none" xmlns="http://www.w3.org/2000/svg">
<path d="M3 10.0092V14.7348C3 15.8226 3.61917 16.8105 4.58448 17.2627L5.54442 17.7125C9.08814 19.3728 13.1497 19.4297 16.7363 17.8693C18.3589 17.1634 19.7712 16.0313 20.8306 14.5874L22 12.9935M18.0882 12.2561L21.5057 8.04146C21.6728 7.83532 22 7.95646 22 8.22449V12.8729M14.1765 10.5819C14.1765 11.3727 12.6753 12.0138 10.8235 12.0138C8.97175 12.0138 7.47059 11.3727 7.47059 10.5819C7.47059 9.79114 8.97175 9.15008 10.8235 9.15008C12.6753 9.15008 14.1765 9.79114 14.1765 10.5819ZM18.6471 10.5819C18.6471 13.1125 15.1443 15.1639 10.8235 15.1639C6.50271 15.1639 3 13.1125 3 10.5819C3 8.0514 6.50271 6 10.8235 6C15.1443 6 18.6471 8.0514 18.6471 10.5819Z" stroke="#18161E" stroke-linecap="round" stroke-linejoin="round"/>
</svg>
