<svg width="24" height="24" viewBox="0 0 24 24" fill="none" xmlns="http://www.w3.org/2000/svg">
<path d="M15.527 11.9265L20.4325 7.02102C21.3355 6.11794 21.3355 4.65376 20.4325 3.75067C19.5294 2.84759 18.0652 2.84759 17.1621 3.75067L12.2566 8.65619M15.3226 17.0364L10.6565 21.7025C10.205 22.154 9.47287 22.154 9.02133 21.7025L5.97745 18.6586C5.82927 18.5104 5.72414 18.3248 5.67332 18.1215L5.1923 16.1974C5.04609 15.6126 4.47511 15.2382 3.88049 15.3373L3.58681 15.3862C2.47728 15.5712 1.78376 14.2235 2.57914 13.4281L7.1467 8.86059M7.35109 8.65619L15.527 16.8321C15.9785 17.2836 16.7106 17.2836 17.1621 16.8321L17.9797 16.0145C18.4313 15.5629 18.4313 14.8308 17.9797 14.3793L9.80385 6.20343C9.35231 5.75189 8.62022 5.75189 8.16868 6.20343L7.35109 7.02102C6.89955 7.47256 6.89955 8.20465 7.35109 8.65619Z" stroke="#16151C" stroke-miterlimit="1.02018" stroke-linecap="round" stroke-linejoin="round"/>
</svg>
