<svg width="24" height="24" viewBox="0 0 24 24" fill="none" xmlns="http://www.w3.org/2000/svg">
<path d="M9.99198 18.6804V19.25C9.99198 20 10.5608 21.25 12 21.25C13.4392 21.25 14.008 20.2461 14.008 19.25V18.6804M9.99198 18.6804C5.21501 18.3252 1.23332 16.6827 3.80964 13.753C4.75208 12.6814 5.24589 11.3045 5.47215 9.8899C5.66063 8.71149 5.95916 7.53008 6.43376 6.47705M9.99198 18.6804C12.7692 18.887 15.8153 18.6585 17.9977 17.9949M20.6785 16.4355C21.1967 15.7111 21.126 14.817 20.1904 13.753C19.2479 12.6814 18.7541 11.3045 18.5279 9.8899C17.959 6.33361 16.388 2.75 12 2.75C10.4036 2.75 9.1801 3.22431 8.24202 3.99905M3 3L21 21" stroke="#16151C" stroke-linecap="round" stroke-linejoin="round"/>
</svg>
