<svg width="24" height="24" viewBox="0 0 24 24" fill="none" xmlns="http://www.w3.org/2000/svg">
<path fill-rule="evenodd" clip-rule="evenodd" d="M14.0994 2.21376C14.9626 2.39232 15.5958 3.09341 15.8412 3.94001C16.005 4.50485 16.5944 4.83753 17.1654 4.69662C18.0276 4.48383 18.971 4.67354 19.5687 5.33046C20.4938 6.34734 21.2106 7.55176 21.653 8.87867C21.9316 9.71411 21.6333 10.6115 21.0159 11.2394C20.6008 11.6615 20.6008 12.3385 21.0159 12.7606C21.6333 13.3885 21.9316 14.2859 21.653 15.1213C21.2106 16.4482 20.4938 17.6527 19.5687 18.6695C18.971 19.3265 18.0276 19.5162 17.1654 19.3034C16.5944 19.1625 16.005 19.4951 15.8412 20.06C15.5958 20.9066 14.9626 21.6077 14.0994 21.7862C13.4221 21.9263 12.72 22 12.0004 22C11.2811 22 10.5792 21.9264 9.90209 21.7864C9.03883 21.6078 8.4055 20.9067 8.16007 20.06C7.99633 19.4952 7.40684 19.1625 6.83586 19.3034C5.9735 19.5162 5.02993 19.3265 4.43219 18.6695C3.50721 17.6528 2.79048 16.4486 2.34806 15.122C2.0694 14.2864 2.3677 13.3888 2.9853 12.7607C3.40044 12.3385 3.40044 11.6615 2.9853 11.2393C2.3677 10.6112 2.0694 9.71364 2.34806 8.87804C2.79048 7.55139 3.5072 6.34721 4.43219 5.3305C5.02992 4.67349 5.9735 4.48379 6.83585 4.6966C7.40684 4.83751 7.99633 4.50484 8.16007 3.93997C8.4055 3.0933 9.03884 2.39216 9.90209 2.21364C10.5792 2.07363 11.2811 2 12.0004 2C12.72 2 13.4221 2.07367 14.0994 2.21376Z" stroke="#18161E" stroke-linecap="round"/>
<path d="M16.0005 12C16.0005 14.2091 14.2096 16 12.0005 16C9.79134 16 8.00048 14.2091 8.00048 12C8.00048 9.79086 9.79134 8 12.0005 8C14.2096 8 16.0005 9.79086 16.0005 12Z" stroke="#18161E" stroke-linecap="round"/>
</svg>
