<svg width="24" height="24" viewBox="0 0 24 24" fill="none" xmlns="http://www.w3.org/2000/svg">
<path d="M15 5C15 5.49751 15.3512 6 15.8487 6H20C20.5523 6 21 6.44772 21 7V21C21 21.5523 20.5523 22 20 22H4C3.44772 22 3 21.5523 3 21V18.4255C3 17.5795 4.15394 17 5 17C6.65685 17 8 15.6569 8 14C8 12.3431 6.65685 11 5 11C4.15394 11 3 10.4205 3 9.57445V7C3 6.44772 3.44772 6 4 6H8.15134C8.64884 6 9 5.49751 9 5C9 3.34315 10.3431 2 12 2C13.6569 2 15 3.34315 15 5Z" stroke="#18161E" stroke-linecap="round" stroke-linejoin="round"/>
</svg>
