<svg width="24" height="24" viewBox="0 0 24 24" fill="none" xmlns="http://www.w3.org/2000/svg">
<path d="M10.9249 5.15488C11.3288 4.75093 11.8862 4.539 12.4565 4.57255L17.2654 4.85542C18.2775 4.91496 19.085 5.72241 19.1445 6.73453L19.4274 11.5434C19.4609 12.1137 19.249 12.6711 18.8451 13.0751L10.3341 21.586C9.55305 22.3671 8.28672 22.3671 7.50567 21.586L2.41391 16.4943C1.63286 15.7132 1.63286 14.4469 2.41391 13.6658L10.9249 5.15488Z" stroke="#18161E" stroke-linecap="round" stroke-linejoin="round"/>
<path d="M14.8216 10.1611C14.5287 10.454 14.0538 10.454 13.7609 10.1611C13.468 9.86818 13.468 9.39331 13.7609 9.10042C14.0538 8.80752 14.5287 8.80752 14.8216 9.10042C15.1145 9.39331 15.1145 9.86818 14.8216 10.1611Z" stroke="#18161E" stroke-linecap="round" stroke-linejoin="round"/>
</svg>
