<svg width="24" height="24" viewBox="0 0 24 24" fill="none" xmlns="http://www.w3.org/2000/svg">
<path d="M15.5354 8.46452L16.0304 8.53523C16.0527 8.37943 16.0003 8.22225 15.889 8.11096C15.7777 7.99968 15.6205 7.94729 15.4647 7.96954L15.5354 8.46452ZM9.34826 9.3484L9.27754 8.85343C9.05756 8.88485 8.88471 9.0577 8.85328 9.27769L9.34826 9.3484ZM14.6516 14.6517L14.7223 15.1467C14.9423 15.1152 15.1151 14.9424 15.1465 14.7224L14.6516 14.6517ZM8.46437 15.5356L7.9694 15.4649C7.94714 15.6207 7.99953 15.7779 8.11082 15.8891C8.2221 16.0004 8.37929 16.0528 8.53508 16.0306L8.46437 15.5356ZM9.41897 9.84337L15.6062 8.95949L15.4647 7.96954L9.27754 8.85343L9.41897 9.84337ZM15.0405 8.39381L14.1566 14.581L15.1465 14.7224L16.0304 8.53523L15.0405 8.39381ZM8.95935 15.6063L9.84323 9.41911L8.85328 9.27769L7.9694 15.4649L8.95935 15.6063ZM14.5808 14.1567L8.39366 15.0406L8.53508 16.0306L14.7223 15.1467L14.5808 14.1567ZM21.5 12C21.5 17.2467 17.2467 21.5 12 21.5V22.5C17.799 22.5 22.5 17.799 22.5 12H21.5ZM12 21.5C6.75329 21.5 2.5 17.2467 2.5 12H1.5C1.5 17.799 6.20101 22.5 12 22.5V21.5ZM2.5 12C2.5 6.75329 6.75329 2.5 12 2.5V1.5C6.20101 1.5 1.5 6.20101 1.5 12H2.5ZM12 2.5C17.2467 2.5 21.5 6.75329 21.5 12H22.5C22.5 6.20101 17.799 1.5 12 1.5V2.5Z" fill="#18161E"/>
</svg>
