<svg width="24" height="24" viewBox="0 0 24 24" fill="none" xmlns="http://www.w3.org/2000/svg">
<path d="M12.0104 22L11.7327 22.4158C11.901 22.5282 12.1205 22.5281 12.2886 22.4154L12.0104 22ZM4.00003 10.3546L3.50003 10.3532L4.00003 10.3546ZM20 10.3546L19.5 10.356L20 10.3546ZM12.0104 22C12.2881 21.5842 12.2882 21.5843 12.2883 21.5843C12.2882 21.5843 12.2883 21.5843 12.2882 21.5843C12.2881 21.5842 12.2879 21.5841 12.2876 21.5839C12.2869 21.5834 12.2857 21.5826 12.2841 21.5815C12.2808 21.5793 12.2757 21.5758 12.2687 21.5711C12.2548 21.5616 12.2335 21.547 12.2054 21.5275C12.1491 21.4885 12.0656 21.4297 11.9587 21.3523C11.7448 21.1975 11.4377 20.9682 11.0684 20.6732C10.329 20.0826 9.34459 19.2318 8.36243 18.1902C6.37805 16.0858 4.49185 13.2966 4.50003 10.356L3.50003 10.3532C3.49073 13.6951 5.60971 16.7286 7.63488 18.8763C8.65751 19.9607 9.67899 20.8433 10.4443 21.4546C10.8273 21.7605 11.1472 21.9993 11.3723 22.1623C11.4848 22.2438 11.5738 22.3064 11.6351 22.349C11.6658 22.3703 11.6896 22.3866 11.706 22.3978C11.7142 22.4033 11.7206 22.4076 11.7251 22.4107C11.7273 22.4122 11.729 22.4133 11.7303 22.4142C11.7309 22.4146 11.7315 22.415 11.7318 22.4152C11.732 22.4154 11.7322 22.4155 11.7323 22.4156C11.7325 22.4157 11.7327 22.4158 12.0104 22ZM4.50003 10.356C4.52917 -0.118984 19.4708 -0.118341 19.5 10.356L20.5 10.3532C20.4671 -1.45141 3.53287 -1.45073 3.50003 10.3532L4.50003 10.356ZM19.5 10.356C19.5082 13.297 17.6266 16.0864 15.6475 18.1907C14.6679 19.2322 13.6861 20.083 12.9487 20.6736C12.5804 20.9686 12.274 21.1978 12.0607 21.3527C11.9541 21.4301 11.8708 21.4888 11.8147 21.5278C11.7867 21.5474 11.7654 21.5619 11.7515 21.5714C11.7446 21.5762 11.7394 21.5797 11.7362 21.5819C11.7346 21.583 11.7334 21.5837 11.7327 21.5842C11.7324 21.5844 11.7322 21.5846 11.7321 21.5846C11.732 21.5847 11.7321 21.5846 11.732 21.5847C11.7321 21.5846 11.7322 21.5846 12.0104 22C12.2886 22.4154 12.2888 22.4153 12.289 22.4152C12.2891 22.4152 12.2893 22.415 12.2895 22.4149C12.2898 22.4146 12.2904 22.4143 12.291 22.4139C12.2923 22.413 12.294 22.4118 12.2962 22.4103C12.3007 22.4073 12.307 22.403 12.3152 22.3974C12.3316 22.3862 12.3553 22.3699 12.3859 22.3486C12.4472 22.306 12.5359 22.2434 12.6481 22.1619C12.8727 21.9989 13.1917 21.7601 13.5738 21.4542C14.3371 20.8429 15.356 19.9603 16.376 18.8758C18.396 16.728 20.5093 13.6946 20.5 10.3532L19.5 10.356ZM14.5 10C14.5 11.3807 13.3807 12.5 12 12.5V13.5C13.933 13.5 15.5 11.933 15.5 10H14.5ZM12 12.5C10.6193 12.5 9.5 11.3807 9.5 10H8.5C8.5 11.933 10.067 13.5 12 13.5V12.5ZM9.5 10C9.5 8.61929 10.6193 7.5 12 7.5V6.5C10.067 6.5 8.5 8.067 8.5 10H9.5ZM12 7.5C13.3807 7.5 14.5 8.61929 14.5 10H15.5C15.5 8.067 13.933 6.5 12 6.5V7.5Z" fill="#18161E"/>
</svg>
