<svg width="24" height="24" viewBox="0 0 24 24" fill="none" xmlns="http://www.w3.org/2000/svg">
<path d="M8.42809 5.5712L4.42809 3.67646C3.76464 3.3622 3 3.84609 3 4.5802V17.5251C3 17.9115 3.22267 18.2634 3.57191 18.4288L7.57191 20.3235C8.23536 20.6378 9 20.1539 9 19.4198V6.47494C9 6.08849 8.77733 5.73663 8.42809 5.5712Z" stroke="#16151C" stroke-miterlimit="1.02018" stroke-linecap="round" stroke-linejoin="round"/>
<path d="M9.57191 5.5712L13.5719 3.67646C14.2354 3.3622 15 3.84609 15 4.5802V17.5251C15 17.9115 14.7773 18.2634 14.4281 18.4288L10.4281 20.3235C9.76464 20.6378 9 20.1539 9 19.4198V6.47494C9 6.08849 9.22267 5.73663 9.57191 5.5712Z" stroke="#16151C" stroke-miterlimit="1.02018" stroke-linecap="round" stroke-linejoin="round"/>
<path d="M20.4281 5.5712L16.4281 3.67646C15.7646 3.3622 15 3.84609 15 4.5802V17.5251C15 17.9115 15.2227 18.2634 15.5719 18.4288L19.5719 20.3235C20.2354 20.6378 21 20.1539 21 19.4198V6.47494C21 6.08849 20.7773 5.73663 20.4281 5.5712Z" stroke="#16151C" stroke-miterlimit="1.02018" stroke-linecap="round" stroke-linejoin="round"/>
</svg>
