<svg width="24" height="24" viewBox="0 0 24 24" fill="none" xmlns="http://www.w3.org/2000/svg">
<path d="M3 4.5H21V3.5H3V4.5ZM21.5 5V19H22.5V5H21.5ZM21 19.5H3V20.5H21V19.5ZM2.5 19V5H1.5V19H2.5ZM3 19.5C2.72386 19.5 2.5 19.2761 2.5 19H1.5C1.5 19.8284 2.17157 20.5 3 20.5V19.5ZM21.5 19C21.5 19.2761 21.2761 19.5 21 19.5V20.5C21.8284 20.5 22.5 19.8284 22.5 19H21.5ZM21 4.5C21.2761 4.5 21.5 4.72386 21.5 5H22.5C22.5 4.17157 21.8284 3.5 21 3.5V4.5ZM3 3.5C2.17157 3.5 1.5 4.17157 1.5 5H2.5C2.5 4.72386 2.72386 4.5 3 4.5V3.5Z" fill="#18161E"/>
<path d="M2 9L22 9" stroke="#16151C" stroke-miterlimit="1.02018" stroke-linecap="round" stroke-linejoin="round"/>
<path d="M6.5 14.5H12" stroke="#16151C" stroke-miterlimit="1.02018" stroke-linecap="round" stroke-linejoin="round"/>
<path d="M15 14.5L17 14.5" stroke="#16151C" stroke-miterlimit="1.02018" stroke-linecap="round" stroke-linejoin="round"/>
</svg>
