<svg width="24" height="24" viewBox="0 0 24 24" fill="none" xmlns="http://www.w3.org/2000/svg">
<path d="M2 12.0001L10.125 4.00006M2 12.0001L10.125 20.0001M2 12.0001L2 18.0001C2 19.1046 2.89543 20.0001 4 20.0001H20C21.1046 20.0001 22 19.1046 22 18.0001V12.0001M2 12.0001L2 6.00001C2 4.89544 2.89544 4.00001 4.00002 4.00001L20 4.00012C21.1046 4.00013 22 4.89556 22 6.00012V12.0001M22 12.0001L13.875 4.00006M22 12.0001L13.875 20.0001M14.5 12.0001C14.5 13.4728 13.1307 14.5 12 14.5C10.8693 14.5 9.5 13.4728 9.5 12.0001C9.5 10.5273 10.8693 9.5 12 9.5C13.1307 9.5 14.5 10.5273 14.5 12.0001Z" stroke="#16151C" stroke-linecap="round" stroke-linejoin="round"/>
</svg>
