<svg width="24" height="24" viewBox="0 0 24 24" fill="none" xmlns="http://www.w3.org/2000/svg">
<path d="M12 16.3636H10.875C10.2617 16.3636 9.71709 16.0209 9.375 15.4911M12 16.3636H13.4872C14.3227 16.3636 15 15.5755 15 14.6033C15 13.8333 14.57 13.1527 13.9384 12.9231L12 12.2182M12 16.3636V12.2182M12 16.3636V18M12 12.2182L10.2132 11.5684C9.49144 11.306 9 10.5281 9 9.64819C9 8.53709 9.77406 7.63636 10.7289 7.63636H12M12 12.2182V7.63636M12 7.63636H13.3125C13.8426 7.63636 14.3156 7.9208 14.625 8.36567M12 7.63636V6M23 12C23 18.0751 18.0751 23 12 23C5.92487 23 1 18.0751 1 12C1 5.92487 5.92487 1 12 1C18.0751 1 23 5.92487 23 12Z" stroke="#18161E" stroke-linecap="round" stroke-linejoin="round"/>
</svg>
