<svg width="24" height="24" viewBox="0 0 24 24" fill="none" xmlns="http://www.w3.org/2000/svg">
<path d="M13.6731 13.688L8.3358 13.688M8.3358 13.688H6.75M8.3358 13.688C9.24786 16.8246 13.066 18.3254 15.75 16.381M8.3358 13.688C8.20559 13.2403 8.13462 12.7592 8.13462 12.25C8.13462 11.7408 8.20559 11.2597 8.3358 10.812M13.6731 10.812L8.3358 10.812M8.3358 10.812H6.75M8.3358 10.812C9.24786 7.6754 13.066 6.17465 15.75 8.11902M23 12C23 18.0751 18.0751 23 12 23C5.92487 23 1 18.0751 1 12C1 5.92487 5.92487 1 12 1C18.0751 1 23 5.92487 23 12Z" stroke="#18161E" stroke-linecap="round" stroke-linejoin="round"/>
</svg>
