<svg width="24" height="24" viewBox="0 0 24 24" fill="none" xmlns="http://www.w3.org/2000/svg">
<path d="M8 8H10.7639M10.7639 8H16M10.7639 8C12.7521 8 14.4 9.13208 14.4 10.977C14.4 10.991 14.3999 11.005 14.3997 11.0189M8 11.0189H14.3997M14.3997 11.0189H16M14.3997 11.0189C14.3757 12.8391 12.7845 13.9545 10.7639 14.0377C9.90738 14.073 8.84396 14.0377 8.24056 14.0377M8.24053 14.0556L14 18M23 12C23 18.0751 18.0751 23 12 23C5.92487 23 1 18.0751 1 12C1 5.92487 5.92487 1 12 1C18.0751 1 23 5.92487 23 12Z" stroke="#18161E" stroke-linecap="round" stroke-linejoin="round"/>
</svg>
