<svg width="24" height="24" viewBox="0 0 24 24" fill="none" xmlns="http://www.w3.org/2000/svg">
<path d="M2 6H17M2 6V6C2 5.41854 2.41041 4.91792 2.98058 4.80388L14.6078 2.47845C15.8454 2.23093 17 3.17752 17 4.43961V6M2 6V18C2 19.1046 2.89543 20 4 20H19C20.1046 20 21 19.1046 21 18V15M17 6H19C20.1046 6 21 6.89543 21 8V11M18 15H20C21.1046 15 22 14.1046 22 13V13C22 11.8954 21.1046 11 20 11H18C16.8954 11 16 11.8954 16 13V13C16 14.1046 16.8954 15 18 15Z" stroke="#16151C" stroke-miterlimit="1.02018" stroke-linecap="round" stroke-linejoin="round"/>
</svg>
