<svg width="24" height="24" viewBox="0 0 24 24" fill="none" xmlns="http://www.w3.org/2000/svg">
<path d="M21 11V7C21 6.44772 20.5523 6 20 6H3C2.44772 6 2 6.44772 2 7V19C2 19.5523 2.44771 20 3 20H20C20.5523 20 21 19.5523 21 19V15" stroke="#16151C" stroke-miterlimit="1.02018" stroke-linecap="round" stroke-linejoin="round"/>
<path d="M2 8V5.8198C2 5.34312 2.33646 4.93271 2.80388 4.83922L15.8039 2.23922C16.4227 2.11546 17 2.58876 17 3.2198V6" stroke="#16151C" stroke-miterlimit="1.02018" stroke-linecap="round" stroke-linejoin="round"/>
<path d="M18 11.5H20V10.5H18V11.5ZM20 14.5H18V15.5H20V14.5ZM18 14.5C17.1716 14.5 16.5 13.8284 16.5 13H15.5C15.5 14.3807 16.6193 15.5 18 15.5V14.5ZM21.5 13C21.5 13.8284 20.8284 14.5 20 14.5V15.5C21.3807 15.5 22.5 14.3807 22.5 13H21.5ZM20 11.5C20.8284 11.5 21.5 12.1716 21.5 13H22.5C22.5 11.6193 21.3807 10.5 20 10.5V11.5ZM18 10.5C16.6193 10.5 15.5 11.6193 15.5 13H16.5C16.5 12.1716 17.1716 11.5 18 11.5V10.5Z" fill="#18161E"/>
</svg>
