<svg width="24" height="24" viewBox="0 0 24 24" fill="none" xmlns="http://www.w3.org/2000/svg">
<path d="M12 12.0575C11.3897 14.0122 10.7011 15.8556 9.97122 16.9497C8.1477 19.6834 5.19117 19.6834 3.36765 16.9497C1.54412 14.2161 1.54412 9.78392 3.36765 7.05025C5.19117 4.31658 8.1477 4.31658 9.97122 7.05025C10.709 8.15632 11.3951 10.0486 12 12.0575ZM12 12.0575C12.6103 14.0122 13.2989 15.8556 14.0288 16.9497C15.8523 19.6834 18.8088 19.6834 20.6324 16.9497C22.4559 14.2161 22.4559 9.78392 20.6324 7.05025C18.8088 4.31658 15.8523 4.31658 14.0288 7.05025C13.291 8.15632 12.6049 10.0486 12 12.0575Z" stroke="#18161E" stroke-linecap="round"/>
</svg>
