<svg width="24" height="24" viewBox="0 0 24 24" fill="none" xmlns="http://www.w3.org/2000/svg">
<path d="M7.90085 12.625C6.56107 10.9661 6.66831 8.52689 8.14815 7M13.1074 19.3467L13.4736 20.3111C13.7641 21.1283 13.1914 22 12.3639 22H11.0436C10.2161 22 9.64328 21.1283 9.93383 20.3111L10.4122 19.1528M13.1074 19.3467C14.6795 18.8977 16.2641 17.4724 18.1457 15.2008C20.7946 12.003 20.5826 7.30075 17.6568 4.35732C14.5326 1.21423 9.46736 1.21423 6.34318 4.35732C3.41745 7.30075 3.20543 12.003 5.85426 15.2008C7.58221 17.2869 9.04773 18.5796 10.4122 19.1528M13.1074 19.3467C12.2219 19.5996 11.3404 19.5427 10.4122 19.1528" stroke="#18161E" stroke-linecap="round"/>
</svg>
