<svg width="24" height="24" viewBox="0 0 24 24" fill="none" xmlns="http://www.w3.org/2000/svg">
<path d="M19 9V18.0404C19 18.4097 18.8213 18.7545 18.5239 18.9594C14.5733 21.6802 9.42666 21.6802 5.47611 18.9594C5.17866 18.7545 5 18.4097 5 18.0404V9M8 15V10.654C8 10.2782 8.21067 9.93414 8.54538 9.7633L12 8M19.9735 6.58808L12.4104 3.18466C12.1494 3.06723 11.8506 3.06723 11.5896 3.18466L4.02649 6.58808C3.24031 6.94186 3.24031 8.05814 4.02649 8.41192L11.5896 11.8153C11.8506 11.9328 12.1494 11.9328 12.4104 11.8153L19.9735 8.41192C20.7597 8.05814 20.7597 6.94186 19.9735 6.58808Z" stroke="#16151C" stroke-miterlimit="1.02018" stroke-linecap="round" stroke-linejoin="round"/>
</svg>
