<svg width="24" height="24" viewBox="0 0 24 24" fill="none" xmlns="http://www.w3.org/2000/svg">
<path d="M19.0798 13.5784C18.3562 12.894 17.2819 13.031 16.4378 13.5418C15.1279 14.3347 13.6135 14.7874 12 14.7874C10.3865 14.7874 8.87213 14.3347 7.56218 13.5418C6.71815 13.031 5.64377 12.894 4.92016 13.5784C3.22366 15.183 2.34937 17.3128 2.0208 19.6466C1.83919 20.9366 2.87234 22 4.11635 22H15.7704M18.5 17L20.25 18.75M20.25 18.75L22 20.5M20.25 18.75L22 17M20.25 18.75L18.5 20.5M16.3101 6.44444C16.3101 8.89904 14.3203 10.8889 11.8657 10.8889C9.41111 10.8889 7.42126 8.89904 7.42126 6.44444C7.42126 3.98985 9.41111 2 11.8657 2C14.3203 2 16.3101 3.98985 16.3101 6.44444Z" stroke="#16151C" stroke-miterlimit="1.02018" stroke-linecap="round" stroke-linejoin="round"/>
</svg>
