<svg width="24" height="24" viewBox="0 0 24 24" fill="none" xmlns="http://www.w3.org/2000/svg">
<path d="M15.4481 9.55556C15.4481 11.5192 13.8562 13.1111 11.8926 13.1111C9.92888 13.1111 8.33701 11.5192 8.33701 9.55556C8.33701 7.59188 9.92888 6 11.8926 6C13.8562 6 15.4481 7.59188 15.4481 9.55556Z" fill="#16151C"/>
<path d="M8.44974 15.2335C7.77452 14.8248 6.91502 14.7152 6.33613 15.2627C4.97893 16.5464 4.27949 18.2502 4.01664 20.1173C3.87135 21.1493 4.69788 22 5.69308 22H18.3069C19.3021 22 20.1286 21.1493 19.9834 20.1173C19.7205 18.2502 19.0211 16.5464 17.6639 15.2627C17.085 14.7152 16.2255 14.8248 15.5503 15.2335C14.5023 15.8678 13.2908 16.2299 12 16.2299C10.7092 16.2299 9.49771 15.8678 8.44974 15.2335Z" fill="#16151C"/>
<path d="M15.4481 9.55556C15.4481 11.5192 13.8562 13.1111 11.8926 13.1111C9.92888 13.1111 8.33701 11.5192 8.33701 9.55556C8.33701 7.59188 9.92888 6 11.8926 6C13.8562 6 15.4481 7.59188 15.4481 9.55556Z" stroke="#16151C" stroke-width="1.5" stroke-linecap="round" stroke-linejoin="round"/>
<path d="M8.44974 15.2335C7.77452 14.8248 6.91502 14.7152 6.33613 15.2627C4.97893 16.5464 4.27949 18.2502 4.01664 20.1173C3.87135 21.1493 4.69788 22 5.69308 22H18.3069C19.3021 22 20.1286 21.1493 19.9834 20.1173C19.7205 18.2502 19.0211 16.5464 17.6639 15.2627C17.085 14.7152 16.2255 14.8248 15.5503 15.2335C14.5023 15.8678 13.2908 16.2299 12 16.2299C10.7092 16.2299 9.49771 15.8678 8.44974 15.2335Z" stroke="#16151C" stroke-width="1.5" stroke-linecap="round" stroke-linejoin="round"/>
<path d="M7.91942 2C6.44666 2 5.25276 3.19391 5.25276 4.66667C5.25276 5.41348 5.55975 6.0886 6.05443 6.57269C6.5 5.5 7.5 3.5 10.1688 3.23369C9.69519 2.49189 8.86475 2 7.91942 2Z" fill="#16151C"/>
<path d="M3.7521 8.94703C2.7342 9.90977 2.20962 11.1877 2.01248 12.588C1.93424 13.1437 2.23175 13.6293 2.68204 13.859C3.03625 14.0397 3.4444 13.8763 3.78795 13.6761C5.60607 12.6165 6.73043 12.6649 5.57871 9.54445C5.42992 9.1413 5.1465 8.76283 4.72328 8.68829C4.37407 8.62679 4.02232 8.69146 3.7521 8.94703Z" fill="#16151C"/>
<path d="M16.0806 2C17.5533 2 18.7472 3.19391 18.7472 4.66667C18.7472 5.41348 18.4402 6.0886 17.9456 6.57269C16.5 4 15 3.5 13.8312 3.23369C14.3048 2.49189 15.1352 2 16.0806 2Z" fill="#16151C"/>
<path d="M20.2479 8.94703C21.2658 9.90977 21.7904 11.1877 21.9875 12.588C22.0811 13.2528 21.637 13.8173 21.0369 13.9633C20.8376 14.0118 20.6264 13.968 20.4318 13.9029C16.7484 12.6702 17.941 11.7534 18.4737 9.95195C18.6595 9.32384 19.0085 8.59811 19.6589 8.67486C19.8737 8.7002 20.0771 8.78547 20.2479 8.94703Z" fill="#16151C"/>
<path d="M7.91942 2C6.44666 2 5.25276 3.19391 5.25276 4.66667C5.25276 5.41348 5.55975 6.0886 6.05443 6.57269C6.5 5.5 7.5 3.5 10.1688 3.23369C9.69519 2.49189 8.86475 2 7.91942 2Z" stroke="#16151C" stroke-linecap="round" stroke-linejoin="round"/>
<path d="M3.7521 8.94703C2.7342 9.90977 2.20962 11.1877 2.01248 12.588C1.93424 13.1437 2.23175 13.6293 2.68204 13.859C3.03625 14.0397 3.4444 13.8763 3.78795 13.6761C5.60607 12.6165 6.73043 12.6649 5.57871 9.54445C5.42992 9.1413 5.1465 8.76283 4.72328 8.68829C4.37407 8.62679 4.02232 8.69146 3.7521 8.94703Z" stroke="#16151C" stroke-linecap="round" stroke-linejoin="round"/>
<path d="M16.0806 2C17.5533 2 18.7472 3.19391 18.7472 4.66667C18.7472 5.41348 18.4402 6.0886 17.9456 6.57269C16.5 4 15 3.5 13.8312 3.23369C14.3048 2.49189 15.1352 2 16.0806 2Z" stroke="#16151C" stroke-linecap="round" stroke-linejoin="round"/>
<path d="M20.2479 8.94703C21.2658 9.90977 21.7904 11.1877 21.9875 12.588C22.0811 13.2528 21.637 13.8173 21.0369 13.9633C20.8376 14.0118 20.6264 13.968 20.4318 13.9029C16.7484 12.6702 17.941 11.7534 18.4737 9.95195C18.6595 9.32384 19.0085 8.59811 19.6589 8.67486C19.8737 8.7002 20.0771 8.78547 20.2479 8.94703Z" stroke="#16151C" stroke-linecap="round" stroke-linejoin="round"/>
</svg>
