<svg width="24" height="24" viewBox="0 0 24 24" fill="none" xmlns="http://www.w3.org/2000/svg">
<path d="M19.75 16.5V18.75M19.75 18.75V21M19.75 18.75H22M19.75 18.75H17.5" stroke="#16151C" stroke-width="1.5" stroke-linecap="round"/>
<path fill-rule="evenodd" clip-rule="evenodd" d="M11.8657 10.8889C14.3203 10.8889 16.3101 8.89904 16.3101 6.44444C16.3101 3.98985 14.3203 2 11.8657 2C9.41111 2 7.42126 3.98985 7.42126 6.44444C7.42126 8.89904 9.41111 10.8889 11.8657 10.8889ZM4.92016 13.5784C5.64377 12.894 6.71815 13.031 7.56218 13.5418C8.87213 14.3347 10.3865 14.7874 12 14.7874C13.6135 14.7874 15.1279 14.3347 16.4378 13.5418C17.2819 13.031 18.3562 12.894 19.0798 13.5784C19.2284 13.7189 19.3706 13.8634 19.5067 14.0117C18.3187 14.1264 17.3739 15.0726 17.2613 16.2613C15.9925 16.3815 15 17.4498 15 18.75C15 20.0502 15.9925 21.1185 17.2613 21.2387C17.2867 21.5071 17.3545 21.7631 17.458 22H4.11635C2.87235 22 1.83919 20.9366 2.0208 19.6466C2.34937 17.3128 3.22366 15.183 4.92016 13.5784Z" fill="#16151C"/>
<path d="M7.56218 13.5418L7.82108 13.1141V13.1141L7.56218 13.5418ZM4.92016 13.5784L5.26374 13.9417H5.26374L4.92016 13.5784ZM16.4378 13.5418L16.6967 13.9696L16.4378 13.5418ZM19.0798 13.5784L19.4234 13.2151L19.4234 13.2151L19.0798 13.5784ZM19.5067 14.0117L19.5548 14.5094C19.7435 14.4911 19.9057 14.3677 19.9736 14.1906C20.0414 14.0136 20.0033 13.8133 19.8751 13.6736L19.5067 14.0117ZM17.2613 16.2613L17.3084 16.759C17.5473 16.7364 17.7364 16.5473 17.759 16.3084L17.2613 16.2613ZM17.2613 21.2387L17.759 21.1916C17.7364 20.9527 17.5473 20.7636 17.3084 20.741L17.2613 21.2387ZM17.458 22V22.5C17.6267 22.5 17.784 22.4149 17.8764 22.2738C17.9688 22.1326 17.9837 21.9544 17.9162 21.7998L17.458 22ZM2.0208 19.6466L1.52569 19.5769L2.0208 19.6466ZM15.8101 6.44444C15.8101 8.6229 14.0442 10.3889 11.8657 10.3889V11.3889C14.5964 11.3889 16.8101 9.17519 16.8101 6.44444H15.8101ZM11.8657 2.5C14.0442 2.5 15.8101 4.26599 15.8101 6.44444H16.8101C16.8101 3.7137 14.5964 1.5 11.8657 1.5V2.5ZM7.92126 6.44444C7.92126 4.26599 9.68725 2.5 11.8657 2.5V1.5C9.13496 1.5 6.92126 3.7137 6.92126 6.44444H7.92126ZM11.8657 10.3889C9.68725 10.3889 7.92126 8.6229 7.92126 6.44444H6.92126C6.92126 9.17519 9.13496 11.3889 11.8657 11.3889V10.3889ZM7.82108 13.1141C6.88852 12.5497 5.53765 12.3062 4.57659 13.2151L5.26374 13.9417C5.74989 13.4818 6.54778 13.5123 7.30328 13.9696L7.82108 13.1141ZM12 14.2874C10.4818 14.2874 9.05641 13.8618 7.82108 13.1141L7.30328 13.9696C8.68786 14.8076 10.2913 15.2874 12 15.2874V14.2874ZM16.1789 13.1141C14.9436 13.8618 13.5182 14.2874 12 14.2874V15.2874C13.7087 15.2874 15.3121 14.8076 16.6967 13.9696L16.1789 13.1141ZM19.4234 13.2151C18.4624 12.3062 17.1115 12.5497 16.1789 13.1141L16.6967 13.9696C17.4522 13.5123 18.2501 13.4818 18.7363 13.9417L19.4234 13.2151ZM19.8751 13.6736C19.731 13.5167 19.5805 13.3637 19.4234 13.2151L18.7363 13.9416C18.8762 14.074 19.0101 14.2101 19.1383 14.3498L19.8751 13.6736ZM19.4586 13.514C18.0322 13.6518 16.8987 14.7869 16.7635 16.2141L17.759 16.3084C17.849 15.3584 18.6052 14.6011 19.5548 14.5094L19.4586 13.514ZM17.2141 15.7635C15.6911 15.9078 14.5 17.1895 14.5 18.75H15.5C15.5 17.7101 16.294 16.8551 17.3084 16.759L17.2141 15.7635ZM14.5 18.75C14.5 20.3105 15.6911 21.5922 17.2141 21.7365L17.3084 20.741C16.294 20.6449 15.5 19.7899 15.5 18.75H14.5ZM16.7635 21.2859C16.794 21.6079 16.8755 21.9155 16.9998 22.2002L17.9162 21.7998C17.8336 21.6107 17.7794 21.4063 17.759 21.1916L16.7635 21.2859ZM4.11635 22.5H17.458V21.5H4.11635V22.5ZM1.52569 19.5769C1.29808 21.1936 2.59514 22.5 4.11635 22.5V21.5C3.14955 21.5 2.38031 20.6796 2.51592 19.7163L1.52569 19.5769ZM4.57659 13.2151C2.7761 14.918 1.86531 17.1645 1.52569 19.5769L2.51592 19.7163C2.83342 17.4611 3.67122 15.4479 5.26374 13.9417L4.57659 13.2151Z" fill="#16151C"/>
</svg>
