<svg width="24" height="24" viewBox="0 0 24 24" fill="none" xmlns="http://www.w3.org/2000/svg">
<path d="M22 18.25H17.5" stroke="#16151C" stroke-linecap="round"/>
<path fill-rule="evenodd" clip-rule="evenodd" d="M11.8657 10.8889C14.3203 10.8889 16.3101 8.89904 16.3101 6.44444C16.3101 3.98985 14.3203 2 11.8657 2C9.41111 2 7.42126 3.98985 7.42126 6.44444C7.42126 8.89904 9.41111 10.8889 11.8657 10.8889ZM4.92016 13.5784C5.64377 12.894 6.71815 13.031 7.56218 13.5418C8.87213 14.3347 10.3865 14.7874 12 14.7874C13.6135 14.7874 15.1279 14.3347 16.4378 13.5418C17.2819 13.031 18.3562 12.894 19.0798 13.5784C19.7626 14.2242 20.3122 14.955 20.7467 15.75H19.75H17.5C16.1193 15.75 15 16.8693 15 18.25C15 19.6307 16.1193 20.75 17.5 20.75H19.75H21.8305C21.5041 21.4909 20.7444 22 19.8836 22H4.11635C2.87235 22 1.83919 20.9366 2.0208 19.6466C2.34937 17.3128 3.22366 15.183 4.92016 13.5784Z" fill="#16151C"/>
<path d="M7.56218 13.5418L7.82108 13.1141V13.1141L7.56218 13.5418ZM4.92016 13.5784L5.26374 13.9417H5.26374L4.92016 13.5784ZM16.4378 13.5418L16.6967 13.9696L16.4378 13.5418ZM19.0798 13.5784L18.7363 13.9417L19.0798 13.5784ZM20.7467 15.75V16.25C20.9232 16.25 21.0866 16.1569 21.1767 16.0051C21.2668 15.8532 21.2701 15.6651 21.1854 15.5102L20.7467 15.75ZM21.8305 20.75L22.288 20.9515C22.3561 20.7969 22.3415 20.6184 22.2492 20.4768C22.1569 20.3353 21.9994 20.25 21.8305 20.25V20.75ZM2.0208 19.6466L1.52569 19.5769L2.0208 19.6466ZM15.8101 6.44444C15.8101 8.6229 14.0442 10.3889 11.8657 10.3889V11.3889C14.5964 11.3889 16.8101 9.17519 16.8101 6.44444H15.8101ZM11.8657 2.5C14.0442 2.5 15.8101 4.26599 15.8101 6.44444H16.8101C16.8101 3.7137 14.5964 1.5 11.8657 1.5V2.5ZM7.92126 6.44444C7.92126 4.26599 9.68725 2.5 11.8657 2.5V1.5C9.13496 1.5 6.92126 3.7137 6.92126 6.44444H7.92126ZM11.8657 10.3889C9.68725 10.3889 7.92126 8.6229 7.92126 6.44444H6.92126C6.92126 9.17519 9.13496 11.3889 11.8657 11.3889V10.3889ZM7.82108 13.1141C6.88852 12.5497 5.53765 12.3062 4.57659 13.2151L5.26374 13.9417C5.74989 13.4818 6.54778 13.5123 7.30328 13.9696L7.82108 13.1141ZM12 14.2874C10.4818 14.2874 9.05641 13.8618 7.82108 13.1141L7.30328 13.9696C8.68786 14.8076 10.2913 15.2874 12 15.2874V14.2874ZM16.1789 13.1141C14.9436 13.8618 13.5182 14.2874 12 14.2874V15.2874C13.7087 15.2874 15.3121 14.8076 16.6967 13.9696L16.1789 13.1141ZM19.4234 13.2151C18.4624 12.3062 17.1115 12.5497 16.1789 13.1141L16.6967 13.9696C17.4522 13.5123 18.2501 13.4818 18.7363 13.9417L19.4234 13.2151ZM21.1854 15.5102C20.7274 14.6721 20.1464 13.8989 19.4234 13.2151L18.7363 13.9417C19.3789 14.5494 19.897 15.238 20.3079 15.9898L21.1854 15.5102ZM19.75 16.25H20.7467V15.25H19.75V16.25ZM17.5 16.25H19.75V15.25H17.5V16.25ZM15.5 18.25C15.5 17.1454 16.3954 16.25 17.5 16.25V15.25C15.8431 15.25 14.5 16.5931 14.5 18.25H15.5ZM17.5 20.25C16.3954 20.25 15.5 19.3546 15.5 18.25H14.5C14.5 19.9069 15.8431 21.25 17.5 21.25V20.25ZM19.75 20.25H17.5V21.25H19.75V20.25ZM21.8305 20.25H19.75V21.25H21.8305V20.25ZM19.8836 22.5C20.9412 22.5 21.8813 21.8751 22.288 20.9515L21.3729 20.5485C21.127 21.1068 20.5475 21.5 19.8836 21.5V22.5ZM4.11635 22.5H19.8836V21.5H4.11635V22.5ZM1.52569 19.5769C1.29808 21.1936 2.59514 22.5 4.11635 22.5V21.5C3.14955 21.5 2.38031 20.6796 2.51592 19.7163L1.52569 19.5769ZM4.57659 13.2151C2.7761 14.918 1.86531 17.1645 1.52569 19.5769L2.51592 19.7163C2.83342 17.4611 3.67122 15.4479 5.26374 13.9417L4.57659 13.2151Z" fill="#16151C"/>
</svg>
