<svg width="24" height="24" viewBox="0 0 24 24" fill="none" xmlns="http://www.w3.org/2000/svg">
<path d="M3.26981 14C2.52341 14 1.90352 13.362 2.01248 12.588C2.20962 11.1877 2.7342 9.90977 3.7521 8.94703C4.18626 8.5364 4.83089 8.61859 5.33731 8.92511M10.1688 3.23369C9.69519 2.49189 8.86475 2 7.91942 2C6.44666 2 5.25276 3.19391 5.25276 4.66667C5.25276 5.41348 5.55975 6.0886 6.05443 6.57269M20.7302 14C21.4766 14 22.0965 13.362 21.9875 12.588C21.7904 11.1877 21.2658 9.90977 20.2479 8.94703C19.8137 8.5364 19.1691 8.61859 18.6627 8.92511M13.8312 3.23369C14.3048 2.49189 15.1352 2 16.0806 2C17.5533 2 18.7472 3.19391 18.7472 4.66667C18.7472 5.41348 18.4402 6.0886 17.9456 6.57269M15.4481 9.55556C15.4481 11.5192 13.8562 13.1111 11.8926 13.1111C9.92888 13.1111 8.33701 11.5192 8.33701 9.55556C8.33701 7.59188 9.92888 6 11.8926 6C13.8562 6 15.4481 7.59188 15.4481 9.55556ZM12 16.2299C13.2908 16.2299 14.5023 15.8678 15.5503 15.2335C16.2255 14.8248 17.085 14.7152 17.6639 15.2627C19.0211 16.5464 19.7205 18.2502 19.9834 20.1173C20.1286 21.1493 19.3021 22 18.3069 22H5.69308C4.69788 22 3.87135 21.1493 4.01664 20.1173C4.27949 18.2502 4.97893 16.5464 6.33613 15.2627C6.91502 14.7152 7.77452 14.8248 8.44974 15.2335C9.49771 15.8678 10.7092 16.2299 12 16.2299Z" stroke="#16151C" stroke-linecap="round" stroke-linejoin="round"/>
</svg>
