<svg width="24" height="24" viewBox="0 0 24 24" fill="none" xmlns="http://www.w3.org/2000/svg">
<path d="M16.3101 6.96031C16.3101 9.41491 14.3203 11.4048 11.8657 11.4048C9.41111 11.4048 7.42126 9.41491 7.42126 6.96031C7.42126 4.50571 9.41111 2.51587 11.8657 2.51587C14.3203 2.51587 16.3101 4.50571 16.3101 6.96031Z" fill="#16151C"/>
<path d="M7.56218 14.0577C6.71815 13.5469 5.64377 13.4099 4.92016 14.0943C3.22366 15.6988 2.34937 17.8287 2.0208 20.1625C1.83919 21.4525 2.87234 22.5159 4.11635 22.5159H19.8836C21.1277 22.5159 22.1608 21.4525 21.9792 20.1625C21.6506 17.8287 20.7763 15.6988 19.0798 14.0943C18.3562 13.4099 17.2819 13.5469 16.4378 14.0577C15.1279 14.8506 13.6135 15.3033 12 15.3033C10.3865 15.3033 8.87213 14.8506 7.56218 14.0577Z" fill="#16151C"/>
<path d="M20.5031 2.25C22.3668 5.10314 22.4027 8.87411 20.4955 11.7631M18.413 4.37744C19.5671 6.21831 19.2818 8.67548 18.3288 9.89522M16.3101 6.96031C16.3101 9.41491 14.3203 11.4048 11.8657 11.4048C9.41111 11.4048 7.42126 9.41491 7.42126 6.96031C7.42126 4.50571 9.41111 2.51587 11.8657 2.51587C14.3203 2.51587 16.3101 4.50571 16.3101 6.96031ZM12 15.3033C13.6135 15.3033 15.1279 14.8506 16.4378 14.0577C17.2819 13.5469 18.3562 13.4099 19.0798 14.0943C20.7763 15.6988 21.6506 17.8287 21.9792 20.1625C22.1608 21.4525 21.1277 22.5159 19.8836 22.5159H4.11635C2.87234 22.5159 1.83919 21.4525 2.0208 20.1625C2.34937 17.8287 3.22366 15.6988 4.92016 14.0943C5.64377 13.4099 6.71815 13.5469 7.56218 14.0577C8.87213 14.8506 10.3865 15.3033 12 15.3033Z" stroke="#16151C" stroke-linecap="round" stroke-linejoin="round"/>
</svg>
