<svg width="24" height="24" viewBox="0 0 24 24" fill="none" xmlns="http://www.w3.org/2000/svg">
<path d="M16.04 4.71463C17.1435 5.21748 17.9575 6.26391 17.9575 7.53298C17.9575 8.83101 17.2179 9.96549 16.04 10.4896M18.8218 12.363C19.0882 12.2801 19.6039 12.4286 19.8146 12.6234C21.0483 13.7645 21.7433 15.2616 21.9822 16.9212C22.0845 17.6316 21.7386 18.2641 21.1203 18.5048M13.8166 7.55556C13.8166 9.51923 12.1888 11.1111 10.1807 11.1111C8.17269 11.1111 6.54485 9.51923 6.54485 7.55556C6.54485 5.59188 8.17269 4 10.1807 4C12.1888 4 13.8166 5.59188 13.8166 7.55556ZM10.1807 14.2299C11.5007 14.2299 12.7396 13.8678 13.8112 13.2335C14.5017 12.8248 15.3806 12.7152 15.9726 13.2627C17.3604 14.5464 18.0757 16.2502 18.3444 18.1173C18.493 19.1493 17.6478 20 16.6301 20H3.73133C2.71364 20 1.86845 19.1493 2.01702 18.1173C2.28581 16.2502 3.00104 14.5464 4.38891 13.2627C4.98087 12.7152 5.85979 12.8248 6.55027 13.2335C7.62191 13.8678 8.86081 14.2299 10.1807 14.2299Z" stroke="#16151C" stroke-linecap="round" stroke-linejoin="round"/>
</svg>
