<svg width="24" height="24" viewBox="0 0 24 24" fill="none" xmlns="http://www.w3.org/2000/svg">
<path d="M19.009 13.0943C18.2884 12.4099 17.2184 12.5469 16.3779 13.0577C15.0734 13.8506 13.5653 14.3033 11.9585 14.3033C10.3517 14.3033 8.84362 13.8506 7.5391 13.0577C6.69857 12.5469 5.62865 12.4099 4.90805 13.0943C3.21858 14.6988 2.34792 16.8287 2.02072 19.1625C1.83986 20.4525 2.86873 21.5159 4.10757 21.5159H14M22 22L20.5523 20.5523M16.2508 5.96031C16.2508 8.41491 14.2692 10.4048 11.8248 10.4048C9.38035 10.4048 7.39877 8.41491 7.39877 5.96031C7.39877 3.50571 9.38035 1.51587 11.8248 1.51587C14.2692 1.51587 16.2508 3.50571 16.2508 5.96031ZM21.3333 18.6666C21.3333 17.1939 20.1394 16 18.6667 16C17.1939 16 16 17.1939 16 18.6666C16 20.1394 17.1939 21.3333 18.6667 21.3333C20.1394 21.3333 21.3333 20.1394 21.3333 18.6666Z" stroke="#18161E" stroke-linecap="round"/>
</svg>
