<svg width="24" height="24" viewBox="0 0 24 24" fill="none" xmlns="http://www.w3.org/2000/svg">
<path d="M8.25 12H10.5756C10.5756 13.75 9.35838 14.8001 7.90343 14.8001C6.44848 14.8001 5 13.7528 5 12C5 9.64902 7.33912 8.04698 9.99745 9.64902M12.75 9.25V14.75M18.25 9.25H15.25V12.0656M15.25 12.0656V14.75M15.25 12.0656H18.25M4 4L20 4C21.1046 4 22 4.89543 22 6L22 18C22 19.1046 21.1046 20 20 20H4C2.89543 20 2 19.1046 2 18L2 6C2 4.89543 2.89543 4 4 4Z" stroke="#16151C" stroke-linecap="round" stroke-linejoin="round"/>
</svg>
