<svg width="24" height="24" viewBox="0 0 24 24" fill="none" xmlns="http://www.w3.org/2000/svg">
<path d="M4 20L11.2929 12.7071C11.6834 12.3166 12.3166 12.3166 12.7071 12.7071L15 15M15 15L17.2929 12.7071C17.6834 12.3166 18.3166 12.3166 18.7071 12.7071L21 15M15 15L20 20M10 8C10 9.10457 9.10457 10 8 10C6.89543 10 6 9.10457 6 8C6 6.89543 6.89543 6 8 6C9.10457 6 10 6.89543 10 8ZM4 21H20C20.5523 21 21 20.5523 21 20V4C21 3.44772 20.5523 3 20 3H4C3.44772 3 3 3.44772 3 4V20C3 20.5523 3.44772 21 4 21Z" stroke="#16151C" stroke-miterlimit="1.02018" stroke-linecap="round" stroke-linejoin="round"/>
</svg>
