<svg width="24" height="24" viewBox="0 0 24 24" fill="none" xmlns="http://www.w3.org/2000/svg">
<path d="M12.9825 23V21.8775C12.9825 18.1577 9.96627 15.1423 6.24561 15.1423H4V16.2648C4 19.9846 7.01619 23 10.7368 23H12.9825ZM12.9825 23C16.7031 23 20 19.9846 20 16.2648V15.1423H17.7544C15.5003 15.1423 13.5048 16.249 12.2819 17.9486M14.086 3.46723L12.6075 1.24993C12.3853 0.91669 11.8955 0.91669 11.6732 1.24993L10.1947 3.46723C9.99376 3.76852 9.56427 3.80358 9.31714 3.53885L7.49814 1.59041C7.15047 1.218 6.52632 1.46395 6.52632 1.97337V6.16207C6.52632 9.26185 9.03981 11.7747 12.1404 11.7747C15.2409 11.7747 17.7544 9.26185 17.7544 6.16207V1.97337C17.7544 1.46395 17.1302 1.218 16.7826 1.59041L14.9636 3.53885C14.7164 3.80358 14.2869 3.76852 14.086 3.46723Z" stroke="#16151C" stroke-miterlimit="1.02018" stroke-linecap="round" stroke-linejoin="round"/>
</svg>
