<svg width="24" height="24" viewBox="0 0 24 24" fill="none" xmlns="http://www.w3.org/2000/svg">
<g opacity="0.3" clip-path="url(#clip0_323_20398)">
<rect x="0.05" y="0.05" width="23.9" height="23.9" stroke="#CAB1FF" stroke-width="0.1"/>
<rect x="2" y="2" width="20" height="20" rx="10" stroke="#CAB1FF" stroke-width="0.1"/>
<rect x="7" y="7" width="10" height="10" rx="5" stroke="#CAB1FF" stroke-width="0.1"/>
<rect x="3" y="3" width="18" height="18" rx="1" stroke="#CAB1FF" stroke-width="0.1"/>
<rect x="2" y="4" width="20" height="16" rx="1" stroke="#CAB1FF" stroke-width="0.1"/>
<rect x="20" y="2" width="20" height="16" rx="1" transform="rotate(90 20 2)" stroke="#CAB1FF" stroke-width="0.1"/>
<line x1="24" y1="12" y2="12" stroke="#CAB1FF" stroke-width="0.1"/>
<line x1="11.9998" y1="24" x2="11.9998" y2="-2.18557e-09" stroke="#CAB1FF" stroke-width="0.1"/>
<line x1="24.035" y1="24.0354" x2="0.034956" y2="0.0353541" stroke="#CAB1FF" stroke-width="0.1"/>
<line x1="-0.000199089" y1="24" x2="23.9998" y2="4.38501e-05" stroke="#CAB1FF" stroke-width="0.1"/>
</g>
<path d="M12 18.5C7.58172 18.5 4 14.9183 4 10.5M12 18.5V22M12 18.5C13.8276 18.5 15.512 17.8872 16.8591 16.8558M8.4473 4.20179C9.11327 2.93657 10.4542 2 12 2C14.2091 2 16 3.91294 16 5.96429V11.0357C16 11.26 15.9786 11.4797 15.9376 11.6931M14 14.2531C13.4117 14.5691 12.7286 14.75 12 14.75C9.79086 14.75 8 13.0871 8 11.0357V8.2531M20 10.5C20 12.0046 19.5847 13.4121 18.8624 14.6143M3 3L21 21" stroke="#18161E" stroke-linecap="round" stroke-linejoin="round"/>
<defs>
<clipPath id="clip0_323_20398">
<rect width="24" height="24" fill="white"/>
</clipPath>
</defs>
</svg>
