<svg width="24" height="24" viewBox="0 0 24 24" fill="none" xmlns="http://www.w3.org/2000/svg">
<path d="M9.75 17.5215C9.75 19.4426 8.23896 21 6.375 21C4.51104 21 3 19.4426 3 17.5215C3 15.6004 4.51104 14.043 6.375 14.043C8.23896 14.043 9.75 15.6004 9.75 17.5215ZM9.75 17.5215V7.87103C9.75 7.3969 10.0301 6.97055 10.4572 6.79446L19.4572 3.08407C20.1962 2.77942 21 3.34034 21 4.16064L21 14.9123M9.75 10.5645L21 5.92654M21 15.2025C21 17.1236 19.489 18.681 17.625 18.681C15.761 18.681 14.25 17.1236 14.25 15.2025C14.25 13.2814 15.761 11.724 17.625 11.724C19.489 11.724 21 13.2814 21 15.2025Z" stroke="#16151C" stroke-miterlimit="1.02018" stroke-linecap="round" stroke-linejoin="round"/>
</svg>
