<svg width="24" height="24" viewBox="0 0 24 24" fill="none" xmlns="http://www.w3.org/2000/svg">
<path d="M6.27369 15.2636L6.56929 14.8603L6.27369 15.2636ZM5.25 13.2047H4.75H5.25ZM13.4737 20.5413L13.1781 20.9446L13.4737 20.5413ZM13.4737 3.45868L13.1781 3.05542V3.05542L13.4737 3.45868ZM6.27369 8.73641L6.56929 9.13967L6.27369 8.73641ZM7.19153 8.06362L6.89593 7.66036L7.19153 8.06362ZM10.3034 5.78255L10.599 6.18581L10.3034 5.78255ZM13.7693 20.1381L6.56929 14.8603L5.97809 15.6669L13.1781 20.9446L13.7693 20.1381ZM5.75 13.2047V10.7953H4.75V13.2047H5.75ZM6.56929 14.8603C6.06081 14.4876 5.75 13.8713 5.75 13.2047H4.75C4.75 14.1783 5.20341 15.099 5.97809 15.6669L6.56929 14.8603ZM16.75 18.4824C16.75 20.1508 14.9942 21.036 13.7693 20.1381L13.1781 20.9446C15.1345 22.3786 17.75 20.8805 17.75 18.4824H16.75ZM17.75 5.51758C17.75 3.11945 15.1345 1.62135 13.1781 3.05542L13.7693 3.86194C14.9942 2.96403 16.75 3.84922 16.75 5.51758H17.75ZM5.75 10.7953C5.75 10.1287 6.06081 9.5124 6.56929 9.13967L5.97809 8.33315C5.2034 8.90101 4.75 9.82172 4.75 10.7953H5.75ZM6.56929 9.13967L7.48712 8.46688L6.89593 7.66036L5.97809 8.33315L6.56929 9.13967ZM16.75 5.51758V13.1544H17.75V5.51758H16.75ZM10.599 6.18581L13.7693 3.86194L13.1781 3.05542L10.0078 5.37929L10.599 6.18581ZM17.75 18.4824V13.1544H16.75V18.4824H17.75ZM7.48712 8.46688L10.599 6.18581L10.0078 5.37929L6.89593 7.66036L7.48712 8.46688Z" fill="#18161E"/>
</svg>
