<svg width="24" height="24" viewBox="0 0 24 24" fill="none" xmlns="http://www.w3.org/2000/svg">
<path d="M13.2237 20.5413L12.9281 20.9446L13.2237 20.5413ZM6.02369 15.2636L5.72809 15.6669H5.72809L6.02369 15.2636ZM13.2237 3.45868L13.5193 3.86194L13.2237 3.45868ZM6.02369 8.73641L5.72809 8.33315H5.72809L6.02369 8.73641ZM20.174 9.735C20.0276 9.50083 19.7192 9.42965 19.485 9.576C19.2508 9.72236 19.1796 10.0308 19.326 10.265L20.174 9.735ZM19.326 13.735C19.1796 13.9692 19.2508 14.2776 19.485 14.424C19.7192 14.5704 20.0276 14.4992 20.174 14.265L19.326 13.735ZM13.5193 20.1381L6.31929 14.8603L5.72809 15.6669L12.9281 20.9446L13.5193 20.1381ZM5.5 13.2047V10.7953H4.5V13.2047H5.5ZM6.31929 14.8603C5.81081 14.4876 5.5 13.8713 5.5 13.2047H4.5C4.5 14.1783 4.95341 15.099 5.72809 15.6669L6.31929 14.8603ZM16.5 18.4824C16.5 20.1508 14.7442 21.036 13.5193 20.1381L12.9281 20.9446C14.8845 22.3786 17.5 20.8805 17.5 18.4824H16.5ZM17.5 5.51758C17.5 3.11945 14.8845 1.62135 12.9281 3.05542L13.5193 3.86194C14.7442 2.96403 16.5 3.84922 16.5 5.51758H17.5ZM5.5 10.7953C5.5 10.1287 5.81081 9.5124 6.31929 9.13967L5.72809 8.33315C4.9534 8.90101 4.5 9.82172 4.5 10.7953H5.5ZM19.326 10.265C19.9895 11.3265 19.9895 12.6735 19.326 13.735L20.174 14.265C21.0401 12.8792 21.0401 11.1208 20.174 9.735L19.326 10.265ZM6.31929 9.13967L13.5193 3.86194L12.9281 3.05542L5.72809 8.33315L6.31929 9.13967ZM16.5 5.51758V18.4824H17.5V5.51758H16.5Z" fill="#18161E"/>
</svg>
