<svg width="24" height="24" viewBox="0 0 24 24" fill="none" xmlns="http://www.w3.org/2000/svg">
<path d="M11.4737 20.5413L11.1781 20.9446L11.4737 20.5413ZM4.27369 15.2636L3.97809 15.6669H3.97809L4.27369 15.2636ZM11.4737 3.45868L11.7693 3.86194L11.4737 3.45868ZM4.27369 8.73641L3.97809 8.33315H3.97809L4.27369 8.73641ZM18.424 9.735C18.2776 9.50083 17.9692 9.42965 17.735 9.576C17.5008 9.72236 17.4296 10.0308 17.576 10.265L18.424 9.735ZM17.576 13.735C17.4296 13.9692 17.5008 14.2776 17.735 14.424C17.9692 14.5704 18.2776 14.4992 18.424 14.265L17.576 13.735ZM18.4062 17.4464C18.2057 17.6363 18.1971 17.9527 18.387 18.1532C18.5768 18.3537 18.8933 18.3623 19.0938 18.1725L18.4062 17.4464ZM19.0938 5.8274C18.8933 5.63751 18.5768 5.64612 18.387 5.84662C18.1971 6.04712 18.2057 6.36358 18.4062 6.55346L19.0938 5.8274ZM11.7693 20.1381L4.56929 14.8603L3.97809 15.6669L11.1781 20.9446L11.7693 20.1381ZM3.75 13.2047V10.7953H2.75V13.2047H3.75ZM4.56929 14.8603C4.06081 14.4876 3.75 13.8713 3.75 13.2047H2.75C2.75 14.1783 3.20341 15.099 3.97809 15.6669L4.56929 14.8603ZM14.75 18.4824C14.75 20.1508 12.9942 21.036 11.7693 20.1381L11.1781 20.9446C13.1345 22.3786 15.75 20.8805 15.75 18.4824H14.75ZM15.75 5.51758C15.75 3.11945 13.1345 1.62135 11.1781 3.05542L11.7693 3.86194C12.9942 2.96403 14.75 3.84922 14.75 5.51758H15.75ZM3.75 10.7953C3.75 10.1287 4.06081 9.5124 4.56929 9.13967L3.97809 8.33315C3.2034 8.90101 2.75 9.82172 2.75 10.7953H3.75ZM17.576 10.265C18.2395 11.3265 18.2395 12.6735 17.576 13.735L18.424 14.265C19.2901 12.8792 19.2901 11.1208 18.424 9.735L17.576 10.265ZM20.75 11.9999C20.75 14.1448 19.8503 16.0788 18.4062 17.4464L19.0938 18.1725C20.729 16.6239 21.75 14.4307 21.75 11.9999H20.75ZM18.4062 6.55346C19.8503 7.92106 20.75 9.85501 20.75 11.9999H21.75C21.75 9.56913 20.729 7.37598 19.0938 5.8274L18.4062 6.55346ZM4.56929 9.13967L11.7693 3.86194L11.1781 3.05542L3.97809 8.33315L4.56929 9.13967ZM14.75 5.51758V18.4824H15.75V5.51758H14.75Z" fill="#18161E"/>
</svg>
