<svg width="24" height="24" viewBox="0 0 24 24" fill="none" xmlns="http://www.w3.org/2000/svg">
<path d="M8.74609 4.5H15C16.1046 4.5 17 5.39543 17 6.5V11.2361M4.5 4.5H4C2.89543 4.5 2 5.39543 2 6.5V17.5C2 18.6046 2.89543 19.5 4 19.5H15C16.1046 19.5 17 18.6046 17 17.5V17M21.127 16.875C21.5989 16.8133 22 16.4143 22 15.882V9.11803C22 8.37465 21.2177 7.89116 20.5528 8.22361L18.1056 9.44721C17.428 9.786 17 10.4785 17 11.2361M17 11.2361V12.7513M3 3L21 21" stroke="#16151C" stroke-linecap="round" stroke-linejoin="round"/>
</svg>
