<svg width="24" height="24" viewBox="0 0 24 24" fill="none" xmlns="http://www.w3.org/2000/svg">
<path d="M20.6464 21.3538C20.8417 21.549 21.1583 21.549 21.3536 21.3538C21.5488 21.1585 21.5488 20.8419 21.3536 20.6466L20.6464 21.3538ZM17.0103 16.3034L16.6568 15.9498L15.9496 16.657L16.3032 17.0105L17.0103 16.3034ZM14.75 11.5C15.0261 11.5 15.25 11.2761 15.25 11C15.25 10.7239 15.0261 10.5 14.75 10.5V11.5ZM7.25 10.5C6.97386 10.5 6.75 10.7239 6.75 11C6.75 11.2761 6.97386 11.5 7.25 11.5V10.5ZM11 18.5C6.85786 18.5 3.5 15.1421 3.5 11H2.5C2.5 15.6944 6.30558 19.5 11 19.5V18.5ZM3.5 11C3.5 6.85786 6.85786 3.5 11 3.5V2.5C6.30558 2.5 2.5 6.30558 2.5 11H3.5ZM11 3.5C15.1421 3.5 18.5 6.85786 18.5 11H19.5C19.5 6.30558 15.6944 2.5 11 2.5V3.5ZM21.3536 20.6466L17.0103 16.3034L16.3032 17.0105L20.6464 21.3538L21.3536 20.6466ZM18.5 11C18.5 15.1421 15.1421 18.5 11 18.5V19.5C15.6944 19.5 19.5 15.6944 19.5 11H18.5ZM14.75 10.5H7.25V11.5H14.75V10.5Z" fill="#18161E"/>
</svg>
