<svg width="24" height="24" viewBox="0 0 24 24" fill="none" xmlns="http://www.w3.org/2000/svg">
<path d="M4.443 20H11.1552C11.8684 20 12.3523 19.2747 12.0785 18.6161L11.2946 16.7304C11.1395 16.3574 10.7752 16.1143 10.3712 16.1143H9.14932L11.5385 9.48571L15.6666 19.3849C15.8219 19.7574 16.1859 20 16.5895 20H19.5177C20.2266 20 20.7104 19.2828 20.4449 18.6255L14.7911 4.62554C14.6384 4.2475 14.2715 4 13.8638 4H9.693C9.27616 4 8.90304 4.25857 8.75667 4.64888L3.50667 18.6489C3.26151 19.3026 3.7448 20 4.443 20Z" stroke="#18161E" stroke-linecap="round" stroke-linejoin="round"/>
</svg>
