<svg width="24" height="24" viewBox="0 0 24 24" fill="none" xmlns="http://www.w3.org/2000/svg">
<path d="M13.1111 13.2596C12.6219 13.4232 12.1325 13.5064 11.6579 13.5244C9.21135 13.6176 6.96385 12.0416 6.13707 9.88612C5.6608 8.64444 4.38896 8.07663 3.29633 8.61787C2.20371 9.15911 1.70406 10.6045 2.18033 11.8461C3.79945 16.0673 7.81059 18.5789 11.8025 18.4268C12.8125 18.3883 13.8138 18.1831 14.7778 17.8049M16.7713 9.88612C17.1589 9.16331 17.5041 8.31382 17.7908 7.32143C18.1627 6.03452 19.3821 5.33383 20.5145 5.7564C21.647 6.17897 22.2635 7.56477 21.8917 8.85168C21.1918 11.2741 20.1728 13.2154 18.9479 14.7M7.37864 18.2727C6.87227 19.3211 5.55069 19.7881 4.4268 19.3157C3.3029 18.8433 2.8023 17.6105 3.30867 16.562L3.86552 15.4091M6.44444 10.0695L8.8668 5.05399C9.86752 2.98201 13.0214 2.982 14.0221 5.05399L19.5802 16.562C20.0866 17.6105 19.586 18.8433 18.4621 19.3157C17.3382 19.7881 16.0166 19.3211 15.5102 18.2727L12.4525 11.9416C12.0545 11.1176 10.8344 11.1176 10.4364 11.9416L9.87692 13.1" stroke="#18161E" stroke-linecap="round" stroke-linejoin="round"/>
</svg>
