<svg width="24" height="24" viewBox="0 0 24 24" fill="none" xmlns="http://www.w3.org/2000/svg">
<path d="M7.25002 14.9999V9.49994H9.75002M12.25 14.9999V9.49994H9.75002M9.75002 9.49994V14.9999M14 17.5048H15.0315L15.8206 15.0605M17.4573 9.99067L15.8206 15.0605M15.8206 15.0605L14.2142 9.99067M5.62019 4.27087L8.19865 2.54382L9.56813 5.32872L12.1466 3.60167L13.5161 6.38657L16.0945 4.65952L17.464 7.44442L20.0425 5.71737L21.412 8.50226L18.0439 21.0722C17.9009 21.6056 17.3526 21.9222 16.8191 21.7793L12.0524 20.502C11.9698 19.5733 11.3197 18.752 10.3667 18.4967C9.41383 18.2414 8.44015 18.6276 7.90427 19.3905L2.9592 18.0655C2.42574 17.9226 2.10915 17.3742 2.2521 16.8408L5.62019 4.27087Z" stroke="#18161E" stroke-linecap="round" stroke-linejoin="round"/>
</svg>
