<svg width="24" height="24" viewBox="0 0 24 24" fill="none" xmlns="http://www.w3.org/2000/svg">
<path d="M7.25 15V9.5H9.75M12.25 15V9.5H9.75M9.75 9.5V15" stroke="#18161E" stroke-linecap="round" stroke-linejoin="round"/>
<path d="M17.4573 9.99072L15.8206 15.0606M14 17.5049H15.0315L15.8206 15.0606M15.8206 15.0606L14.2142 9.99072" stroke="#18161E" stroke-linecap="round" stroke-linejoin="round"/>
<path d="M5.62012 4.27098L5.34187 3.85556C5.24125 3.92296 5.16851 4.02459 5.13716 4.14157L5.62012 4.27098ZM8.19858 2.54394L8.64727 2.3233C8.58364 2.19391 8.46726 2.09829 8.32799 2.06098C8.18872 2.02366 8.04013 2.04828 7.92033 2.12852L8.19858 2.54394ZM2.25203 16.8409L2.735 16.9703L2.25203 16.8409ZM7.90421 19.3906L7.7748 19.8736C7.97758 19.9279 8.19271 19.8498 8.31337 19.678L7.90421 19.3906ZM12.0523 20.5021L11.5543 20.5464C11.5729 20.7555 11.7201 20.9308 11.9229 20.9851L12.0523 20.5021ZM18.0438 21.0723L17.5609 20.9429L18.0438 21.0723ZM21.4119 8.50238L21.8949 8.63179C21.9262 8.51481 21.914 8.39042 21.8606 8.28174L21.4119 8.50238ZM20.0424 5.71749L20.4911 5.49684C20.4275 5.36746 20.3111 5.27184 20.1718 5.23452C20.0326 5.19721 19.884 5.22183 19.7642 5.30206L20.0424 5.71749ZM17.464 7.44453L17.0153 7.66517C17.0789 7.79456 17.1953 7.89018 17.3346 7.92749C17.4738 7.96481 17.6224 7.94019 17.7422 7.85996L17.464 7.44453ZM16.0945 4.65964L16.5432 4.43899C16.4795 4.30961 16.3632 4.21399 16.2239 4.17667C16.0846 4.13936 15.936 4.16398 15.8162 4.24421L16.0945 4.65964ZM13.516 6.38668L13.0673 6.60732C13.131 6.73671 13.2473 6.83233 13.3866 6.86965C13.5259 6.90696 13.6745 6.88234 13.7943 6.80211L13.516 6.38668ZM12.1465 3.60179L12.5952 3.38115C12.5316 3.25176 12.4152 3.15614 12.2759 3.11883C12.1367 3.08151 11.9881 3.10613 11.8683 3.18636L12.1465 3.60179ZM9.56807 5.32883L9.11939 5.54948C9.18301 5.67886 9.29939 5.77448 9.43866 5.8118C9.57793 5.84911 9.72653 5.82449 9.84632 5.74426L9.56807 5.32883ZM5.89837 4.68641L8.47683 2.95936L7.92033 2.12852L5.34187 3.85556L5.89837 4.68641ZM2.735 16.9703L6.10309 4.40039L5.13716 4.14157L1.76907 16.7115L2.735 16.9703ZM3.08855 17.5827C2.82182 17.5112 2.66352 17.237 2.735 16.9703L1.76907 16.7115C1.55466 17.5117 2.02953 18.3342 2.82973 18.5486L3.08855 17.5827ZM8.03362 18.9077L3.08855 17.5827L2.82973 18.5486L7.7748 19.8736L8.03362 18.9077ZM8.31337 19.678C8.73247 19.0813 9.49358 18.7805 10.2373 18.9798L10.4961 18.0138C9.33395 17.7025 8.14771 18.174 7.49505 19.1033L8.31337 19.678ZM10.2373 18.9798C10.981 19.179 11.4897 19.8201 11.5543 20.5464L12.5504 20.4578C12.4498 19.3268 11.6582 18.3252 10.4961 18.0138L10.2373 18.9798ZM16.9485 21.2964L12.1817 20.0192L11.9229 20.9851L16.6897 22.2623L16.9485 21.2964ZM17.5609 20.9429C17.4894 21.2096 17.2152 21.3679 16.9485 21.2964L16.6897 22.2623C17.4899 22.4768 18.3124 22.0019 18.5268 21.2017L17.5609 20.9429ZM20.9289 8.37297L17.5609 20.9429L18.5268 21.2017L21.8949 8.63179L20.9289 8.37297ZM19.5937 5.93813L20.9632 8.72302L21.8606 8.28174L20.4911 5.49684L19.5937 5.93813ZM17.7422 7.85996L20.3207 6.13291L19.7642 5.30206L17.1857 7.02911L17.7422 7.85996ZM15.6458 4.88028L17.0153 7.66517L17.9126 7.22389L16.5432 4.43899L15.6458 4.88028ZM13.7943 6.80211L16.3727 5.07506L15.8162 4.24421L13.2378 5.97126L13.7943 6.80211ZM11.6978 3.82243L13.0673 6.60732L13.9647 6.16604L12.5952 3.38115L11.6978 3.82243ZM9.84632 5.74426L12.4248 4.01721L11.8683 3.18636L9.28982 4.91341L9.84632 5.74426ZM7.7499 2.76458L9.11939 5.54948L10.0168 5.10819L8.64727 2.3233L7.7499 2.76458Z" fill="#18161E"/>
</svg>
