<svg width="24" height="24" viewBox="0 0 24 24" fill="none" xmlns="http://www.w3.org/2000/svg">
<path d="M9.13312 8.57143H14.8669M7.41299 12H16.587M10.2799 15.4286H14.0068M15.9215 4L8.07848 4C7.66696 4 7.28699 4.21976 7.08282 4.57584L3.15109 11.433C2.94964 11.7843 2.94964 12.2157 3.15109 12.567L7.08282 19.4242C7.28699 19.7802 7.66695 20 8.07848 20H15.9215C16.333 20 16.713 19.7802 16.9172 19.4242L20.8489 12.567C21.0504 12.2157 21.0504 11.7843 20.8489 11.433L16.9172 4.57584C16.713 4.21976 16.333 4 15.9215 4Z" stroke="#18161E" stroke-linecap="round" stroke-linejoin="round"/>
</svg>
