<svg width="24" height="24" viewBox="0 0 24 24" fill="none" xmlns="http://www.w3.org/2000/svg">
<path d="M12 8.625C10.136 8.625 8.625 10.136 8.625 12C8.625 12.8644 8.94996 13.6529 9.48438 14.25M12 8.625C13.864 8.625 15.375 10.136 15.375 12C15.375 12.8644 15.05 13.6529 14.5156 14.25M12 8.625H20.1562M14.5156 14.25C13.8976 14.9405 12.9996 15.375 12 15.375C11.0004 15.375 10.1024 14.9405 9.48438 14.25M14.5156 14.25L8.625 20.1406M9.48438 14.25L3.85938 8.625M21 12C21 16.9706 16.9706 21 12 21C7.02944 21 3 16.9706 3 12C3 7.02944 7.02944 3 12 3C16.9706 3 21 7.02944 21 12Z" stroke="#18161E" stroke-linecap="round" stroke-linejoin="round"/>
</svg>
