<svg width="24" height="24" viewBox="0 0 24 24" fill="none" xmlns="http://www.w3.org/2000/svg">
<path d="M6.98485 15.9048H6.99485M10.5105 15.9047H10.5205M15.9908 8.65684H16.0008M8.75292 10.2479L14.4098 15.9047L8.75292 21.5616L3.09607 15.9047L8.75292 10.2479ZM16.0008 3.00003L21.6576 8.65688L16.0008 14.3137L10.3439 8.65688L16.0008 3.00003ZM7.24486 15.9048C7.24486 16.0428 7.13293 16.1548 6.99486 16.1548C6.85679 16.1548 6.74486 16.0428 6.74486 15.9048C6.74486 15.7667 6.85679 15.6548 6.99486 15.6548C7.13293 15.6548 7.24486 15.7667 7.24486 15.9048ZM10.7705 15.9047C10.7705 16.0428 10.6586 16.1547 10.5205 16.1547C10.3825 16.1547 10.2705 16.0428 10.2705 15.9047C10.2705 15.7666 10.3825 15.6547 10.5205 15.6547C10.6586 15.6547 10.7705 15.7666 10.7705 15.9047ZM16.2508 8.65684C16.2508 8.79491 16.1389 8.90684 16.0008 8.90684C15.8627 8.90684 15.7508 8.79491 15.7508 8.65684C15.7508 8.51877 15.8627 8.40684 16.0008 8.40684C16.1389 8.40684 16.2508 8.51877 16.2508 8.65684Z" stroke="#18161E" stroke-linecap="round" stroke-linejoin="round"/>
</svg>
