<svg width="24" height="24" viewBox="0 0 24 24" fill="none" xmlns="http://www.w3.org/2000/svg">
<path d="M6.98485 15.9048H6.99485M10.5105 15.9047H10.5205M15.9908 8.65684H16.0008M7.24486 15.9048C7.24486 16.0428 7.13293 16.1548 6.99486 16.1548C6.85679 16.1548 6.74486 16.0428 6.74486 15.9048C6.74486 15.7667 6.85679 15.6548 6.99486 15.6548C7.13293 15.6548 7.24486 15.7667 7.24486 15.9048ZM10.7705 15.9047C10.7705 16.0428 10.6586 16.1547 10.5205 16.1547C10.3825 16.1547 10.2705 16.0428 10.2705 15.9047C10.2705 15.7666 10.3825 15.6547 10.5205 15.6547C10.6586 15.6547 10.7705 15.7666 10.7705 15.9047ZM16.2508 8.65684C16.2508 8.79491 16.1389 8.90684 16.0008 8.90684C15.8627 8.90684 15.7508 8.79491 15.7508 8.65684C15.7508 8.51877 15.8627 8.40684 16.0008 8.40684C16.1389 8.40684 16.2508 8.51877 16.2508 8.65684ZM11.051 9.36399L15.2937 13.6066C15.6842 13.9972 16.3173 13.9972 16.7079 13.6066L20.9505 9.36399C21.341 8.97347 21.341 8.3403 20.9505 7.94978L16.7079 3.70714C16.3173 3.31661 15.6842 3.31661 15.2937 3.70714L11.051 7.94978C10.6605 8.3403 10.6605 8.97347 11.051 9.36399ZM3.80318 16.6118L8.04582 20.8545C8.43634 21.245 9.06951 21.245 9.46003 20.8545L13.7027 16.6118C14.0932 16.2213 14.0932 15.5881 13.7027 15.1976L9.46003 10.955C9.06951 10.5645 8.43634 10.5645 8.04582 10.955L3.80318 15.1976C3.41265 15.5881 3.41265 16.2213 3.80318 16.6118Z" stroke="#18161E" stroke-linecap="round" stroke-linejoin="round"/>
</svg>
