<svg width="24" height="24" viewBox="0 0 24 24" fill="none" xmlns="http://www.w3.org/2000/svg">
<path d="M22 12C22 15.7014 19.989 18.9331 17 20.6622M22 12C22 8.65305 20.3557 5.69014 17.8309 3.875M22 12C12.5 10 6.79167 16.0079 5.125 19.2619M7.15499 3.25C8.5903 2.45355 10.2422 2 12 2C14.1759 2 16.1895 2.69495 17.8309 3.875M7.15499 3.25C9.39499 5.69145 14.5 12.5919 17 20.6622M7.15499 3.25C4.97182 4.46144 3.2897 6.46622 2.49797 8.875M17 20.6622C15.5291 21.513 13.8214 22 12 22C9.33698 22 6.91708 20.9591 5.125 19.2619M2.49797 8.875C2.17482 9.85819 2 10.9087 2 12C2 14.8598 3.20048 17.4393 5.125 19.2619M2.49797 8.875C5.59425 10.125 12.9956 10.875 17.8309 3.875" stroke="#18161E" stroke-linecap="round" stroke-linejoin="round"/>
</svg>
