<svg width="24" height="24" viewBox="0 0 24 24" fill="none" xmlns="http://www.w3.org/2000/svg">
<path d="M15.2494 9C14.3874 9 13.5608 9.34241 12.9513 9.9519C12.3418 10.5614 11.9994 11.388 11.9994 12.25C11.9994 13.112 12.3418 13.9386 12.9513 14.5481C13.5608 15.1576 14.3874 15.5 15.2494 15.5C16.1113 15.5 16.938 15.1576 17.5475 14.5481C18.157 13.9386 18.4994 13.112 18.4994 12.25C18.4994 11.388 18.157 10.5614 17.5475 9.9519C16.938 9.34241 16.1113 9 15.2494 9ZM15.2494 9H11.9994M15.2494 9C16.1113 9 16.938 8.65759 17.5475 8.0481C18.157 7.4386 18.4994 6.61195 18.4994 5.75C18.4994 4.88805 18.157 4.0614 17.5475 3.4519C16.938 2.84241 16.1113 2.5 15.2494 2.5H11.9994M8.74939 15.5C7.88744 15.5 7.06079 15.8424 6.45129 16.4519C5.8418 17.0614 5.49939 17.888 5.49939 18.75C5.49939 19.612 5.8418 20.4386 6.45129 21.0481C7.06079 21.6576 7.88744 22 8.74939 22C9.61134 22 10.438 21.6576 11.0475 21.0481C11.657 20.4386 11.9994 19.612 11.9994 18.75V15.5M8.74939 15.5H11.9994M8.74939 15.5C7.88744 15.5 7.06079 15.1576 6.45129 14.5481C5.8418 13.9386 5.49939 13.112 5.49939 12.25C5.49939 11.388 5.8418 10.5614 6.45129 9.9519C7.06079 9.34241 7.88744 9 8.74939 9M11.9994 15.5L11.9994 9M11.9994 2.5V9M11.9994 2.5H8.74939C7.88744 2.5 7.06079 2.84241 6.45129 3.4519C5.8418 4.0614 5.49939 4.88805 5.49939 5.75C5.49939 6.61195 5.8418 7.4386 6.45129 8.0481C7.06079 8.65759 7.88744 9 8.74939 9M11.9994 9H8.74939" stroke="#18161E" stroke-linecap="round" stroke-linejoin="round"/>
</svg>
