<svg width="24" height="24" viewBox="0 0 24 24" fill="none" xmlns="http://www.w3.org/2000/svg">
<path d="M8.79247 8.85423C9.51792 8.30131 10.4012 7.9747 11.3224 7.91357C11.4905 5.04974 14.092 2.95804 14.092 2.95804C17.8679 6.51049 19.1222 5.98884 20.3001 9.7272C21.7399 14.2971 18.5708 20.8216 11.7064 20.99C4.46591 21.1677 -0.754806 12.191 5.40671 5.46523C5.38586 5.77267 5.95436 7.7171 6.3182 8.16347H6.32247C6.93293 7.4704 7.68541 6.90753 8.53227 6.51049C8.34481 7.20581 8.18538 8.35653 8.79247 8.85423ZM8.79247 8.85423C9.51792 8.30131 10.3987 7.97286 11.3199 7.91173C18.0795 8.16347 16.8822 18.1112 9.67199 16.1418C8.79357 15.9018 7.14079 14.5641 7.50956 13.2347C8.02072 11.3921 11.5298 12.4374 11.6475 10.7211C11.6404 10.5756 9.23959 9.22034 8.79247 8.85423Z" stroke="#18161E" stroke-linecap="round" stroke-linejoin="round"/>
</svg>
