<svg width="24" height="24" viewBox="0 0 24 24" fill="none" xmlns="http://www.w3.org/2000/svg">
<path d="M14.2826 10.1368V10.1368C14.7451 9.70498 15.5 10.0329 15.5 10.6657V15M7.5 10.2C7.62587 9.45334 8.57374 9 9.59734 9C12.6541 9 12.3875 12 9.32996 12C12.3875 12 12.6541 15 9.59734 15C8.57374 15 7.62587 14.5467 7.5 13.8M20.7071 16.7929L16.7929 20.7071C16.6054 20.8946 16.351 21 16.0858 21H4C3.44772 21 3 20.5523 3 20V4C3 3.44772 3.44772 3 4 3H20C20.5523 3 21 3.44772 21 4V16.0858C21 16.351 20.8946 16.6054 20.7071 16.7929Z" stroke="#16151C" stroke-miterlimit="1.02018" stroke-linecap="round" stroke-linejoin="round"/>
</svg>
