<svg width="24" height="24" viewBox="0 0 24 24" fill="none" xmlns="http://www.w3.org/2000/svg">
<path d="M15.615 8.87754L16.5083 9.42653C17.586 10.0889 17.9355 11.5208 17.2888 12.6248L13.4547 19.1706C12.4374 20.9073 10.2617 21.5092 8.52928 20.5332M8.52928 20.5332L4.35886 18.1836C2.11122 16.9173 1.32866 13.9994 2.62925 11.7346L4.72257 8.08929C5.38533 6.93518 6.85881 6.58887 7.94643 7.33161L9.28029 8.2425C10.282 8.92657 10.5903 10.2915 9.98367 11.3567L7.0811 16.4537C6.71905 17.3376 6.50183 19.3909 8.52928 20.5332ZM8.21809 15.8708L8.63003 16.0818C9.68485 16.6221 10.9678 16.2474 11.5859 15.2186L15.0452 9.46032C16.1831 7.42065 18.1752 4.79814 20.7353 6.54648M8.50339 7.42065L9.73775 5.28651C11.0132 3.08141 13.7871 2.34441 15.948 3.63652L17.8907 4.79814L20.7353 6.54648M20.7353 6.54648C22.1747 7.52943 22.3361 9.48897 21.4694 11.0225L18.0974 16.9886C17.3623 18.2893 15.7213 18.7073 14.4771 17.9107" stroke="#18161E" stroke-linecap="round" stroke-linejoin="round"/>
</svg>
