<svg width="24" height="24" viewBox="0 0 24 24" fill="none" xmlns="http://www.w3.org/2000/svg">
<path d="M2 17C1.44772 17 1 16.5523 1 16V12.7277C1 12.4572 1.10963 12.1982 1.30385 12.0098L6.17932 7.2821C6.36589 7.10118 6.61557 7 6.87546 7H10.3125C10.8648 7 11.3125 7.44772 11.3125 8V10.3045L14.4293 7.2821C14.6159 7.10118 14.8656 7 15.1255 7H18.5625C19.1148 7 19.5625 7.44772 19.5625 8V10.6667C19.5625 11.219 20.0102 11.6667 20.5625 11.6667H22C22.5523 11.6667 23 12.1144 23 12.6667V16C23 16.5523 22.5523 17 22 17H18.5C17.9477 17 17.5 16.5523 17.5 16V13.6955L14.3832 16.7179C14.1966 16.8988 13.9469 17 13.687 17H10.25C9.69771 17 9.25 16.5523 9.25 16V13.6955L6.13317 16.7179C5.94659 16.8988 5.69691 17 5.43702 17H2Z" stroke="#18161E" stroke-linecap="round" stroke-linejoin="round"/>
</svg>
