<svg width="24" height="24" viewBox="0 0 24 24" fill="none" xmlns="http://www.w3.org/2000/svg">
<path d="M19.9091 12V5.14286C19.9091 4.51167 19.4207 4 18.8182 4H10.0909C9.48842 4 9 4.51167 9 5.14286V6.85714M12.8182 15L13.9049 15.6641C14.2445 15.8717 14.6646 15.8717 15.0042 15.6641L19.3594 13.0026C20.0867 12.5581 21 13.1077 21 13.9898V18.8571C21 19.4883 20.5116 20 19.9091 20H9C8.39751 20 7.90909 19.4883 7.90909 18.8571V17.1429M4.09091 17.1429H11.7273C12.3298 17.1429 12.8182 16.6312 12.8182 16V8C12.8182 7.36882 12.3298 6.85714 11.7273 6.85714H4.09091C3.48842 6.85714 3 7.36882 3 8V16C3 16.6312 3.48842 17.1429 4.09091 17.1429ZM7.90909 14.5714C6.70411 14.5714 5.72727 13.5481 5.72727 12.2857V11.7143C5.72727 10.4519 6.70411 9.42857 7.90909 9.42857C9.11408 9.42857 10.0909 10.4519 10.0909 11.7143V12.2857C10.0909 13.5481 9.11408 14.5714 7.90909 14.5714Z" stroke="#18161E" stroke-linecap="round" stroke-linejoin="round"/>
</svg>
