<svg width="24" height="24" viewBox="0 0 24 24" fill="none" xmlns="http://www.w3.org/2000/svg">
<path d="M4.1875 8.81667H7.75M4.1875 8.81667L5.375 4H10.0508C12.0593 4 13.6875 5.2389 13.3906 7.11667C12.7969 9.5611 9.7585 8.81667 7.75 8.81667M4.1875 8.81667L3 14.2M7.75 8.81667C9.7585 8.81667 11.3125 10.0556 11.3125 11.9333C11.3125 13.8111 10.7188 13.9167 11.9062 15.05M11.9062 15.05H15.1719L17.25 11.3667L17.8438 15.05H22L18.1406 17.3167L18.7344 20.4333L15.7656 18.7333L11.6094 21L13.9844 17.0333L11.9062 15.05Z" stroke="#18161E" stroke-linecap="round" stroke-linejoin="round"/>
</svg>
