<svg width="24" height="24" viewBox="0 0 24 24" fill="none" xmlns="http://www.w3.org/2000/svg">
<path d="M14.5 12C13.1193 12 12 10.8807 12 9.5M14.5 12C15.8807 12 17 10.8807 17 9.5M14.5 12H19.5M14.5 12C13.1193 12 12 13.1193 12 14.5M12 9.5V4.5M12 9.5C12 10.8807 10.8807 12 9.5 12M12 9.5C12 8.11929 10.8807 7 9.5 7M17 9.5V4.5C17 3.11929 15.8807 2 14.5 2C13.1193 2 12 3.11929 12 4.5M17 9.5V12H19.5M17 9.5C17 8.11929 18.1193 7 19.5 7C20.8807 7 22 8.11929 22 9.5C22 10.8807 20.8807 12 19.5 12M12 4.5V7L9.5 7M12 4.5C12 3.11929 10.8807 2 9.5 2C8.11929 2 7 3.11929 7 4.5C7 5.88071 8.11929 7 9.5 7M12 14.5C12 15.8807 13.1193 17 14.5 17M12 14.5V19.5M12 14.5C12 13.1193 10.8807 12 9.5 12M14.5 17H19.5C20.8807 17 22 15.8807 22 14.5C22 13.1193 20.8807 12 19.5 12M14.5 17L12 17V19.5M14.5 17C15.8807 17 17 18.1193 17 19.5C17 20.8807 15.8807 22 14.5 22C13.1193 22 12 20.8807 12 19.5M9.5 12C8.11929 12 7 13.1193 7 14.5M9.5 12L4.5 12M7 14.5L7 19.5C7 20.8807 8.11929 22 9.5 22C10.8807 22 12 20.8807 12 19.5M7 14.5L7 12H4.5M7 14.5C7 15.8807 5.88071 17 4.5 17C3.11929 17 2 15.8807 2 14.5C2 13.1193 3.11929 12 4.5 12M4.5 12C3.11929 12 2 10.8807 2 9.5C2 8.11929 3.11929 7 4.5 7L9.5 7" stroke="#16151C" stroke-linejoin="round"/>
</svg>
