<svg width="24" height="24" viewBox="0 0 24 24" fill="none" xmlns="http://www.w3.org/2000/svg">
<path d="M21.9286 16.6276C21.7898 16.2437 21.5255 16.0382 21.2245 15.8681C21.1748 15.8384 21.1237 15.8112 21.0714 15.7866C20.9816 15.7394 20.8898 15.6937 20.7984 15.6455C19.8601 15.1396 19.1274 14.5015 18.6192 13.7451C18.48 13.5396 18.1049 13.0807 18.235 12.8075C18.4344 12.4822 18.9515 12.2983 19.258 12.0765C19.91 11.6129 20.2455 11.0806 20.2819 10.4596C20.3413 9.44488 19.5285 8.60718 18.5095 8.60718V8.60718C18.2004 8.60688 17.9062 8.38242 17.8888 8.07383C17.7051 4.80328 15.6462 2 12.0146 2C8.38158 2 6.32798 4.80665 6.14199 8.07643C6.12445 8.38487 5.83028 8.60895 5.52134 8.60925V8.60925C4.50141 8.60925 3.68928 9.4469 3.74727 10.4622C3.78277 11.0838 4.11874 11.6165 4.77078 12.0802C5.07979 12.3001 5.58821 12.4876 5.79228 12.8112C5.92297 13.0832 5.5485 13.5431 5.4096 13.7476C4.91262 14.487 4.20135 15.1137 3.29312 15.6154C2.81197 15.8748 2.31193 16.0481 2.10069 16.6318C1.52215 18.2325 3.58739 18.4177 4.46106 19.0111C6.17383 20.5357 8.5438 22 12.0136 22C15.4775 22 17.8638 20.5434 19.5662 19.0121C20.2172 18.5632 21.0524 18.6364 21.6092 17.9568C21.9888 17.5439 22.0842 17.0572 21.9286 16.6276Z" stroke="#16151C" stroke-linejoin="round"/>
</svg>
