<svg width="24" height="24" viewBox="0 0 24 24" fill="none" xmlns="http://www.w3.org/2000/svg">
<path fill-rule="evenodd" clip-rule="evenodd" d="M8.77555 10.066C12.3643 8.74992 12.9752 5.3217 12.517 2.1697C12.517 2.05596 12.6087 1.97473 12.7003 2.00722C16.1363 3.79444 20 7.69384 20 13.5429C20 18.0272 16.7319 21.9916 11.9825 21.9916C10.2878 22.0736 8.61569 21.5528 7.23008 20.5114C5.84446 19.47 4.82428 17.9674 4.33054 16.2406C3.8368 14.5138 3.89763 12.6613 4.50342 10.9754C5.10921 9.28945 6.22547 7.86618 7.67601 6.9302C7.76764 6.86521 7.88981 6.9302 7.88981 7.04394C7.93562 7.64509 8.08834 9.15611 8.71446 10.066H8.77555Z" stroke="#18161E" stroke-linecap="round" stroke-linejoin="round"/>
</svg>
