<svg width="24" height="24" viewBox="0 0 24 24" fill="none" xmlns="http://www.w3.org/2000/svg">
<path d="M10.1143 16.157L12 18L13.8857 16.157M23 6.63502L19.5429 8.17087C13.0057 4.23922 6.76191 6.53268 4.45714 8.17087L1 6.63502M11.3714 12.7783C11.3714 15.4925 9.12006 17.6928 6.34286 17.6928C3.56565 17.6928 1.31429 15.4925 1.31429 12.7783C1.31429 10.064 3.56565 7.86371 6.34286 7.86371C9.12006 7.86371 11.3714 10.064 11.3714 12.7783ZM22.6857 12.7783C22.6857 15.4925 20.4343 17.6928 17.6571 17.6928C14.8799 17.6928 12.6286 15.4925 12.6286 12.7783C12.6286 10.064 14.8799 7.86371 17.6571 7.86371C20.4343 7.86371 22.6857 10.064 22.6857 12.7783ZM8.22857 12.7783C8.22857 13.7961 7.38431 14.6212 6.34286 14.6212C5.30141 14.6212 4.45714 13.7961 4.45714 12.7783C4.45714 11.7604 5.30141 10.9353 6.34286 10.9353C7.38431 10.9353 8.22857 11.7604 8.22857 12.7783ZM19.5429 12.7783C19.5429 13.7961 18.6986 14.6212 17.6571 14.6212C16.6157 14.6212 15.7714 13.7961 15.7714 12.7783C15.7714 11.7604 16.6157 10.9353 17.6571 10.9353C18.6986 10.9353 19.5429 11.7604 19.5429 12.7783Z" stroke="#18161E" stroke-linecap="round" stroke-linejoin="round"/>
</svg>
