<svg width="24" height="24" viewBox="0 0 24 24" fill="none" xmlns="http://www.w3.org/2000/svg">
<path d="M9.33333 8.8333L12 11.5M12 11.5L14.6667 14.1666M12 11.5L14.6667 8.8333M12 11.5L9.33333 14.1666M4.36754 4.54412L11.3675 2.21079C11.7781 2.07394 12.2219 2.07394 12.6325 2.21079L19.6325 4.54412C20.4491 4.81635 21 5.58063 21 6.44149V12C21 17.6059 15.7622 20.593 12.6273 21.7768C12.2225 21.9297 11.7775 21.9297 11.3727 21.7768C8.23779 20.593 3 17.6059 3 12V6.44149C3 5.58063 3.55086 4.81635 4.36754 4.54412Z" stroke="#16151C" stroke-linecap="round" stroke-linejoin="round"/>
</svg>
