<svg width="24" height="24" viewBox="0 0 24 24" fill="none" xmlns="http://www.w3.org/2000/svg">
<path d="M3.5 11.5L12.5 20.5M11 4L20 13M11 13L12 12M12 12L13 11M12 12L11.25 11.25M12 12L12.75 12.75M21 9.75C21 15.9632 15.9632 21 9.75 21C8.21848 21 6.75843 20.694 5.42768 20.1397C4.71928 19.8447 4.15534 19.2807 3.86029 18.5723C3.30604 17.2416 3 15.7815 3 14.25C3 8.0368 8.0368 3 14.25 3C15.7815 3 17.2416 3.30604 18.5723 3.86029C19.2807 4.15534 19.8447 4.71928 20.1397 5.42768C20.694 6.75843 21 8.21848 21 9.75Z" stroke="#16151C" stroke-linecap="round" stroke-linejoin="round"/>
</svg>
