<svg width="24" height="24" viewBox="0 0 24 24" fill="none" xmlns="http://www.w3.org/2000/svg">
<path d="M22 12C22 17.5228 17.5228 22 12 22C6.47715 22 2 17.5228 2 12C2 6.47715 6.47715 2 12 2C17.5228 2 22 6.47715 22 12Z" stroke="#18161E" stroke-linecap="round" stroke-linejoin="round"/>
<path d="M12.25 8.25C12.25 8.66421 11.9142 9 11.5 9C11.0858 9 10.75 8.66421 10.75 8.25C10.75 7.83579 11.0858 7.5 11.5 7.5C11.9142 7.5 12.25 7.83579 12.25 8.25Z" stroke="#18161E" stroke-linecap="round" stroke-linejoin="round"/>
<path d="M17.25 10.25C17.25 10.6642 16.9142 11 16.5 11C16.0858 11 15.75 10.6642 15.75 10.25C15.75 9.83579 16.0858 9.5 16.5 9.5C16.9142 9.5 17.25 9.83579 17.25 10.25Z" stroke="#18161E" stroke-linecap="round" stroke-linejoin="round"/>
<path d="M13.25 13.25C13.25 13.6642 12.9142 14 12.5 14C12.0858 14 11.75 13.6642 11.75 13.25C11.75 12.8358 12.0858 12.5 12.5 12.5C12.9142 12.5 13.25 12.8358 13.25 13.25Z" stroke="#18161E" stroke-linecap="round" stroke-linejoin="round"/>
</svg>
