<svg width="24" height="24" viewBox="0 0 24 24" fill="none" xmlns="http://www.w3.org/2000/svg">
<path d="M18.9996 19L20.1156 6.35158C20.322 4.01276 18.479 2 16.1311 2H9.17754C6.72069 2 4.84452 4.19416 5.22607 6.6212L6.32815 13.6316M18.9996 19L4.99955 18.9999M18.9996 19C19.5519 19 19.9996 19.4477 19.9996 20V21C19.9996 21.5523 19.5519 22 18.9996 22H4.99958C4.44729 22 3.99958 21.5523 3.99958 21V20C3.99958 19.4477 4.44726 18.9999 4.99955 18.9999M4.99955 18.9999L2.41881 12.9173C2.04352 12.0328 2.3503 11.0228 3.15035 10.5089L5.49919 9.00003" stroke="#16151C" stroke-linecap="round" stroke-linejoin="round"/>
</svg>
