<svg width="24" height="24" viewBox="0 0 24 24" fill="none" xmlns="http://www.w3.org/2000/svg">
<path d="M8.5625 11.6957H15.4375M8.5625 11.6957V7C8.5625 5.89543 7.66707 5 6.5625 5H5.75C4.64543 5 3.75 5.89543 3.75 7V12M8.5625 11.6957V17C8.5625 18.1046 7.66707 19 6.5625 19H5.75C4.64543 19 3.75 18.1046 3.75 17V12M15.4375 11.6957V7C15.4375 5.89543 16.3329 5 17.4375 5H18.25C19.3546 5 20.25 5.89543 20.25 7V12M15.4375 11.6957V17C15.4375 18.1046 16.3329 19 17.4375 19H18.25C19.3546 19 20.25 18.1046 20.25 17V12M20.25 12H23M3.75 12H1" stroke="#16151C" stroke-linecap="round" stroke-linejoin="round"/>
</svg>
