<svg width="24" height="24" viewBox="0 0 24 24" fill="none" xmlns="http://www.w3.org/2000/svg">
<path d="M8.89671 16.6667H15.1033M8.89671 16.6667V18.875C8.89671 20.6009 10.2861 22 12 22C13.7139 22 15.1033 20.6009 15.1033 18.875V16.6667M8.89671 16.6667L2.50444 8.14319C1.34918 6.60277 2.28977 4.38112 4.19339 4.15392L5.92153 3.94767C7.23905 3.79043 8.4465 4.70414 8.66306 6.02224L9.20704 9.33333M15.1033 16.6667L21.4956 8.14319C22.6508 6.60277 21.7102 4.38112 19.8066 4.15392L18.0785 3.94767C16.761 3.79043 15.5535 4.70414 15.3369 6.02224L14.793 9.33333M13.862 16.6667L15.3663 4.81702C15.556 3.32263 14.3998 2 12.9037 2H11.0963C9.60019 2 8.44397 3.32263 8.63368 4.81702L10.138 16.6667H13.862Z" stroke="#16151C" stroke-linecap="round" stroke-linejoin="round"/>
</svg>
