<svg width="24" height="24" viewBox="0 0 24 24" fill="none" xmlns="http://www.w3.org/2000/svg">
<path d="M5.59209 4.58333V7.67265C5.59209 8.02991 5.40149 8.36004 5.09209 8.53867L2.41667 10.0833M2.41667 13.75L5.09209 15.2947C5.40149 15.4733 5.59209 15.8034 5.59209 16.1607V19.25M21.6667 10.0833L18.9912 8.53867C18.6818 8.36004 18.4912 8.02991 18.4912 7.67265V4.58333M18.4912 19.25V16.1607C18.4912 15.8034 18.6818 15.4733 18.9912 15.2947L21.6667 13.75M15.2151 2.75L12.5397 4.29466C12.2303 4.47329 11.8491 4.47329 11.5397 4.29466L8.86429 2.75M15.2151 21.0835L12.5397 19.5388C12.2303 19.3602 11.8491 19.3602 11.5397 19.5388L8.86429 21.0835M22 12C22 17.5228 17.5228 22 12 22C6.47715 22 2 17.5228 2 12C2 6.47715 6.47715 2 12 2C17.5228 2 22 6.47715 22 12ZM5.65726 5.16068V7.67265C5.65726 8.02991 5.84786 8.36004 6.15726 8.53867L8.33268 9.79466C8.64208 9.97329 9.02328 9.97329 9.33268 9.79466L11.5081 8.53867C11.8175 8.36004 12.0081 8.02991 12.0081 7.67265V5.16068C12.0081 4.80342 11.8175 4.47329 11.5081 4.29466L9.33268 3.03868C9.02328 2.86004 8.64208 2.86004 8.33268 3.03868L6.15726 4.29466C5.84785 4.47329 5.65726 4.80342 5.65726 5.16068ZM5.65726 16.1607V18.6726C5.65726 19.0299 5.84786 19.36 6.15726 19.5387L8.33268 20.7947C8.64208 20.9733 9.02328 20.9733 9.33268 20.7947L11.5081 19.5387C11.8175 19.36 12.0081 19.0299 12.0081 18.6726V16.1607C12.0081 15.8034 11.8175 15.4733 11.5081 15.2947L9.33268 14.0387C9.02328 13.86 8.64208 13.86 8.33268 14.0387L6.15726 15.2947C5.84785 15.4733 5.65726 15.8034 5.65726 16.1607ZM12.0752 5.16068V7.67265C12.0752 8.02991 12.2658 8.36004 12.5752 8.53867L14.7507 9.79466C15.0601 9.97329 15.4412 9.97329 15.7507 9.79466L17.9261 8.53867C18.2355 8.36004 18.4261 8.02991 18.4261 7.67265V5.16068C18.4261 4.80342 18.2355 4.47329 17.9261 4.29466L15.7507 3.03868C15.4412 2.86004 15.0601 2.86004 14.7507 3.03868L12.5752 4.29466C12.2658 4.47329 12.0752 4.80342 12.0752 5.16068ZM12.0752 16.1607V18.6726C12.0752 19.0299 12.2658 19.36 12.5752 19.5387L14.7507 20.7947C15.0601 20.9733 15.4412 20.9733 15.7507 20.7947L17.9261 19.5387C18.2355 19.36 18.4261 19.0299 18.4261 18.6726V16.1607C18.4261 15.8034 18.2355 15.4733 17.9261 15.2947L15.7507 14.0387C15.4412 13.86 15.0601 13.86 14.7507 14.0387L12.5752 15.2947C12.2658 15.4733 12.0752 15.8034 12.0752 16.1607ZM2.44827 10.6608V13.1728C2.44827 13.53 2.63887 13.8602 2.94827 14.0388L5.1237 15.2948C5.4331 15.4734 5.8143 15.4734 6.1237 15.2948L8.29912 14.0388C8.60852 13.8602 8.79912 13.53 8.79912 13.1728V10.6608C8.79912 10.3035 8.60852 9.97341 8.29912 9.79478L6.1237 8.5388C5.8143 8.36016 5.4331 8.36016 5.1237 8.5388L2.94827 9.79478C2.63887 9.97341 2.44827 10.3035 2.44827 10.6608ZM15.2823 10.6608V13.1728C15.2823 13.53 15.4729 13.8602 15.7823 14.0388L17.9577 15.2948C18.2671 15.4734 18.6483 15.4734 18.9577 15.2948L21.1331 14.0388C21.4425 13.8602 21.6331 13.53 21.6331 13.1728V10.6608C21.6331 10.3035 21.4425 9.97341 21.1331 9.79478L18.9577 8.5388C18.6483 8.36016 18.2671 8.36016 17.9577 8.5388L15.7823 9.79478C15.4729 9.97341 15.2823 10.3035 15.2823 10.6608Z" stroke="#16151C" stroke-miterlimit="1.02018" stroke-linecap="round" stroke-linejoin="round"/>
</svg>
