<svg width="24" height="24" viewBox="0 0 24 24" fill="none" xmlns="http://www.w3.org/2000/svg">
<path d="M7.07976 3.39099C6.70255 4.71406 6.5 6.11566 6.5 7.56664C6.5 10.0861 7.11073 12.4567 8.18607 14.5259M6.49343 19.9964C7.97081 19.8449 9.44601 19.4734 10.8776 18.8641C13.3633 17.806 15.4237 16.1562 16.9748 14.1352M22.0089 12.314C21.054 11.3028 19.9412 10.4006 18.6815 9.64662C16.4941 8.33734 14.1223 7.62947 11.7737 7.47689M11.5798 2.5C11.2026 3.76742 11 5.11005 11 6.5C11 8.59071 11.4583 10.5744 12.2799 12.356M20.7198 16.7257C19.8261 15.7511 18.7781 14.8878 17.5854 14.1739C15.9283 13.182 14.0793 12.6088 12.2799 12.356M12.2799 12.356C10.1647 14.4945 6.65233 16.2762 3.66613 16.7257M22 12C22 17.5228 17.5228 22 12 22C6.47715 22 2 17.5228 2 12C2 6.47715 6.47715 2 12 2C17.5228 2 22 6.47715 22 12Z" stroke="#16151C" stroke-linecap="round" stroke-linejoin="round"/>
</svg>
