<svg width="24" height="24" viewBox="0 0 24 24" fill="none" xmlns="http://www.w3.org/2000/svg">
<path d="M2 6.5C2 5.39543 2.89543 4.5 4 4.5H15C16.1046 4.5 17 5.39543 17 6.5V17.5C17 18.6046 16.1046 19.5 15 19.5H4C2.89543 19.5 2 18.6046 2 17.5V6.5Z" stroke="#18161E" stroke-linejoin="round"/>
<path d="M17 11.2361C17 10.4785 17.428 9.786 18.1056 9.44721L20.5528 8.22361C21.2177 7.89116 22 8.37465 22 9.11803V15.882C22 16.6253 21.2177 17.1088 20.5528 16.7764L18.1056 15.5528C17.428 15.214 17 14.5215 17 13.7639V11.2361Z" stroke="#18161E" stroke-linejoin="round"/>
</svg>
